<mxfile host="65bd71144e">
    <diagram id="iP8-AAd5OoqevDA0O5ip" name="Page-1">
        <mxGraphModel dx="656" dy="397" grid="0" gridSize="10" guides="1" tooltips="1" connect="1" arrows="1" fold="1" page="1" pageScale="1" pageWidth="1169" pageHeight="1654" math="0" shadow="0">
            <root>
                <mxCell id="0"/>
                <mxCell id="1" parent="0"/>
                <mxCell id="36" value="" style="rounded=0;whiteSpace=wrap;html=1;labelBorderColor=none;fontSize=14;" parent="1" vertex="1">
                    <mxGeometry x="270" y="160" width="450" height="230" as="geometry"/>
                </mxCell>
                <mxCell id="34" style="edgeStyle=none;html=1;exitX=0.75;exitY=0;exitDx=0;exitDy=0;entryX=0.897;entryY=1.005;entryDx=0;entryDy=0;entryPerimeter=0;fontSize=14;" parent="1" source="33" target="10" edge="1">
                    <mxGeometry relative="1" as="geometry"/>
                </mxCell>
                <mxCell id="33" value="" style="rounded=0;whiteSpace=wrap;html=1;fontSize=14;" parent="1" vertex="1">
                    <mxGeometry x="270" y="415" width="452" height="70" as="geometry"/>
                </mxCell>
                <mxCell id="3" value="" style="shape=image;verticalLabelPosition=bottom;labelBackgroundColor=#ffffff;verticalAlign=top;aspect=fixed;imageAspect=0;image=data:image/png,iVBORw0KGgoAAAANSUhEUgAAAJYAAACWCAMAAAF82LFGAAAAAXNSR0IArs4c6QAAAARnQU1BAACxjwv8YQUAAAELUExURQAAAAAAAAAAAAAAAAAAAAAAAAAAAAAAAAAAAAAAAAAAAAAAAAAAAAAAAAAAAAAAAAAAAAAAAAAAAAAAAAAAAAAAAAAAAAAAAAAAAAAAAAAAAAAAAAAAAAAAAAAAAAAAAAAAAAAAAAAAAAAAAAAAAAAAAAAAAAAAAAAAAAAAAAAAAAAAAAAAAAAAAAAAAAAAAAAAAAAAAAAAAAAAAAAAAAAAAAAAAAAAAAAAAAAAAAAAAAAAAAAAAAAAAAAAAAAAAAAAAAAAAAAAAAAAAAAAAAAAAAAAAAAAAAAAAAAAAAAAAAAAAAAAAAAAAAAAAAAAAAAAAAAAAAAAAAAAAAAAAAAAAAAAAAAAAAAAAOHKN1wAAABYdFJOUwAEBggMEBIVFhceHyAhJCYoKisuLzQ3ODxAQ0VGSE9ZW1xdZ2hqa2xzdHh7f4CDh4uMjY+Rk5aXmJ2eoqSur7C5uru8v8fIz9DR0tTX3+Dh4uPn6O3y+f2MYvA/AAAACXBIWXMAABcRAAAXEQHKJvM/AAAGiklEQVRoQ+2biXbVNhCGHWigQGnYS1jDvoWtTcsS9rAkQFkD+P2fpKOZ3/LoaoZrAc6hoO/c44z/mZF1HVmyLN/mKznTKqCRET5k8Edre5p2W68tN+16015v2rXgFI0+JJDMCVGb70rotKVe6DQyeiDxwWRvsVxbXFzMtFh6r/3GBGuWtxuEVAV0Gj4r+rTgs9A2F6DNdRo+AYpfNjT6zCfao+6kL/Ua7Sqi1m2w7YxBWjz3SoulR01OPZ912f4P+IAvkoMAQfa7LW2u83b1s2ELTbO7bS80zba2vcR+4W7bHm6aI227Qjvdtk/siBqVs0cHOGHzDTUON4z3beAHEHPgB1HQLmolY4f1QPvysMo4yHk3gF+AlrMVAUx3qZC5wlsK4O3t4AVHWVvm7XoSFbYdcrFqjxXl+Tc+iup7nP4IM2bUtoZGkfZ1CGCM65+2fccgDIsSz1L0L/GWdmizUyKYIJrAL0DLgV+AlgO/EPfDJR0Hmh8uigZd4vGUqJ4NicIYL8xADCqsSuXrmZNWWAIyc+huqxRk5sBfQt+Fp4QOnTtwgvpwgs3mRW/eUTKbb8TOoJtRQuw1ZbO5hc3zbLMZBspoZ7BP52v7EJuH2D7C9mG2D7Cdwb5VZeuyzrO5he1ltkV/LPYEMrele2mCbqeJF2xLzh1lG3WfQO759anX+brcpKzkvqRDXGLLqdffy6iLnPxbspNwkD1JCo3JRBiWCbZ9R8KwFLGnlZVUX+wbbN+QHbYNx3O2Jzn9Nvhe7t//koMC52bPwXIc9+JAMwm7i0CiAQIKQKIBAgpAokHuD3cOgWzQhQN7Brm/lrWxZVnUsiqVSuUHQrq3EuaQmYOAAs4gMwcBBdxFZsavCCjgA1IzjiOgBKRm3FZeNsMjdtjKTKYwbBq8UV421VxBTxX01MS7XWWnng9d7+313kymQ0fFzmCnDtTzDjZFXlM2DpfBTv0FFtgOiw5JWdrG15jkADsPs32EbT1nZDMvC/Ykl9in52m72V5gm83BZYXHaJ1PpmD5vJhN2KvKnoRd8Onptp6Grytbjmdf3exCnLb13J8fCSTnwb662WWUtZLZuuGbV/dWdhllSV3EljrqdmNe3XJlG48B9DmSc6fbMxwpt9hjhImt/6e64ZtlvWaPrn5S1h62pa0lDuvqFk/JFFvsg7KTIJ7yssSRoj3fU1nP2TPoMULiEDtlp3KJGdYqZOkioB3/9I5HrE8yc4+dUx9JBP6F4+1pJGdwWBFINEBAAUg0QEABSDRAQAFINEBAAUg0QEABSDQQ/yL2GJGMJEeOiL+W1eHIEfHXsjocOSL+n6Gsx7JCKoj0xWWZIKLHkSPiN0FEjyNHxG+CiB5HjojfBBE9jhwRvwkiehw5In4TRPQ4ckT8JojoceSILG+bIKLHkSuVSqVSqVR+BuRWaFxwqAKOyt3euHiP6X3+ROaoeE/8feTB98g4iwc+fyBxZJz32FwuIo+4Mt9zAhrxDBLzDKKjtu0JSIEr0IiLONxQZLGD2QspcBIacR8S8xRi+xQCcx8icRJSYC80wn5Tz0W91PkOEnMNInETEiPP54n+/XbiJkTiGiTmHUTCX0e1UL+aewCJeQiR0A8tNn2E2H7cBCkQnz+07UNIzAOIhL8ka6FeW02+53uIxClIgR3QiB2QAqegEe8hMeqcu6u7FlvV76V0q9gHLXAMWkCWAxl9bR2DFtgHLaBa6AfzdUsHvXjstHjv+E5tvTbvvs9rIatVjNfi2+3QAuq/pf+326EFvDZvvVDqMBMvLL/FJ237MkTiMqRAfyX4bf61++Zmhh6mvRb/ChKjeoKk33gFkfDafMFwLQuTgtfivX7T7mUJp80XDNd6mPZavHd4r7pumx88XOsLyG3xdifvd/Numx88XMuLBILX4p1O3u/m3Taf/Nbzc6hh2m3xXifvdvN+mx84XCe/vfBavNttut282+YHDtdYWBb0kvJGOHxqtYRh1dr9CeGBsxADZ6Ex387xSV4YmspVxAfezUJsmlnd2XxDx1WIU9n1BBmBq5tZ26yvaabc8fcvuePJ76wNBmmjgkOVgMxRwaFKQOao4FAlIHNUcKgSkDkqOFQJyBwVHKoEZDLJmrhG32wE/oLuk2TgUCUgk0mW/TX6hiow/flekgGtBGQytVrTQCZTqzUNZDK1WtNAJlOrNQ1kMrVa00Am851WazC1WiXUapVQq1XCT1utSqVSqVRGoWn+A+4HQpgROzG5AAAAAElFTkSuQmCC;" parent="1" vertex="1">
                    <mxGeometry x="525" y="420" width="60" height="60" as="geometry"/>
                </mxCell>
                <mxCell id="6" value="" style="shape=image;verticalLabelPosition=bottom;labelBackgroundColor=#ffffff;verticalAlign=top;aspect=fixed;imageAspect=0;image=data:image/png,iVBORw0KGgoAAAANSUhEUgAAAiEAAAIhCAMAAAHYzqojAAAAAXNSR0IArs4c6QAAAARnQU1BAACxjwv8YQUAAAMAUExURQAAAAAAAAAAAAAAAAAAAAAAAAAAAAAAAAAAAAAAAAAAAAAAAAAAAAAAAAAAAAAAAAAAAAAAAAAAAAAAAAAAAAAAAAAAAAAAAAAAAAAAAAAAAAAAAAAAAAAAAAAAAAAAAAAAAAAAAAAAAAAAAAAAAAAAAAAAAAAAAAAAAAAAAAAAAAAAAAAAAAAAAAAAAAAAAAAAAAAAAAAAAAAAAAAAAAAAAAAAAAAAAAAAAAAAAAAAAAAAAAAAAAAAAAAAAAAAAAAAAAAAAAAAAAAAAAAAAAAAAAAAAAAAAAAAAAAAAAAAAAAAAAAAAAAAAAAAAAAAAAAAAAAAAAAAAAAAAAAAAAAAAAAAAAAAAAAAAAAAAAAAAAAAAAAAAAAAAAAAAAAAAAAAAAAAAAAAAAAAAAAAAAAAAAAAAAAAAAAAAAAAAAAAAAAAAAAAAAAAAAAAAAAAAAAAAAAAAAAAAAAAAAAAAAAAAAAAAAAAAAAAAAAAAAAAAAAAAAAAAAAAAAAAAAAAAAAAAAAAAAAAAAAAAAAAAAAAAAAAAAAAAAAAAAAAAAAAAAAAAAAAAAAAAAAAAAAAAAAAAAAAAAAAAAAAAAAAAAAAAAAAAAAAAAAAAAAAAAAAAAAAAAAAAAAAAAAAAAAAAAAAAAAAAAAAAAAAAAAAAAAAAAAAAAAAAAAAAAAAAAAAAAAAAAAAAAAAAAAAAAAAAAAAAAAAAAAAAAAAAAAAAAAAAAAAAAAAAAAAAAAAAAAAAAAAAAAAAAAAAAAAAAAAAAAAAAAAAAAAAAAAAAAAAAAAAAAAAAAAAAAAAAAAAAAAAAAAAAAAAAAAAAAAAAAAAAAAAAAAAAAAAAAAAAAAAAAAAAAAAAAAAAAAAAAAAAAAAAAAAAAAAAAAAAAAAAAAAAAAAAAAAAAAAAAAAAAAAAAAAAAAAAAAAAAAAAAAAAAAAAAAAAAAAAAAAAAAAAAAAAAAAAAAAAAAAAAAAAAAAAAAAAAAAAAAAAAAAAAAAAAAAAAAAAAAAAAAAAAAAAAAALMw9IgAAAD/dFJOUwABAgMEBQYHCAkKCwwNDg8QERITFBUWFxgZGhscHR4fICEiIyQlJicoKSorLC0uLzAxMjM0NTY3ODk6Ozw9Pj9AQUJDREVGR0hJSktMTU5PUFFSU1RVVldYWVpbXF1eX2BhYmNkZWZnaGlqa2xtbm9wcXJzdHV2d3h5ent8fX5/gIGCg4SFhoeIiYqLjI2Oj5CRkpOUlZaXmJmam5ydnp+goaKjpKWmp6ipqqusra6vsLGys7S1tre4ubq7vL2+v8DBwsPExcbHyMnKy8zNzs/Q0dLT1NXW19jZ2tvc3d7f4OHi4+Tl5ufo6err7O3u7/Dx8vP09fb3+Pn6+/z9/usI2TUAAAAJcEhZcwAAFxEAABcRAcom8z8AACURSURBVHhe7d13oCRFuTbwIUiOSs45iURJSpKgl5yDIiBhAYFLDqtEyQhcchYBuQSRJAv3woKXBWURYUGSXEBZFpDlI6zAImHxcr7T3U9XT7/V1VU1Uz3TM/P8/mC7663qrqlTnDPzTnV3g6iOhvBvW4aGAhxm+CDtHyY+SLuHwUHaOwwOEUGJv6nQPvlnapR6Wj1pPbyVbHwzKfazb9I23v4y3hwRb3u5LG74J+w9Hu9djj1nj8XNLo024+5cHO8/Fm26+zxu9KNoc/jf6J8945LPo01XcYuhFYe35o235h3eWiHe8viJZ/W3SDaHtsgXu8hqn5RsDjs5H7DL6o5KNmOj8iGbrObEZBMm5oPlsnrJVpN8uExWK9nKyVcwy+okW0K+iklWI9nS5CsVy+LJVoF8tSJZNNkqlK+oy2LJlkG+qpRFki2jfOW8rDzZKpFVmirabJKUZlulomrJr7/cYVaOiz6ONuMtm6ji+/HWKtEmxAVj1JZdVPU+tZUa3j0H/7qJKp+KfzNDO8f/dRdV31ocBFDDBVoUQQ0XaFEENTIoL4voUCODch5FQDmPIqCcRxFQzqMIKPc7ChHRgHn8cWy04YuhoS+w2bIQv5+TY7R3FBxiGApagAPEUOQtbZ3+24qsbbblq7ll87aPfLv8nqusVfrfdN9d1qb5X7+jZC2Kttxk9ZOtVo6S1U62Ivlyu6xuspXI9uXH/yJJzWwrlZVYj7JqUi/aTLYyUVmSQ1gt2jTbO640PtqMt3Ki0pfjrX2iTZNL4iq3RpvxlhCV3xhvxQnVYo/GFY6JNuMtTRQ5LN56NNos8mkc/k60GW8ViMZ03Xjr06iaLo4NzTK8tUqyWWTV4fD0yWbcSMgiyGgXi5PbyWa0lZeVX5FsmlyZr90sK30y2TR7Ml8/k5UlW+XyLVJZSbJlk2+T+IfajzccqLofRFuJjZrLnaD2d6N/laRfSQUXSfX4vxJqOECDIqjhAA2KoEYG5eZAAdTIoJwHaYJyHqQJynmQJijnQZqg3OsgREREg+JO/Nttrw//aX4d292UvEkYhv1uQS8SKOsG9CCD8k7D2fMQ6yScOZbf6agFcNZYXILt2IJxSSdsiTPGUJbvy1Yoq9YJOFvkTZQl3kRp5ESUVedOnClyF8qyjM7tiESq/cX7Gs4SOQ5lyY8F242R8V7iNZSFhxPEVG4M+1lfNsF+DGVh4dixOVGGtDhEudrI7NiPoSwcHDeGosYI7Gf2Q6SwehA4ZgxFjSuxnxfnjSPYj6GofTheDEWNcdjXjUONXDOXL1Fs5sOxYijLnaQAauWqzY+yVm2O40SmoMzWjwhqNv6J/Ui8dLtFx+EYEfU1CvZtULsxBvuR41Hmq/kX5gUoc+1HBC0a52A/cgfKfLyKtpHdUObTj0g6T3fGfuRVlLlCs9gyKJsH+z6iqwMiS2A/hjIXaBFDUW7u+lDzFPsxFNmgdgxFjROx34qTcAzfvqBmDEWNu7Hfqvhihwj2YygyQa0YihpvYb8db+FY+K44Yf7Fm5uSKMv1rS04Xq4v6YTO+zdEIy+jLFw/Ijhm41nsRzZDWY76dvZGFITtRwTHbVyD/aGrUaCJgodhO3w/Ijh244Bop/Qv9Hz4d1jcMjQce1jTmWzQNiwc2w/ahoVj+0HbEqiYQXkJVPSDtiVQMYPyEqjoB21LoGIG5SVQ0Q/alkDFDMpLoKIftC2BihmUl0BFP2hbAhUzKC+Bin7QtgQqZlBeAhX9oG0JVMygvAQq+kHbEqiYQXkJVPSDtiVQMYPyEqjoB21LoGIG5SVQ0Q/alkDFDMpLoKIftC2BihmUl0BFP2hbAhUzKC+Bin7QtgQqZlBeAhX9oG0JVMygvAQq+kHbEqiYQXkJVPQz3goVMygvgYpEREREREREXlr8bBtcy5+yw5o6/rjf6m0Nw1kw6Ucn1/AVwo0aI6ujqCtyCwy3RGEXiEVaLdxwMgxtdUP1axoLXY7TN/G+e2YIzQsulS4sav8jTi38EeGOmYATR85pXvY0ARU6ZApOGzksvSI/oRa2dQLOGYtvIti8/KqDf3hwwti3k6JvYzeWFFUPp4stjrLGYiiIoaxiOFlsepQNmw5FMZRVCqeKoQhQGENRhXCiGIoUFMdQVBmcJoaixnnnYaODPcFJYihq3Dw0dDM2O9YTnCKGosbD0c7D2MnVCLEWuRhOEENR45Vk9xXsdqIn8+PwMZRlq47/iYJcTxZAWVCr4eAxlBWOEXZjFbyRTe+THUNZ7pxZafNyxeBvZPfBgSP/QJnoR9aT97Af2RdlgRyPw0ZeQJnWj6wnz2A/cgLKgrgUB42MRllBP7Ke/Df2I5ehLIA7cMjIdSgr7EfWk19gPxLsjexYHDByOsoM/ch6cgr2I2NR1qbxOFzkIJQZ+5H1ZH/sR4J8E/4ZDhbZDmUl/ch+n26F/chnKGsDjhRbE2UzYt9gJlRr+oSeDVSrcJjYQihbEvtGS6Fi4dUzrcFBYumQr4f9Euujaq49ilqCQ8RQ1NgF+6V2ReVAPcEBYihqHI59iyNRPUhP0DyGotxFNaUCvn1E4xiKGjdh30Gwt49oGkNR7oInq/jW+hHsx/zftKFhDEW4E5+zwgsjfHuCZjEUNT7GvrP4mQURt6tMCiTPPgGU5frmCk1zPfG4fiB3T0CUtdSP4p6k16pabYYGkXdQ1mI/sp40X1G9Ocos9kL1yNMoa7kfWU+Sp/Yk9kZZqZ+icuRelLXRj6wnzWlIdb21WfKcoIS6Sgf7LcJBcJPNxCUoM7oNFSPxM3oi2G8ZDtP4CfYjt6PM4A+oFim8+Lk16e+O5HlKCeNdQSN/Q6VI4XWJrUp70nyl+99QVuATVImk/7PPgP02zYjDfR37kU9QpkE8VnjNaDuWxAHnwH4MZQKCMRTh9qxBrIdDFp6nGUIxFOUTyu3aBQe19KQ5TYqiXIo9gMNx2OaeNCVqFYSyfji/LXR1Lg6snypPBJNbCQd1Ew4tTyW90Bx8Iq4a2D04eNyTl7Bd4MSmTj4dtwxM/TUf7olKLBSJbpUMFXekkd7gw6rqjjhjR6Qe6oi6kjpl/03MjkjsiMSOSOyIxI5I7IjEjkjsiMSOSOyIxI5I7IjEjkjsiMSOSOyIxI5IrXTk97h1iNmOqKkchoCZWkJBRERERERERERERERERL3ld0O/wxZF4gt7shubDLxJ8XhEJqFkoM2GwUjNhvJBtSzGodmyiA2iDTEG0oaID5rv4/UX+T7qDBLbnV3UNbkD4ud43WXOQd1BcANes80NqN/vHsTrdfEg2vSzyXit0kT8K01Gu36VvT3Ni241eAK2pUn+N2HqFfLtqbIPKjTfRTJndlToL8vg1Wman+Dd/AzxnP57I7sBXplmJVRIrYRyTX+9kd0Vr0ozFyo0+xpimv55I2t6e/oR4roPUUM6AvHedjZejfQi4sX+glrSzxHvXb/CK5G0HOK2+FcxvZH7FeK96QG8Ckl7VVcNF16FbeW6pLLmAcR7z/N4BdJZiCv3IKDucpQ6AwHp+Z580/Y+ei8dgrjyFAKRp1CmHIyA9H6vjcms6LhmB1RQ3kYg9TbKle0Q0PRSRnZp9FmzDiqkZkJ5Xnqf6NRaKNcsgwp1tz76q1kEFVJLoVyX3rE6tVDzXVWbbYAKdWa6H/W/pkWFlHHgYure2TD15whI6tbWNWW6iPJ1xBXj+3pFe6mvIiDVOSN7FvooPYa4cgQC5dT9xFPNN21tdjbidXM9+idp96Y9FwE7dWfz1K8RkOr4RnY0+iZdjLjicYP1YeommanzEZDUczlq4jn0SxqJuOJ1o/eYutt76igEpOdq9Kat+TExzfZAXPG84Tyo+86nfoCA9F49xmQWdEezMSoo3je+Vz6WL9X0jfHQrKjQPcZ3WcujQmoelLcqvfF0ahnTm7alUaE7jI8pkcnz3MMBWiSfADCzaUzku7vOMd0X+z3Elc0RaJe6YXtKfkxMqZtsd9ShOLv0LOLKvgiEoD2ndhwCknZLksqdiTNL9yGuaI+8bZN60EFqFAKSlpeqlCnfdw3iyhUIhKRlH00nuR7x6t2PM0qnIq6YfnztGoXjK6aJOLojb1CexdmkAxBXTP+LhzAO51BMXxk/W/mYvIszSVsjrphWP4QyUb7U5qfuNHu3yjGZGSfRfBMVUpbHywUis48rm96gND0XICjj0+vmR4WU9TF3wcjs41ymMZEVQzA9LuVTxBWHx+0FpL0/NX1lrJ7REshOOK6kPZXH6bF/QWnZR9NXxvEDzQM5BMeUHkFccXz8YGDaigHTV8aHIt4u01eNtyCuBH/ejTP1YJyUKcN5JuLtuBbHkrQUaAXP3fGgZR9NHzPU03hbdB+OI2lp8ocQ6J6H0BPF9JXx/W28QWl+lHMzbfnTSwh010vypW6PgPRMi2PyDtpL2h8806LdztOyj2sb3qC84z8mxd9RD5PvdeZGeV3Mg36lFjG9aZsZFdwYn6KXPp8vtTLK62QV9C01zRQEpPQRf3bfRgtpIuKK6cNVt2lPQn0NAWldxMvtiNqS8wfwOtgXfVQeRUDaCfFyRV84a0ka07r+ujgJ/VRuRaDZWOdfsP+OFqkrUK5UkS0M7Ur0VbkAgZRfdrr5KdAnoky5G4G60yb20QhEFkSZB6xMSC/1yNhvV14X+j3Qd0sCd7b4Hm2H/KUeqV4ekUZjwy+HfoDNYHp7RKrAEZE4IhJHROKISCFGxP7uyP58ETuOiMQRkTgiEkdE4ohIHBGJIyJxRCSOiMQRkTgiEkdE4ohIHBGJIyJxRCSOiMQRkTgiEkdE4ohIHBGJIyJxRCSOiMQRkTgiEkdE4ohIHBGJIyJxRCSOiMQRkTo1IkRERERERERERERERERERERERERERERERERERFWabz5sUGzDoaENsUnDtoouqtwKO9T4fnyVqf5MwkG1XzIeQ0P7oWDAHYHhGKY9cHYQ5Z54rz1Ka/CIZ/2eg+KBdTkGQrkcgQF1A4ahyQ0IDaS7MAg5dyE4gAwPLX8Q4YHzOAZA8zgqDJgX8PILvIAqA2UCXnyhCag0QCbhpRtMQrVBMZXpudPKlBafDNqbZsOrLjU7Kg+ABfCSLVp4mm5vWhYv2Go5NOhzq+PlOvgmmvS1DfBinQxAonVLvFRHfZ9oXRcv1Nl6aNinRuBlamafHRuavk60Ho4XKUXvwqb6HDtSHydac+nTJu8l4fewK52UhPvPz/ECpfGIN8ajQOrTROtleHnSs4gPexZFUl8mWgvSp7FHEY/9AYVSHyZa78RLk+5DHP4bxdKdiPeNB/DCpFsRV25FQHoA8T7xR7ws6RrEm1yDkPRHxPvC83hR0gWI55yPoPQ84n3AlD49FXHhFISlCf2SRHsfL0g6BnHN0aggvd8XI2J8S34AKhTYH1Wkz6dGhR42K16LZjdUKPQDVNLMhgo9a368EM3WqGAQrzorsgAq9Khl8DI030EFow1RUbMsKvSk1fAiNDJZOsfQ0BzYTBnbro4KPciYPl0GFVILR4ULYye1dFy1QM8mWrfAC9DMjwqpFZLiFbCbmi8p1m2JCj1mF3RfMwsqpNZC+dDaKEjN9CUC0q6o0FP2ReelTxFXNkVg2KYoUj5GQBqBeA8xPUHnHcSV7RGIbY9CZSIC0uGI94wT0HHpb4greyIAe6JYeRkBqcdWtJ6NbkvaU5MORkA5GAFlHALSzxHvCZei09IjiCs/QaDJTxBSHkJAugzxHvArdFm6F3HlDARyzkBQuRsBqWcSrXegw9ItiCsXIyBcjLByIwJSjyRaR6O70tWIK9choLkOFRRtATiMRrzWHkNnpfMQV25HoMDtqKKYvuN6DPEaew5dlU5GXDFNpJj2ozf9GX+u7km019BR6UjEFdNEAu1Hb3qj91q9R8T0fbW2psGUh1e0HPs+CEjv1XlEPkMnJe3ywtJlzAltMfPOCEif1XZEZkEPNVuggmJZxpyYJF/oZghoZkWFmjGmL9ZHhdQ0XyBg8cW0aJAyrseSCZZaMCa4VkWF1BwodzAnmqRWQrlGpuBqYFV0TbMUKqTidKGrRdAotbgpZbQaKtTG+uiYZl5USCFd6OrraJaayzQiG6BCTWyObmlmRIWUShe6kmnF6Uwjov3m7ibTX8SPEVc2QcCDllb8AAFpF8RrwPSeaSLiynYIeNHSim8gIO2LeNcdig5JLyOu7IGAJy2t+BcEJPuz0jvieHRHGoe4chAC3rS0oul6zhMQ76qz0BlpDOLKSARaoKUVTUvWzka8iy5BV6S7EVdOR6AlWlrRlJW7FPGuuR4dkW5EXLkIgRZpaUXTiX+FeJeYsl5XIK5ci0DLrsWBFENCdugOxLvifnRC0han34ZAG27DoZTClP2wLiZax6ILkvatmmngvNyPgykFX+rExnYrQWJaqq+9HTANnCctrah97QfPdmdExuP00j6IK6a8szctrWh6pze+GyPyLk4u7Yy44pAudKUt3TV9Fni38yPyKU4tbYa44pQudKWlFZsWl+R82uERmRnn1ayLCqmpHdOFrr6YBgdOrY2ARq5TqtS8OKlmJVRIGa+1bJ1crbiCKUHSwftvLoVTahZHhdRCKA9KrlZc2DQiS6NC5VbBCTVzoUJqeZQHJlcrzmEaEZnersh6OJ1melRIrYny4NbCCVJTm27PIr8AqYTp66KPEFc2RqACWlrR9BXq5ohXaCecSvo74sq2CFRCSyuOR0DS3hWFtjdOJL2IuNJiutCVllY0fY7Q3jeHdQhOI/0JcaXldKErLa34KALSoYhX4jicRPod4kob6UJXWlrRdMnv8YhX4EycQtJu59hWutCVllY0XfJ7FuLBmXJU2vLINtOFrrS0oumS30sQD8y0aFDL67adLnSlrVY0XfJ7PeJBmbKA2oQMkC50pa1WNF3yq1Vs3304tHQc4kqQdKErLa1ouuT3/tDpANMftUMQVwKlC12NxWmVAxCQAidan8Fhpb0QV4KlC11pC1VNl/w+E3JEXsVBpR0QV0zLVCukLVQ1XfL7argReQeHlL6LuGK6yr9S2h0BNjSkA94JNSKf4IDSOoinjJ/CKzZFphVXN4zIJ0FGZCYcTbMiKqQqSBe6kmnFZUwpo5lRoQ3z4FCaRVEhVUm60JVMK85vGhG5BtDbkjiQRi4hrShd6EqmFWcxjYhcJeppZRxG+pdcZFxZutCVTCsaf/OtgnhLTGup/4G4UmG60NUm6IryNgJSG/ff/DccQnodcaXSdKGr7dAZ5RUEJO3LRVc74gCSdl/+3RHosj3QHeUpBKSdEPe0F5pL2g3FDkSg6w5Ch5QxCEh7I+7l39FY0hboHItADYxEl5RRCEjaZ1K7n6KppGUWTkOgFk5Hp5SbEJC0rIWNaQGXlqS6EIGauAjdUq5EQDoTcUemrKiWxvwlArWhrVYUTwVTtJdSxpQV1RLdv0GgRrTViqYbH2uT3cz0MrXfWaa8Yldpv/VNt8bWhs7E9I2P9letw+lCV1q20HT3n/vc0gGm2wBr73s6ni50paUVTRc4PeoyIn9GZUl7Z9yFdKErLa24meHD758dRsTwBmRjhJWupAtdaWnFdYtHxOl7321QOWdNBFP2Zyp11xR5o9GVi0ZEm/XFCtbULY9QyumZSt0ln+i0hD4i7pc/v44WqYVQnloQ5bUmOz23GJE3XX6jpvJ/eeVgL4fympPTeobciDzgMx65N7za/45rIFB78hdf40MEhhXeMLzMj9Bw6H0UZBDoAdokeBOBVm6miHmgHu2RSQK9QL+n9YtJ4NvY9TLj5OGWTY/2UJJj9oKCm3z/abj4c/nFlqvH8o/2SCUn6wVFdz1/cOgpv1+nzYpzBjhbDygakMZV+DccnK0HFA5IeDhbD+CACBwQgQMicEAEDojAARE4IEIPDQgOVaI4CeqHAyJwQAQOiMABETggAgdE4IAIHBCBAyJwQAQOiMABETggAgdE4IAIHBCBAyJwQAQOiMABETggAgdE4IAIHBCBAyJwQAQOiMABETggAgdE4IAIHBCBAyJwQAQOiMABETggAgdE4IAIHBCBAyJwQAQOiMABETggAgdE4IAIHBCBAyJwQAQOiMABETggAgdE4IAIHBCBAyJwQAQOiMABETggAgdE4IAIHBCBAyJwQAQOiMABETggQocGZHwAOFQJVGxL63eSJSIiIiIiIiIiIiIiIiIiIiIiIiIiIiIiIiIiIiIiIiIiIiIiIiIiIiIiIiIiIiIiIiIiIiIiGkzz/WXoxfmxTSR97/fx8xN//z3sEzXb4el4fkSe3gFlRKk9/4rZkfjrnignihz8NmZG5u2DESMa+TFmRd7HIxGngTbDaZgQRU6bAbVoUM19IeaCyYVzoyYNosWvwTwoc83iqE2D5hu3Yg7Y3PoNtKBB8q3/ws/fxX99C61oUHz3EfzsXT3yXbSkQbB9lj519/T2aE39bs9X8DP39QoTrYPgID196u7tg3AU6leG9Kk7Jlr7WWn61N1pM+J41F/mugA/4fZdwERr/1nMJX3qjonWPvONX+MnG86vV8Kxqfet45M+dcdEa5/wTp+6e4QrWnvf9k/hp1mNp7iitbdtMhk/SVc3z3AztlxN3hTnot5z0ET8FF3FS8q8syYTD54qOR/1lmM906eTj0XD4aaev3o+Hsk50mum9/1F8NaBaJn48Vsod3U6V7T2Eu/06Us/RMvMD/8XMVdc0dozvNOnT2yDlnnbPIG4KyZae4J3+vR/NkJL3Ub/gzqumGitvXXuxc/K1W/XQMti37wL9Vzdy0RrnW3qmz79z+XQ0mzZG1DXFVe01pZ3+vTyBdCy3AKXob4rJlpraY+X8fNxdfasaGk369lo4+rlPZkgqZkDPdOnnx2Phq6O+xQtHU08iHOkRnxzoO8eioY+DnkHrR1NZqK1JqY/FT8SV6/ujZa+9vobjuCKtw6oga/5pk+f2QktW7HDn3EUVxfOhZbUHYv9Aj8JV23fxc57PRITrV204i34Kbiyrxs8f+h8bBl5J+Vu4a0DumNt35/Ur20/qXkvjutdPC/2TVb0XWV07zpoSZ2z6cMYfVe/WAwtTZa6DjWHhq5bCmUmi1yFmq4eZqK1s7bzTZ+e/zW0NFn1dtRM3L4qyk3mPPdLVHX0FG8d0Dm+6dMvf/YVtDRZfzSqZkavj5jJtCd9gaqOmGjtkAM9l399cBQaGm3xGKrmPbYF4kZHTEJVR28x0Vq9YzzTp2/sj4ZGuz6Pqrrnd0UdoxGvoaqjycdyjlRpOt/06V9+gJZGIyagarEJI1DPaNfnUNXVadOjJYX2tfMxxq4e3wotjRz+TEw6AnWNthiLqq4uYKK1Cov6pk8f3AAtTaZxfKv5xUnToIXJ+vejqqtrbB+9yZd3+vSO1dDSZI5zUdPFuXOglckqv0FNV9b0HflY+x6Mq6vrl0ZLk4WvRE1XVy6MliZL/hI1Xd3DRGsom/imTy+ZDy1NVrgJNX3ctAJam8xzoWcS7WFe8hvCduMwnq7OnBktTdYahZq+Rq2FI5jMcJrnHBm3PT/8tmn3lzCWjj75KRoabTIGVVsxZhMcxeiYj1DV0Ut7cI60wffqWftzpbx/I0lPbYcjGf3476jq6K0DOUda5Pu/o/2Wyd7r4Yu8sgeOZrS75yW/HzHR2oLpTsHwubJ/d9rW3Zib2X9VeV/yeyoTrX6+6ps+tX8sGPlPVA3hnz+1/V+/0e9Q1dUFtvUJlFn0aoyaq3vWRkuTGU9HzXDOnAnHNlnD95Jf6xonSnzdd42fPVFxEWqGZV2tuJzvJb+3rIiWZLaWb/rUnuy8FjXDs65WXOBSzwTJvbbfhoPOO1lh/8Ikv7owNOtqxVnP8pwjY5hoNdvWM1lh/9J1PX11YWijbV8he1/yO247fvgt5Js+dVi4Uby6MLTHtsT5jHwv+WWitYBvJnLCvmhoVLK6MLTnv49zGv3or6jq6O9MtOYd7Zk+fW4XNDSyrC4MbcJ+OK/Rjp5PX/zoGM6R1FdO8XwzN3ZztDTyXYQewKQjbT/R73le8vvlqdOh5WD76n9gQFzdvx5amriuLgzti5OnRQ9MvuV7Ian1QrD+t4hv+vS2VdDSxGt1YWjnzYlemKx4s+fvy18sipaDyTt9eu0SaGnivbowtCsXQU9MFr3Kc44McKLVe62X9b7YLa0uDO2mr6M3Jl89z3OOWL926k8b+6ZPrbd8anl1YWijbD/RaU/+F6o6GrPJwH2w2fZJvHZHTY/2MGhrdWFo9tS576etJwcr0er73AXxaI8Cba8uDG2cdUGTb8bmf3cfmDlygGf69KXd0dAoyOrC0Ow3g/DN+v79xwMxR47+EK/XkeHRHk28H1bWKfbHm/l+c/Rh3ydav/Izz7fxJY/2gJGeDyvrqI9/YvuJ+l7y++Up/ZxondM3fWp5tEclqwtDO8O2WnHV2zz/rzn/q2jZb7zvDmd9tEdFqwtDs65WXOpazzlydT8mWr2TWZcviJYmFa4uDM26WtH7kt+bbWm5XrOmbzLL+miPVW5Dzd5wm2214oy+l/zeY7uIuJds/BBelSP7oz3W872lS/fdb7u3ovcTLvom0bqNZ/rU/miPzX1vC1UPY633VvS9zeOT2/bBHPFNn9of7bGL763l6uO5XW0/Ud/h6vlE6wFv4pU4sj/aY1/P21PWzGsjbD9R30t+3+zlROtRnunTP1gf7XH4+6jau94/wvYT3djzKb8fHt2bc2Tan/0fXoEj66M9pj5xCqr2tinWy3zW+K3fB5v/O8V2W/L6mfM8dN6V9d6As5+Dmv3Aeqngcjd4fvj9j95KtC7smz61Xva+0BWo2S+slxsveJlvotW2/rE+vNOn1hXdy9+Imv3EesuC2c7uz0Trmnejv46+tP4N9T1iz7DeW7Fx/Geo6sh+xK7byDN9an+0h29CtqfY763oe8nvmI1r/cHG97O8/dEevrcD6Dn2C/19n/L7RH0Trbu9iD46sj/aY/c6ri4M7WXrhf47ej7l98Uf1nKO7O+ZPrU/2sP3Wf49a6L10VW+T/l984DazZGjPkDfHD24IRoaHVvn1YWh2Vcrfutevw82H9Qq0TrtyZ7pU+ujPWY4DTUHxxkz4rWbfOMWz0Sr9fmPnTKHb/rU+miPuS9EzcFy8Tx4/SaLXe2baLVdaN4J3pdSWx/tsUTvrC4M7bolMQYm3pf8XtXtRKt3stP6aI+Ve2t1YWi3225+8RXfS36tqdsqreGZ7LQ/2mPd3ltdGJr1BjqNI/+Bqo5GrdmlN60beS5j+H/W++Vv1purC0Mbu4XtJ7rf66jq6KFuJFq39kyf2h/tsXPvri4Mzb5a0feS3ye36fAc8U2f2h/t0eOrC0Ozr1b0veS3o4nW/d/AWR3ZH+3RB6sLQ7OvVlx/tN8Hmzc6lWg90jN9ar3H0lR9srowtCknTY0RMln1ds9E61HVz5FpfD9s3WxdJ9NPqwtDs65W9L3k918/s93Rsz3ed6K0rrXru9WFoVlHcN6LPJNo1jt6tm4h3/Sp9f+AvlxdGJo15TXT6b6JVtusa43vT9P+aI++XV0Ymn1toe8X4RUkWtf4LY7tyP5oj75eXRia/SJu30t+7w6baP2OZ/p0wgg0NPK9W+bAs98t0/f5PA9tFGyObP0nHNOR/dEevi+GhtkfS+T7v90TgRKtF+N4jiba7i3l/QuR4C3rasXlPFc9X2LLuDga4f6/vP2bSd/7qFCTySNtc2RN90t+X94v2J+ZRmOdO3DUctZHewzg6sLQTretVlz+P53myF3rBpwfkdlOtT7x0fpojwFdXRjaRbbVigtebpsjU86oJG22a+kbIeujPZb4JWpSu661rVYsv+T36d0C//rIrHg9zqGxPtpj5d+gJoVg/Xs+lfGS3xttTdsz1TEF15HaH+2x7n2oSqHYPxMc+i6qNpl0XAdu+r25SIbaH+3RaHg+SZQcPG3/pLrXq6gLj3bqkt5FL8EZh9kf7RHhDAnPYYbkL/m9ynadUlAHJKmZJ7fFvgVnSHhOM6TR+N7v4zetbxzaoV8fmYWeHnrFmj5NcYaE5zhDGo35Xhh6sZsXzTjhDAnPeYb0BM6Q8DhDqBxnCJXjDKFynCFUjjOEynGGUDnOECrHGVKFw9CfdhzmvMyvWpwhVeAMqSvOkPA4Q6rAGVJXnCHhcYZUgTOkrjhDwuMMqQJnSF1xhoTHGVIFzpC64gwJjzOkCpwhdcUZEh5nSBU4Q+qKMyQ8zpAqcIbUFWdIeJwhVeAMqSvOkPA4Q6rAGVJXnCHhcYZUgTOkrjhDwuMMqQJnSF1xhoTHGVIFzpC64gwJjzOkCpwhdcUZEh5nSBU4Q+qKMyQ8zpAqcIbUFWdIeJwhVeAMqSvOkPA4Q6rAGVJXnCHhcYZUgTOkrjhDwuMMqQJnSF1xhoTHGVIFzpC64gwJjzOkCpwhdcUZEh5nSBU4Q+qKMyQ8zpAqcIbUFWdIeJwhVeAMqSvOkPA4Q6rAGVJXnCHhcYZUgTOkrjhDwuMMqQJnSF1xhoTHGVIFzpC64gwJjzOkCpwhdcUZEh5nSBU4Q+qKMyQ8zpAqcIbUFWdIeJwhVeAMqSvOkPA4Q6rAGVJXnCHhcYZUgTOkrjhDwuuvGUJERERERERERERERERERERERERERERERERERERERERERERERLXSaPx/R8BDlDPEl3cAAAAASUVORK5CYII=;" parent="1" vertex="1">
                    <mxGeometry x="420" y="420" width="60" height="60" as="geometry"/>
                </mxCell>
                <mxCell id="8" value="" style="shape=image;verticalLabelPosition=bottom;labelBackgroundColor=#ffffff;verticalAlign=top;aspect=fixed;imageAspect=0;image=data:image/png,iVBORw0KGgoAAAANSUhEUgAAATgAAAE3CAMAAAF+8J0bAAAAAXNSR0IArs4c6QAAAARnQU1BAACxjwv8YQUAAABIUExURQAAAAAAAAAAAAAAAAAAAAAAAAAAAAAAAAAAAAAAAAAAAAAAAAAAAAAAAAAAAAAAAAAAAAAAAAAAAAAAAAAAAAAAAAAAAAAAAKuErJsAAAAXdFJOUwABDiAqMEBHYGNwf4+cn6+4v8/U3+/xbaZ4zgAAAAlwSFlzAAAXEQAAFxEByibzPwAACYJJREFUeF7t3Q1727YOhuHubGdLlzVb2nT5//90JPGIIiXSEik6luP3vhrLgGAYQb4at3G+yIb3iEQFRc6c+MrVlNV4tYTxsU/tqMOc+PKc3tBYjTcnKnUhldaBhPHxsm7v/YJEKkmHkoBEKkn7a/n9+pPB/rrfnWU2qXMv6Q0DX7DsF+usgVesw7IOlLnMy4v/E+q+u6P7E+pevpM2oYDD+7M/Utd9v9iscy8cPvZ+SXN1Tvgh2utEmvl3IEOigiInJn5wLUORU0sYH7qXOW01HglDzomJxQ2N1XgxUalbpMNtAhKmULdImHDLoJZIJelQEpBIJWl/xb2kicn+uktfF/w19+c5JowPw5lSnb95UK7Dom4y1/mvBd/tZPIlwh/Dl4hY516m+3UvHOwlq0NyPU+31rmXm9wvaS6Tq1w21YnIOP5Da4lTPeiQ4RRImh+lb8YSoYhjEiZCaoFTa9PZ5FBq5768+M/Y7hBCTq2FswucwpRyn3Yrd5gIZ5+enpJDqd0Cp9ams8mh1M4d90+3wClMqZHtFjh1GbWldm9vbz/tEEJOIaRyaTrURFOq/sqGVC5Nh5qIZIZTIJniTAEFGU5hStmlfy222rlj9yubKGc/oJ0d3WV8Zf3xOaZ9lB43Xlk7ussx7XL1NNcyvno2pezyEV5Z5/k5TObV01x7f11Uz0imxfU016Y1BL56RnJUOxERkdvhS1OKM11okeJMF1qkODMJuW+/EW0IxTnOTMiarbaUpTgzIZv6hVNr4bQdkygVcrmztbNvs/mee6tdjjOTKWeX4a94d93OHgQoPxRQusPDb4rc4XZ2dJd7Xlk7JlFqytnlKd+yuQ9rl6D2I9rZAyg8mnK8nR3dZeFN4TNLSdqKoilnl6dsl9vVzn1yDKwooiC1q10FBalCO3f0e0jCium0XdZ2547XbReOC/lpbrNvd1zLlNN31+7lxf/zpT+EMEm7y+/lNLdpeFPYMT7IkR/dZeNb1o43b7fQlL67du544jeFO45st9CUvsd2iwdHueYfSX3l6iLNtUq7uHAnv1q6l+TqA7cTERERERF5LHxrtIXqD8adb6G67P397eXpV4KRuPMtVJdRk/jx7evOfzS9iG5bqC6j5oLOYbm18xyUAofqMmq2tH/Lzw2dLM4Cx+IKarZouBVqHIt5d8gC58hwF1FdRo1jsYZLUF1GzRZ9QKxQ47wF4Z+CF4Fz6+Es1gdEguoyahyLTzrcRe3DPZXRL6K6jJot7cNV0C8iXUbNllsPZ/Gw97kK+kWky6hxLG4fjootlWrSZdQ4Fp90uIseY7gm3HTLruFeA/uBtzxwqG7CTZ2sWxY4u4azuPJea3EbbupYfOQDwuLLwxFtWRZb/GmHu6inmmCLhks0FY9/n/P/GSLGWeCV4yPvcxZruDlw9AGRaCq+/+FegvDfMxeBs6z2/7/TKQTeovhy6/v/gLBYw82Bc/8fEBf1VBNs+SzDrd5/jGUr6fn9B5YmiCqtNVzC0gSRhktY9mrDiYiIiIiIiIiIiIiIyH1Y/YNRGf9g9ME0XK8hw/lnRFo+8d4Ig4bDv/88//E/kgOMHW4yaMjrDDc5OOR1h5t0Dvkxwxmq95uHsx+3Jc4C59bDkSgEjoZb0XCger+xw73YU8gWAo/q/cYOR1kh8CxuMA93kYZb0XCwuMEDDXcZ1fvNw2U/dZsFzq2HI1EIHA23Mna4n/a8AoXAo3q/scNRVgg8ixtoOFjcYB7uIg238kDDXUb1fhoOVO/3f77EL9Auus1wFbSLNNxetIt2Djf4C38F7aKdw1FWCDyLj6Nd9NDDUbGlXKzhtpWLP8Nwl1FdQsWWcrGG22bF9qDk7PJzo3LTLVSXULGF6ibcdAvVJVRsoboJN91CdQkV7+9v9qw/hcCjugk3PdCaigOfjKq46YHWVGi4deBZXETFvg4EW6y4rXURFRpuHXgWF1GxpaO4sbqEii0dxRou6CjWcEFH8cjhBj5fkBW3tS6iovXznMU8UpYFjsVtrYuo0HDrwLO4iAoNtw48i4uoOPlwl3UUN1aXULGlo1jDBR3FGi7oKB45nL7wLwPP4iIqNNw68CwuokLDrQPP4iIqTj7cZR3FjdUlVGzpKNZwQUexhgs6iq8wnP04RvJIvCkX+18m7xBFVtzWuoiKyLKV+yOIVp+zjGXbWhdREVlWw8HSRVREltVwsHQRFZFlNRwsXURFZFkNB0uLiIiIiIiIiIiIiIiIiIiIiIiIiIiIiIiI1P1pz/47yJ90fQCrn+Y5hJ8negRaXKfTLO5p41lkz+Y0i6OD9++Pf749f/3jt4G/YHK8My5u6ZSLvIfFLZ1ikfe4uKWbLPIzLG7l7fUXul7Pp1zc+/ttFscpQ86QM+RSWtyMnCFnyKW0uBk5Q86QS2lxM3KGnCGX0uJm5Aw5Qy6lxc3IGXKGXGrs4rJu2aD1M7jN4uw5vEDOkDPkUg++uH5aXCctrpMW10mL6zR2cfwaSfOTZFA/g8de3AG3WRynDDlDzpBLaXEzcoacIZfS4mbkDDlDLqXFzcgZcoZcauzism7ZoPUz0OIiLa6CDqm7W5z9ag6QM+QMudSDL66fFtdJi+s0dnF//Zr4i2RQP4PHXtwBWlwnLa7T9RfXhrGqtLgKxqrS4ioYq0qLq2CsqrGLy7pln4zrZ6DFRVpcBR1SH72416Foahir6r4Xx20HoakhV6XFzWhqyFVpcTOaGnJVYxf38nsie/ivfgaPvbgDtLhOWlynsy3uiri7QbS4Tlpcp1GLq/+9p34GnLo67i51YGotLtLiKri71CdaHN/4D0JTw92lPtHiyA1CU0MupcVV0NSQS51gcQe+XaapITcITQ251AN9k9+GpobcIFpcJy2ukxbXSYvrpMV1GrW4K/497pyttbiorbUWF7W11uKittZaXNTWWouL2lqPWtzfT4m/SQb1M6CpIZc6Z+tRizuApobcIDQ15AbR4jppcZ20uE5aXCctrtOoxZ3zL1ucMuRSB1prcVFbay0uamutxUVtrbW4qK21Fhe1tR61uFee1jJ4JRnUz4CmhlzqnK1HLe4Amhpyg9DUkBtEi+ukxXXS4jppcZ20uE5XWdzmX4Iy1BlyVadprcVFWtyMOkOuSoubUWfIVWlxM+oMuSotbkadIVelxc2oM+SqtLgZdYZclRY3o86Qq/qAxfFs/VXZL3re/B3S1BlyVadp3bU4ERERERERERERERERERERkfvw5ct/QPhMBr8MnuoAAAAASUVORK5CYII=;" parent="1" vertex="1">
                    <mxGeometry x="310" y="420" width="60.19" height="60" as="geometry"/>
                </mxCell>
                <mxCell id="31" style="edgeStyle=none;html=1;exitX=0.25;exitY=0;exitDx=0;exitDy=0;entryX=0.5;entryY=1;entryDx=0;entryDy=0;fontSize=14;" parent="1" source="10" target="27" edge="1">
                    <mxGeometry relative="1" as="geometry"/>
                </mxCell>
                <mxCell id="11" value="Buildings" style="text;html=1;align=center;verticalAlign=middle;resizable=0;points=[];autosize=1;strokeColor=none;fillColor=none;fontSize=20;" parent="1" vertex="1">
                    <mxGeometry x="137" y="436" width="91" height="28" as="geometry"/>
                </mxCell>
                <mxCell id="10" value="" style="shape=image;verticalLabelPosition=bottom;labelBackgroundColor=#ffffff;verticalAlign=top;aspect=fixed;imageAspect=0;image=https://beta.mortardata.org/_images/model-with-data.png;imageBorder=none;labelBorderColor=none;" parent="1" vertex="1">
                    <mxGeometry x="270" y="160" width="444.61" height="230" as="geometry"/>
                </mxCell>
                <mxCell id="12" value="Brick + Mortar" style="text;html=1;align=center;verticalAlign=middle;resizable=0;points=[];autosize=1;strokeColor=none;fillColor=none;fontSize=20;" parent="1" vertex="1">
                    <mxGeometry x="108" y="253" width="135" height="28" as="geometry"/>
                </mxCell>
                <mxCell id="13" value="EFOnt" style="text;html=1;align=center;verticalAlign=middle;resizable=0;points=[];autosize=1;strokeColor=none;fillColor=none;fontSize=20;" parent="1" vertex="1">
                    <mxGeometry x="148.5" y="62" width="68" height="28" as="geometry"/>
                </mxCell>
                <mxCell id="30" style="edgeStyle=none;html=1;exitX=1;exitY=0.5;exitDx=0;exitDy=0;fontSize=14;" parent="1" source="27" edge="1">
                    <mxGeometry relative="1" as="geometry">
                        <mxPoint x="510" y="83" as="targetPoint"/>
                    </mxGeometry>
                </mxCell>
                <mxCell id="27" value="Query Data:&lt;br&gt;1. Building characteristics&lt;br&gt;2. Load profiles&lt;br&gt;3. IEQ measurements&lt;br&gt;4. Grid signals&lt;br&gt;5. etc." style="rounded=0;whiteSpace=wrap;html=1;fontSize=14;align=left;" parent="1" vertex="1">
                    <mxGeometry x="270" y="30" width="200" height="105" as="geometry"/>
                </mxCell>
                <mxCell id="35" value="" style="shape=image;verticalLabelPosition=bottom;labelBackgroundColor=#ffffff;verticalAlign=top;aspect=fixed;imageAspect=0;image=data:image/png,iVBORw0KGgoAAAANSUhEUgAAAasAAAGrCAMAAAE+yHjJAAAAAXNSR0IArs4c6QAAAARnQU1BAACxjwv8YQUAAABpUExURQAAAAAAAAAAAAAAAAAAAAAAAAAAAAAAAAAAAAAAAAAAAAAAAAAAAAAAAAAAAAAAAAAAAAAAAAAAAAAAAAAAAAAAAAAAAAAAAAAAAAAAAAAAAAAAAAAAAAAAAAAAAAAAAAAAAAAAAAAAACds8o0AAAAidFJOUwABESAwODk8QEFYYHB/h4+fq6+/w8fP197f4+bn6+/z9/sB4JLSAAAACXBIWXMAABcRAAAXEQHKJvM/AAAKtklEQVR4Xu3da3vTVhqFYXqYKT1QDqXTCUOh8P9/5KDoEcj2VixZ8pLf5Lm/+NLW3lp+WQVyhTR59qR8buDWQ9h5gFvT7th4jNtTosfY1PAzO5rY03Bjx3j58dtl9/o4jrU96WO83HZvd3f3v1ff8frlpXu91i9J2+M4xstt193msRNnj/FSou7hGKofY8cUdp3g9hR2neD2FHadeP4wdunm0OsBbj2AjQe4NYltx7g7hV3HuDuFXce428aeFna0sKOFHS3saGFHCzta2NHC7V957V6G1+72BG7f+KkJ7GhhRws7WtjRwo4WdrSwo4UdLexo4faN9/Xl4+2/ee1ehld2tNxva2NHCzta2NHCjhZ2tLCjhR0t7GhhRwu3b7zlCexoYUcLO1rY0cKOFna0sKOFHS3saGFHCztauF2k5dPLKey4d3o5hR33Ti+nsOPe6WUb96ew6xh3p7DrGHensOsYH05PYZf0Ff9BncX2VXjUWWy/2G8vXrzgUWd92cqpy/QfqMzGqcs8yiwesMyDn0aZxullzDrAaRq//8Cg033C6guuvv4HwZVZBzi9jFkHOL2MWQc4/Wh/f/VX/l6+BKeXMesApz+/uveWq8+v+2uuhtvD9cqs/srfy5fg9DJmHeD0MoWy+it/f12C09GsI8dZh8z6ipMX4iEzcehCPGQmDl2Ih8zEoQvxEEm6Ov7YOes79q/Bo84ya8Kyf+L4jVOX4TkzfeDUZXjITGa18JCZamQ95wnLcHghs8Y4vJBZYxxeaI8sLrkarn/g6jN/kXBl1gGzOlwVylqGwwuZNcbhhcwa4/BCZo1xeKE9srjkarj2z/k5zOpwtTKr+3+i+d8y7vWX77j6/Hd/zdXKrGU4vJBZYxxeyKwxDi9k1hiHFxqyDr+eZrh+zdXnt/01VyuzuORquPbvlDnM6nC1MmsZDi9k1hiHFzJrjMMLmTXG4YX2yOKSq+HaP+fnMKvDVaGsY/3dr1lH+rtLmTXW313KrLH+7hIcvND3PGUeDl3IrA6HLmRWh2+rcCEeIkmSHqtfN8Zj98aHTZvZ4kvwN8C72YxjXRPvZjN7j7XwWy8ts+6r/ddwrOUca2OOtZxjbWXqk7FXcOF3F7iIY63lWKs51lqOtdrxWHyqv/c7i9/8wp17v7D4ze/c6bE42HMslntfv43PV3wvmt7pPzHy7+tgceBYqzlWx7Eca3vHY12RY63mWGs51mqOtZZjreZYaznWasdjsdzzQ92eY12XY3Ucy7G2dzzWFTnWao61lmOt5lhrOdZqjrWWY612PBbLPT/U7TnWdTlWx7Eca3vHY12RY63mWGs51mqOtZZjreZYaznWasdjsdzzQ92eY12XY3Uc66bGejH2hsVvfuDYvdOx3nCwx+Jgz7HOONPWgxxrNcfqONYJx7oYUbtY9o0PFyFhF461FAm7cKylSNiFYy1Fwi6uOJYkSZIkSVJFP/F99rdy8G8Pu3nJJ4O28pLn7sup5nCq63GqOZzqeh7bVP2XI/2Hd7OVP/rHkpHH27iO3X5sCfnX4VSbIv86nGpT5F+HU22K/Otwqk2Rfx1OtSnyr8OptkFwAokJJCaQmEBiAokJJCaQmEBiAokJJCaQmEBiAokJJCaQmEBiAokJJCaQmEBiAokJJCaQmEBiAokJJCaQmEBiAokJJA7e86PzeiyOcKPH2gg3ev9jcUBiAomDwx9cy+IIN3qsjXCj918WBywnkDhwKqfqsJxA4sCpnKrDcgKJA6dyqg7LCSQOnMqpOiwnkJhAYgKJCSQmkJhAYgKJCSQmkJhAYgKJCSQmkJhAYgKJCSQmkJhAYgKJCSQmkJhAYgKJCSQmkJhAYgKJCSQmkJhAYgKJCSQmkJhAYgKJCSQmkJhAYgKJCSQmkJhAYgKJCSQmkDjw84FO1WE5gcSBUzlVh+UEEgdO5VQdlhNIHDiVU3VYTiBx8Din+nQ3xuIIN3qsjXCj94nFAYkJJCaQmEBiAokJJCaQmEBiAokJJCaQmEBiAokJJCaQmEBiAokJJCaQmEBiAokJJCaQmEBiAokJJCaQmEBiAokJJCaQmEBiAokJJCaQmEBiAokJJCaQmEBiAokJJCaQmEDi4OOrMRZHuNFjbYQbvY8sDkhMIHHgZzmdqsNyAokDp3KqDssJJA6cyqk6LCeQOHAqp+qwnEDi4HFOdU0kJpCYQGICiQkkJpCYQGICiQkkJpCYQGICiQkkJpCYQGICiQkkJpCYQGICiQkkJpCYQGICiQkkJpCYQGICiQkkJpCYQGICiQkkJpCYQGICiQkkJpCYQGICiQkkJpCYQGICiQM/H+hUHZYTSBw4lVN1WE4gceBUTtVhOYHEgVM5VYflBBIHj3Sq/ueHg8URTvVYG+Fc7wOLA04lkDgXp3qszcWpBBLn4lSPtbk4lUDiXJzqsTYXpxJInItTPdbm4lQCiXNxqsfaXJxKIHEuTvVYm4tTCSTOxakea3NxKoHEuTjVY20uTiWQOBeneqzNxakEEufiVI+1uTiVQOJcnOqxNhenEkici1M91ubiVAKJc3Gqx9pcnLoigvbBe9gez98H72F7PH8fvIft8fx98B62x/P3wXvYHs/fB+9hezx/H7yH7fH8ffAetsfz98F72B7P3wfvYXs8fx+8h+3x/H3wHrbH8/fBe9gez98H72F7PH8fvIft8QPD98F7kCRJkiRJkiRJkiRJ0hcv+UqRW/XyO96o7KoQu6rDruqwqzrsqg67qsOu6rCrm3bHL0M9H55ccXZVh13VYVd12FUddlWHXdVhV3XYVR12VYdd1WFXddjVLfvX3dgnJq/nExP0/s10j8tzZn1cfma6x8Wu6rCrOuyqDruqw67qsKs67KoOu6rDruqwqzrsqg67qsOu6rCrOs50dfgDpQ/8ypaH/MjeUz+w4yG/sbfh+IdTH7GrQ3aVZld12FUddlWHXdVhV3XYVR12VYdd1WFXddhVHXZVx5muirKrOuyqDruqw67qsKs67KoOu6rDruqwqzrsqg67qsOu6rCrOuyqDruqw67qsKs67KoOu6rDruqwqzqeZFcfXkx6w5aHvGTvqTk/CO0Nexs+sGXC0+yKbQ1+fWCaXdVhV3XYVR12VYdd1WFXddhVHXZVh13VYVd12FUddlXHma6Ksqs67KoOu6rDruqwqzrsqg67qsOu6rCrOuyqDruqw67qsKs67KoOu6rDruqwqzrsqg67qsOu6rCrOp5kV37N2Q2xqzrsqg67qsOu6rCrOuyqDruqw67qsKs67KoOu6rDruo409XHV5PesuUhr9l76jU7HvKWvQ0f2TLhSXZVlF3VYVd12FUddlWHXdVhV3XYVR12VYdd1WFXddhVHXZVh13VYVd12FUddlWHXdVhV3XYVR12VceT7OqfPyb9xZaH/MneU3+y4yF/sbfhH7ZMeJJd+fWBN8Su6rCrOuyqDruqw67qsKs67KoOu6rDruqwqzrsqg67quNMVyut6+pydrWcXW3Jruqwqzrsqg67qsOu6rCrOuyqDruqw67qsKs67Opm3R17z3TX8Y6UU+/YcR3vSfnmO34BCmGWp+d7fgEK4Z0/PXZVh13VYVd12FUddlWHXdVhV3XYVR12VYdd1WFXddhVHXZVR8GuJEmSJEmSJEmXefbs/3r3Npn9TfLjAAAAAElFTkSuQmCC;" parent="1" vertex="1">
                    <mxGeometry x="634.28" y="422.5" width="55" height="55" as="geometry"/>
                </mxCell>
                <mxCell id="37" value="" style="group" parent="1" vertex="1" connectable="0">
                    <mxGeometry x="510" y="30" width="210" height="105" as="geometry"/>
                </mxCell>
                <mxCell id="28" value="&lt;p style=&quot;line-height: 1.5&quot;&gt;&lt;br&gt;&lt;/p&gt;" style="rounded=0;whiteSpace=wrap;html=1;fontSize=14;align=left;" parent="37" vertex="1">
                    <mxGeometry width="210" height="105" as="geometry"/>
                </mxCell>
                <mxCell id="23" value="" style="shape=image;verticalLabelPosition=bottom;labelBackgroundColor=#ffffff;verticalAlign=top;aspect=fixed;imageAspect=0;image=data:image/png,iVBORw0KGgoAAAANSUhEUgAAAfMAAAEVCAYAAAD0EgzUAAAAAXNSR0IArs4c6QAAAARnQU1BAACxjwv8YQUAAAAJcEhZcwAADsMAAA7DAcdvqGQAAKWVSURBVHhe7f0HYB3Hee4PP6cf9E4CBAn23qneGymqUM2WbMuWux3bsW8S56bZyf0nuV/uvcm9qXZsx73JKpYsq/feKYqU2HsBCAIgej84/Xuf2TPg6ugAJCVSAsj3By53z+60nZ2dZ97Z2VlPWsBJwgbt8XjM+sOEaTlaOmx63W6z/fCYdWehm7FwjoqiKMrpyahinkqlzPpki9X7iYd+vV5v5tcR3IJ8Ingv4dnzypU+RVEURTlRjKoyFK8TLYq5YPh2OV5G8nOi0/xe03ai06EoytiGjfhRbKRRoT+7jMR7PWZxuzkW98r44KhiTquShdNamSeD9yN6Y1ks3895KYoyPqAgJpPJYWF03/fvVSyz6w2GY+vg0eoUd7zHG/d7TasyNhhRzG1hOJkiriiKcirgFlj3tq0/j1Uo6Xc0sT5ecsXL8G39nh2X3a+MP3KKOS9mIpFAd3c3mpubzQXX576KoijvxtaPbpG0uMXSfSzb3dHIVQfnCsP+tvFmu3E3LrKPWT9qwI1Pcg6A467BwUF0dXWhpaUFK1asMPt5sd2FU1EU5XSH4mfrRiuEuYwfK550Z7dtI4D+4vE4hoaGEI1GjTGVTB55vOnzeREIBMxC91wHg0HZ7xuOm9g1YfjEvY/hWj8Wtzt3upTxxYhi3tvbi9bWVuzZswdXX321KVR6gRVFUd6JrULdAkm4n/ts3Wl/E4oqRTsSiWBgYBA9PT1iPHWjrb0dHR0dZl9kKIJ4LG785uXlobCwAPn5+QiFQrJdiNLSEhTJmqIeDoflWJ5Z87ff7zeibevs7Lh53A3TSDd0n30eyvhgxFfT+vr60C4Fi2K+atWqzF6YgR56wRVFUUaG1SpFkxa0hZY3BXxgYACtbe04UF+Pnbv3YOu2Hdi9Zx+am1qMuMcyAs4wjljmPrNm/cu6NxwOoaS4GMXFRaioqMCUyZNQN2UKpk6djOqJE2VfuTleUJBvBJ4NAKaF/q2QZ9flNi7bAFDGFyOKOZ+Xt7W1Ye/evVi5cqXZx0KgFrqiKMo7scJrxZG/rUiy65xC+vbGTXj+hRfx6uvrsG3HTrR1dCKREdR02gPxOSyoo8FwfT5a3l5pICSG/YRCQWksRMQyD4iQl6CivBTTpk7BGcuX4dxzzsK8uXNQVlZm/DtxOqPw3d3u7nQr44ujinlDQwMuvfTS4ZahoiiKMjpWFNnDuXHzFtx+x13YtGUbDjW3ICYWekJEmEJOIfZ42ACQxdTER0SV2HrXcec8G6cA56y06TWVMJs0vAIBv+ySdMjCbvm6yZNF0Gdj1crLsWzpUtTUVBt3biHPFndl/HAUMW/HgQMHsGqVY5kriqKcbljLl9Yst23PZCwWM8+niVts2b1+qKkJr7z6Op5/8WW8/Ppa9PT0IxqLI56Ii1iym1sseQ5wSzv+qM7WP/9kw7ixYRO73ziXaps1tzfjh78ZVprhiT+v12eO0RGP0U04EEAgFEBBfh6m1NZiwfx5WLx4IZYuWYwZM6ajqKjIxJN9nsr4YFQx5zPz/fsdMbcFQlEU5XSCdR8Xt7i5xZvWLOHxlpbDeP6ll/D4k89iy7Yd6OrpRXtHh9S0XkeaM3WosZgzNS/32GrYXce6q2but+mg5Wy3s+tkdr2nUmK5p2iRO/5MuhmUbRTIvoDfh/yCAhHwQkyoqsL8eXNwwfnn4Kwzz0Bd3RTjjs/3OfDODc91OEwX7vwg1sJXPjhUzBVFUY4CxYp1IAXKbZHTCqew9ff3m2fijz7+FF5+7XUcbGrGwEAEiczrZb7MeCOzLWE4AsvfIo5SA9uwjQh7M8/Obc0s1a5jlTtCTOjeurW/5T9YG96XEdvhepvHJEyGYwfC2UZISM6lrLQE1dUTMXvmdJx11gqcc/aZmD1rphFzhmHFm9smHAkzW9Dd0M1ox5UTj4q5oijKCNjq0a4pUNbq5JpiThF/VQT89bVvijW+DS1t7RCdFai+Tpe1W4S56XSBO93iXnHD0elVlVUoLS1GZUUFSkqKkS9CaoU3Go2ZV9UGByPo6+tHb1+vNCAGMDQUNQPseCyRECmXcD1GRI9Y8hbbE2Cx58K0cJvd/3mSjokTKzFn9nQsmD8XZ595JhYvWoTKyophcbbh8pzc52VRnfhwUDFXFEUZgezqkb8panzNjBNrvfjyK3jokcfw5vq30NLa6owuFzcUc1Nnep0ucSOa4s/UoSLgtJyLCvMxeVINZkyfhmlTp2KSbFeWl5vXyoqLi0VYw2aAWlKsd76uxtfWuDBeCnr/wIBZOjo6pa7uQLcI/OHDbWjv6EaX1N90m6L1LnEaS384/T75nUTAHzDHTbe8HGOjwukVYGMFKJeGxeKFC3HWGStwwfnniqgvNOmyWHEn7nwy5y1xql58sKiYK4qijALrPi4UL4oyl7379uO119fivgcfxpYt29DX328Ek26kpqR5OiyiXNOC94tC8r3vyrIyTJ06BXNnz8KiBfMxb95cI+acBMa+l26rZXed606H/U3B7u3rQ2dnJ3p7+9BwsBGNh5rNALxDTc1obW1Dhxzr7u7FQGQIQ9GoWPz5kka2NpwwHEF3xJ6D6Bg8o6XFnpb9VdK4OPusM3HJReebZ+rTptaZ0fHDjROB4dhte87utCsnHxVzRVGUUaB4U6DYtc4JX9at34DnX3wFv3/gIbR1dBgrnW5YR5ruc1q4svZyMFrSEfjCggJMnVKLOSLgC+fPw4rlS81ock74QrfZ9asVV+6z+7nPxOES0Vyw4dDT0yvCfhC7du/BPml4NIqwNzW3oFks9w6x4nul8ZFIJB1Bl8aHl8/eZTuW4IQ1znN1iRHRSFziSpvfU2prcP65Z+FCsdIXSCNkyuRalJSUmHyxAk5GS5ty8lAxVxRFGQErqhRrdmWvW78e3//hT/D2pm1mIFzSPPd2qlCKGutI8xxcflMAObq8tqYGy5YuwZUrL8P5552LiRMmGLeEfu1i9x0PNn3WWudvu01s2jhAb5/U5bt378Urr72OtzduRpucT1//IAbFuuf5+bw+OZ+M9S9pYfc+R9SZbnc/0yb7ZakqL8MF55+Na6++CitWLEftpEnDz/bJezkP5f2jYq4oijIKfEWL3dfPPPc8fvLzX4so1ptBZolkYliEjQAai5nd0yJossHny/PnzcXnbrsVV0odWiDWuRv6oQCyXv0gBZDxbty0GS+/8poR9p07dqOzpweJeFwaKEnExbJPpMQaDwX5wEAWj5xr3GkomHPjOaYxc+Y03HzTjVi9ahWmTZtqut6tRvC8RutBUD058aiYK4pyWuOu24yFmhFW7meX9eYtW/Hr39yF+x96xFiyHDWeX5Bvnj9TsGiJJyns4tcvFixFbdH8ubju2quw5pprMHlyrQlvLGHPmYPnNmx4yzRU1r7xJg4cOIj+wQinkBNRdxoaxr1Y59w2P+V85WS5gaL8PPPM/1O3ftyca3a3u43HvU3cr/cpJwYVc0VRTmtYt3GEOC1ndzc19z/97HP4z+/90Fiw7DznsXBePgbEPXHeM+czZ2fA2MQJlVhz9Wp8/jO3YfasWSa8sSpaPD/bNU74bP3RRx/Dg488ga279mEoJo0V+eOgOD4u4JzvdB+LDZlz9YmJnpJGDHMrPxzGxRddhD/9kz/C4sWLTLc7w7e6YcWc+aHd8CcHFXNFUU5rrBXJgWx8FYyCzYFu9z/wMO646x5s3rpNxDuCpBik/JgJLVaO8qYfirlH1Cw/P4xzzliOj918Ey6/7FLzrjhFazzUmTx/1u9cODr+YGMjHnjoMdz30CPYs3u/mQKWPQ/JZNy4MY0dUQ2+xsZX7OJiZfM1u4Dk3aSaGnzlS1/E1VddOTy4j+ET20hSTg4q5oqinNbYuo1iTouSz8fvvPsePPzo46hvOGS6041oexxxpijRj7MPmDy5BlevvgLXXXO1edWMFj7djFUL1Iq3O31uGWA+dHf3oLWtDS+98hrue+AhbN+xE4NDfG/d8ct8MHkhLRm+ckex56Q0IRH+iVUTsXjRPHz6U5/Eueee866xAu5HGcqJw/d3Qmb7HXBWIXY9UdRnzpxh9qmYK4pyqkBRcgsLBZivc33/v36ERx59EvsOHDQjveUIfAG/Gdkt9qvxR1GjiC1fsgif/+yncNP1a7Bg3lwjXFbwubZW6ViqO5kmmz43/M2F+cFpXMvLy8yENksWL0RRUQH6+vvQP8D36ZPi2PjITDIDM22tVxo7sXgS/b39aG3vMHmZlINVlZUoLCwwec24GT7jcR5RqLV+olAxVxTltMTWZ1xTaN56eyN+/otf47HHnzbvY/M9bGOwynF+ojSZoFUqlabfZyz4Sy44D1/83G1YdcVlZpCbfTbO8GzYFP6xJlg2fRRWm05irXO7j2tOclM7qcZMajO5dpKZYrZfdKG/b0D8W/dOTwUbPdzFaWFj0biZEW/f/v1m0ho2BvhKHvPCNibsWjkxqJgrinLawjqN9dwLL72Mn/7s53jmuRfQ1tFlvjVuvjGeEZtUMm2MUQ4Em1hZgY/ffBM+8bGP4OKLzjcWrFsALdzmQqFz7/+wyU6PTacb9z4KbmlJiZn5bca0aUaU5Si6e3rNdLLMJ78/IAE7PRLi20xry8+98l12zkbHUfPMu4rycuTnO19io9vseJX3joq5oiinLRzoxmlZf/QTEfLnX0RvX7/Ucz5QutmlbpAVXz/j18WmTZmMj91yIz7/uU+Z7udQKPQOi9ZdR460/WFjxTxXeu3v7P30w56HiRMnYPbMmcZKDwQDZgpZzhOPFN047p1Z7zzmS3HMw77+AWcGOlk4+n3ChCrzCps7DuX9o2KuKMopidsCzbZG+ZvzmT//wov4zV334PmXXkVUrEkKkt8fNG4pSmBXsHgrLszHkkXzcdMNV+OLn/8MqsQ6t89+cz2DHml7LHC09PC4zS+75sLzJPn5+aiTRs2MaVMlX4qYmegVK516QRE3fmTNd+7ZncEPz0SGomhpaTWDCznAjmJeWVE+HLb7+nCb2N/KsaFirijKKQlFwQqtFQgLu32fe+EFfPeHP8Frb75lBnDxHTMO4mK3MfGIX5EZEawCnLliCT7/2dvwyVs/huLiIhOue+Ccu248FepJew7uc+F5crHb7DJfsmgh5syaiWQihk7J0+hQRLYTJn84HazJdwmDKw546+rqxc5de9HZ1Y1JNdUoLys1YdmGAuE2/dn9qjvHhoq5oiinJKyv+N40RddtRff09ODZ55/Hf/7oJ9iyfZd5Hu58FlQEJU3hSSEU4LzqPrEgC3DWmctx6yc+hqtWrzKjvOmO76MrHEPgQ011NZYuXYJgKIADB+oxGBmQ/fzCXMpMOGPd+Tx+I+iRyBD27t+PPfv2Y+6cOeYb6vyeu9UXurWNBoq66s6xoWKuKMopCUeo85m23ebCkdX8/viPf/ZLbN++24y+pjBzelHC96RpRSYTSbHAC3H5pRfjy1/8HC6TtRVyKzSEYbp/n07w3CnOzD9+FY7fPZ85YxoOHTpktMNMcUsx5p+spZ1knqFT4Cn0TS0t2LFjJ2onVZsBdsxfCnk2qjvHhoq5oiinJFZkWW9xm3UaRfw/f/Bj7K8/KPu9CASCiEVj5hkv4ZfDPCI2nKr0k5+4Gf/t61/F8uVLhy1xt6XIZ78Un9O1XrT5SkFnPnA9a9ZMXHPVanR1deFAQ4NpJHn5sIItJMkm+4YART0RT6D+4EE889yLqKqqwPSpdcNT6vLjNtoDcnyomCuKcsrDrvWfiJD/9nf341BTi0iJVH60yKNxc7wgP88RZxGdwqICfPqTt5jn4/z+OOs9a5G768Bc+05HrOAyLyjaHPV+9llnojA/Hw319WhtbTcibiZxl7ziKHhj1cviNALi2Lp9OwJ+HyZPnoSS4mLzHr8NT3Xn2FAxVxTllIWC29BwEP/4//4V9z34CJpbDiMmom0MRdZnFAtxxwli2AlcU1OFv/yzP8HHbvkIpk+bakSF7igqtDyteFOMKGJW0E9HmA82b+y2Xfh4gyPeFy1cgJTkVWNjk8lj84aAl42j9HDeUtQjojdbt+9Ea1srJlZVmefw7jiUo6NirijKKUtTczP+7T/+E089/bwIRYf5VjeFnAPeuKYQcbAbP/E5oaICX/uK85EQToziFnIutCK5dgv66dzNbhnp/PkK2wTJR+oHB8Tt3bsH0VgccZNvfpOXfLxhvg0fT4jmRM276C3S4CotKZbG1DTVnONAxVxRlFMOCgVHVv/gRz/BE089i+ZWTs+akCNe073O0VhJERA+Kg+KaE+fVoc/+vof4JprVqN64sRhIR9tsbi3TyeYx7ZngtuEeWFEOpMn7L2orKwQS1vyNBgwjzi6e7rFDf3DsdTZBS/b7Irn2weH5VpxMpqy0hIzTe7p2vNxvKiYK4oy7qCIEFsnUUCsoPDZ9+YtW/Cd730fTz/7PNo7uo2Qm6Pinn7MK1MSRlFhARYumIuvfOlzuPaaq1BWVmqE3HF6RLTttv1N3MdOR9znbxeL/c3rxN4LTnk7ubZW1qXmK3TmIyxyDXjJ6MsKNntM+BikrbUdTc0tcmFTZtyC7Q1RRkbFXFGUMYnb2svGHiPu46y3Nm/Zip/98nY8+MgjYgX2m9eg6IYLZyOzDQF+g3vpovn4wuc+jeuvu8ZMBmMbBda9O+xcHO34qU6u88/ex98U9NLSUvPBlpKSImN9N7e0DB/jmr4cvx4M9IuF3twq7lpRItdltgg6H2sYd8aNUwbstqJirijKGCRbVLPhPh6321z6+/ux7s31+M1dd+GhR58QazxlrHR235rwxC3XtPLKykqwYtlifPyWm/CRm25AOBw2YVFYrDWZK17l2GE+2mtDuOZX2MzMbyLsnV1d6O3pMQ2sNLvb5Qql+eI/r7tcI/rnvADNTU3mM6qcLY4j5Xn9eMxeS8VBxVxRlDGJWwiIW7zda9Lb22s+mPLzX92Ox594GgODEUcQxIu78vf7vMYCP/uM5fjsbbfi2qtXm5HX7rgo5MQdvnL8ML/deWjzmII8c8Z0TJlci472TrQcPozYUBQeuTYZh+Zb8Xznn++pt7e1Y+/+PSgvLzfP3tnwsmG5wz/dUTFXFGXMkauiHqny7uvrwyuvvW6E/KlnX0BSFJwWHoWc0Adfi6LfiopSsciX4BM3fxQ33XDdiK+XZVuVyvFj84/d49aK5pq9JRRkjlbn62tNjY3o6uo2k/cYy1xg/tvrEo0OmUlodu3ag1kzp6OyomK4AZbdwDudUTFXFGVMk23hEQoEYdc6B7n99Be347W165CUut2ZYcwlJgnO1CYWeWEBzj/3bHzli583g90oFhQWCro7fBtfdpzKe4P5SFG2eWonmeE15Gj1+XPnoK21DW1tbUa4zbXju+hyHfjHy8A1v3K3Z+9e0wCwgq6PQ46gYq4oypgll5ATx2KL4u577sN3/+sn2LBxi6n8zcQkGYuOi5noRbxz3u/Vqy7HN772FVx4wfnDFh3FgK9DseuX0L0KxInD9nAQ5rn7evL6sDFVXT0Ry5YuEbHuwsGDjcOPSPwBvxF8r7inxR6Lx4zob9qyGZOqa1A9ccLwM3RF8jOzVhRFGRfwOSoNjbvu+R1+9us7sGPXHrOfY6hEKkQI+HqT8xEQwsr+puvX4I+/8Yc4Y8VyIzBWzCkmnA/cYq1GYt0o7x3mIfOb2AYWsfvsa4C1tZPwR//ta/jITdebRyGpFK8fp9p1rpV1n5TtA/UN+OkvfoG33t5o9ttjpztqmSuKMmbJrnNojdOS/s73fiBifh/2NzSaL5yl0yLi8hcKhqjoZqAbN8LBAL70+U/L8lnMnjXTiAcFxYbrFm83bgtSee9YAXfnJfOWixV2Qgu8qLAQCxfMQ0V5hRkU19rWLha5iLW00kyXeuZxCGeL62zvxO69e+V6+s3rbvZthNMZFXNFUcYs2aLa0tKCf/vu9/DQI4+a2cSGhmJimYloeALwy1+aj9Izg6jygkF87Q8+h09/8hOYNXOmEW4bnl1GQuu6kwfz1i3k7Gnhow1a2OwlmVRTI9fKhwMN9egb6JdrljJCnjDzBXjhS/tMA66jqwuNTU3Iy8/DgnnzTBgWa62fTtdRxVxRlA8UCiphhZttobnF27rjmpbbtu3b8e/f+z6eePpZtB5uQ1wsNHapc9awlIi4R+pvWnJ+v9dMTPKHX/0Cbv7IjZgxY7oRcoZrF2VsYK+/Gdsgawoy53Tnu+j8ehpniuP76CwKHBMhVxnetMcMiONfV083Ont6UFhUiBnTpg0Lur3OfIzCcE+Ha65irijKB4qtaN1LNtzHip4Lu9Zff30tvvfDH+PZF15CV3cf4mKZiZLTpXHv9Yp7UXOf34NpU2vw+c/dio/f8lHU1U0xlTnDGSku5cPDXhMr6nYpFiGnoLPrvbHxENo7OsSdXGfxk04n4fHxeorAi7Xe3d1jPs7iE3/TptYNN9wsDO90QMVcUZQPBXdF7v5t6xmu+X7xs889jx//4pd4/uVXMBgZMu+Rc7Cbx+N8MAUeqdi9aeSF/ZgzZzpuu/UW3PzRj2DSJHbXHulat6Juw1bGBrwm7jcI7LpQhLy2pgahYNA8Hx/sHxDrPIlEKgF/KCAe5V8ijdhQDB1tnWYCmtKSEikDs41FzjDttT8drreKuaIoHyisYG0l68b9m93q/HzpE08/jV/ccRdefm0t+NoZBZnHaJXz+Sk7XMU+Q0F+GEuXLBQh/zhuuv468+lNW4m7F4t7Wxkb2GtiywcJhYJmgFtAGmVNLS2mW52NOa/XD69HxDrlEes8bXpqurp70dbZLhb9RPPc3Vrk2df+VEXFXFGUD5xsi8mu+Rydo9X37NuHBx55DL+8+15s2rrDWGHiWo6zkqclLhV1OmXEvKykEGetWGYGunFWN1p0rMgZpjue7G37W/lwcV8Du81rY8dUlJQUY8G8uXLNPdi5Wyz0SAyJOAfDsTtdyoH4EZeIpWJo7ezAoeZDmC2aVV5WNjx/wOlwnU+PhwmKoowZWLHablVbaROuBwYGsHnrNvzqzt/ih7+8Hdt27hEPTuXO6sp5Bc3HHfDJ/vLSYlx03jn48hc+ixuvX2Mqb2O5C/RjF3I6VOjjFV4be324ZlngwuvJ3xwU9/lP34brrr4SUybVIBgIijUeR0Jk3BQEKpknjaFoBC+++gr++T/+w8wWx+720wW1zBVF+dBghU1h57qtrR0bN2/FL+/4Le5/5AnzHXJOzBqPx+D3+uD3i1AnMq8nid+q8lKsvPRifFGE/OKLLxqun+y74/xtFwq6u/6y+5UPF173XNeBZYK9K/Y4rx/fNT9zxXK0tbai+XAz+gYHkJTj0lwzYybSqYSUC1nH4ti3b5/pmp9cO9l8epXhneqomCuK8oHirsDtoLRWqaAffPQxfPe/fooXX34N0cEhqZhFcNOpjJD7zYc4xLH4FSGvKMFNN6zBl7/0eSxfvsyExXDsc9Jc4u0m+7jy4cBr4C4PvC7E/rY9OPa6UtDPOftMdPd0m/fQ+/sH2HEjxjndeJAUMafAs8ysf+ttxJNJzJw+HRXl5af89dZudkVRTii2Qibcdv92V9y2C5RGw49/dTv++Qc/wqbt2+EVNyGplMPircAXEoe0zjlnulTaUl2X5Qfxx9/4AzM96/x580wYNkzbxc54RuODqtizzz/7tyXXPsL9PJdc5zOSn1wcj1ti48wVL/cdLbzs49m/GYa9VlaoCa+LvTbua8T30AmNTE4sc9snPo7LLzwflUVFCFPGEilxI425YAgJjxcxCZ8+fnnnnbjrd/eZ99Wz0328eTLWUTFXFOWE4q6E3ZVzNrS6Nmx4G3/8Z9/Gz359Fzo7O0xXaTIVNxV9XCrwoWhUAhFRlwo8GouiuKQAf/bnf4obb7gREydOfIco2Hi4b6RuVR7LhpW6XbIZrcLnsVzhuRnt/I8F+qXYuQXP8n7CHQl7vjbOXPFy3/HGne2eYYzW9W2vh00Pe2bY+OMHcxgWP5/61S9/CWuuuhKF+YUiZF6k4inEYynkhfMRDOchEAqLnyTuFjF/5vkXwPfR3emw25zH4GjXcTyg3eyKopxwWAlTZFln5KpAW9va8Ktf34F//Y/v4q23N6GPrxzF4hzDJI6ksg8E4JElSlFPySIV+TVXXo5/+Pu/xeWXXmo+gUkxiIrF3tTVi+1NbdjZ0oGW3gF0DEbQNRDBkITHNPi9zoA7wvjdImHTZxc3dOPeZyt8uy+XH+IOeySyj43m9kRwrOGfqHQwnOz8s7iF032c+915bBc3bAQwXK7LSktRU1OD3r4B7Nl7AH5fAD45NjQwKOUijlCeiLovjMhgFPv3H0AoFDCvrIXDzqdTGQ6nkj1VvrzmkRNySl4WFPH29naTCatWrRzxwiiKolhYGduK0VYttt7g756eHmzcvAX3/v5BvPjSK2iTOiYx5FhGvoCfQ5kQE/FOix/O6OX1eFFUVIyzzliBv/jmN7Bw3hzzsZS27l68secQXjnUgR0DMRzmV9L8Uin7xWpMJ+BPp1DmTWFSOIiiwT5USEVeWZyPqpIi1JSVYEJJMUry81DIil3isV/vYhptXcfF/rYicrLrQMZh+aDrW3uuNt4THX+2UOfCHT/d29+2TLG73frndkwabPz87Q9/eRceeORJeCKDck2DiPvkmvn85jhfZwwGvJg7ewa+/PnP4JaP3GAsfIZpyyvDsgMnxysq5oqinDBYT7BitOLIypL1Bnv5du7ajedeeAHPPv8Sdu7Zi/bOTqdOSUoVlJYKW6wlvj+eSCeREjHOCwYwo64OV65ahWuvXo3lSxdhMBrDs1u244WGTmzujuBgJIk28d/LMIx/EWAJ0peKm2fvxVKp50t6iqQyzxOhLxArrDgURIFU3KVhPyqDfvgiEUwoLECpiHt+SPYX5qOkgNviNi+MIqn4Q+KeH/9wc7Q6MbtqPZH152hhu48db5y5zulo4R3NTzbWrRVSkh0Ge1Sict04GQx7XziorS8aRUz2cQrXoWgcEbG+OYFMnlwnfgv917++G489/BQKpfz0R3rgk2udkjIRT0oDQMpTvjToLjz3LHzh05+SMnXF8DvoxJ2W8YqKuaIoJwz7/JoVI+sLCvvu3Xvw4iuv4tXX1mLr1m04eLBRBDuFmKl5PKZ7lK+bpaWS5heyOJInTyzmZYsX4uabbsDFF5yP6dPqcKi9E7/auAMvt/dga/sAOqPiXvwluXg59l28cqpXqcC9iSjSXrH0Y4MiwgGJg1/aEoEXtx7Zn0qkEBRxLggHEJB4y0JhFPi8EH03ll1e0AufJ43SkA/VeSEU09KXpVwEv0zEvjg/jOKCfBTIsYJQyHxylV23IwnCSPWnu/odS/Vrdnrdv20DbaT00i3dUHgTks8cUZ7ILNxHIR6KxUxX+JA0zqLRBAaGohiS3xToiLiLSMMrLo2oiLTMBmJe9Iuo98k15fUzU7jKEpesYy/OhPwAlpTkoTTSj0fvewRPPPYkwhCLPBkHROgjsaiUDbHOpaFXVlJsBP1zIuiXXXKxSS8f4biFfbyiYq4oygmDYk5R45ibQ4easGnLVkfIX38D9fUHkYiJoErFmpDKPs76RCrnAL9BzkpaLLC0WFHVE6pw9tln4IbrrsHll1yIsAjtrkMtuGdXI+7c14YWEV8KBCeDS8maprjHWM1i3XOfR4Sd1pjsS0tFjUDmy2qyzcrOI8KbpiXPlMh+xu2TMHjcJ8d4PJGMidukCEAaJYEAysWCLxEfVSLc5dIAKJQwi2RdItZeWV4AvqFB5FHwxaIvFGu+UEQ+X9b54j4oVj3feearU2xUcGHXPhsAblFkHZurMXCy6l6GS9Gl1cuF3dHMFe6jRcxf3MdeElrDzPOYXCOKMNdmTIKIKdfcFxc3MWkwReR3sKgYfLmwP54y4jwUF7+yjktYUVrbHH3O/TH5HUuIiMsi/gclTYO0rGU9JPk0KPsTCGHIpCchYs70Sd6xQZZ2enECviTml4VxXXUJZntT+O53foB923YB/X1SBqRRIG7oUbLbfFWvorQYl118Af7gi5/H8mXLzPmyi10tc0VRFIF1BOuNA/UNpkudz8bXrnsTe/fxu9QDUpGKWIk7DkjjTG5DUomaZ+NiOdMizxPxnT5lMi656CKsWXMVVixfgsGhGN7YtQ9PtPXj59sakQ4UmkrfvHjESpr1ktRg7J5PSfVES52fQg2ItW8mFKFYpsStqbooT45g0Z9BhMEr8fukARCXBgjdePnsXsIWGRN/4l/+zCRj8pP2Pz/ByaqQqfBLvEWS7rCcWKn4qywIolCs+oKwD6UUdBH9sLgplAYBzz0/GEBIBCYo+wrkWEAs1LTkDcMPSDhB7vM5Xfp+WbMB4Ag/GyTmJMy5erPqYgoS85/f/KbAch77hKw5yQ7fCuDCLmm6Y0MqyQzJL0BSRCwq5xWVY6K7poEkRi+i0hiK069xz3e3aQlTrGWh6IrIconJfq4HRMxTkveDItC9gxFpJHHsAzBEAZd0MCzTWMikm3lKOAqdAsvGVlLSn+Z86+KXba2kKSdyfR1X8uc8fuGegORBOsUXFQVfWvIojoWlIfzhgqkoH4rg//zDv+Dg5q1yQtKok/YawzLd7YxTCkxleSmuWnkF/vBrf4B5c+cON0LHMyrmiqIcN7baYJ2QEKHo6OhAU1Mz3t60Ga+tW4c31q1Hc3Oree2H3xxnLepUzI4YhkTo+qXSlfoeAbFeSwoLsHTeHPNsfLXUN3Ui6oc7e/D8gWb8ausBPNvchVggX9QhAV84Typ1EWipqE0q5D9W0BSKFGMQ4fCGgkiLoNHSTiZEMFl3ycLPpBKvqc9EEMS681DBuE2xEWExJpwx0jJ1nqTX7BcBoVufEVV+8MWx9L0cRU3rnrtFbMRGlTaC/JAd7Gnw0Y8IYF5+HhCPGcEOSp4USHiFkuKwWKb54rYwzy9CL+IvjQKug7TixQ3Fn2uKOpNDIefC6AjTQLFl/prnzCJMFFwKsrWC+dw5JgoZF3cU70GKbyjsWMKyP8bzEdWTwyYsvqdNtwyHV42Y085sMx3cYoPJIw0CpoL5bfKOByUNbO44i/xmeTGL/DT/OeGYRgkjlTDSkk6KOfN52D2PCzxbDo/k9K2UdeYzJZ5uU3LtPb6UNKC8uHhCAf754nOw7rkX8X//8T/Q0dpsell4PiwbbCTJVZG44qieUIHbPvkJ/MGXvoiKivE/qYyKuaKcID7se2Sk+GmNcf9oacv2y99csrseuY/hcUBbf3+/rCNoa2vDmxvexqtr1+L5l182z0OlrjUWMi1EdjGzkjGyQGEXE9oX8ErFTGELSkVaiUsvvACfvPkmLFu8xFhIrT19eL6hDd/ZsA87RX1oVaW8ASASRdqKh/xPUQ6K2BWG/MYKptgmRdDAwU/ioL+/T6x5sT7Ff9IIEz3xnGQrSXEXP0yT+DH9BrQGKUSyye52OWH6cPzxf/lnc8Q83+dxhpH5zVQZgWIcsjLnLG6M9PK3cc9rIeIsCeRjATOGWvZLm+F9Ybynjc2dhZNiicokl2teV/Zk0NpmbwbTxFQ68No7aydUejISOPzbuuS5ER5z9jpujpSljJgbXOFl0kT/JgTrnmvuMDvtWmRb0hsSt1EmVcofw/VL5lGgpVki11Di9HtQJmXq1toKfOuiM/CP//p9PP7k42hrb0UiLtfU4zeNu3RKLHxpzIQDHhH0Cfjv//1PcMOaa1BSUiLnLWeRScto98tYRMVcUY4Re6t8kPcBhZMwzpMV79HOi8eZDlrZvb29Ujf0iBXehK1bt+PN9W9h47btaGw6LBZgDEkRB1qpFNWivALxlzRdmOw6Nd27YgWyy5jd2BWVRZg7bx6uveoqXLt6NSbXVCMyFMXb+xvx8IF23HegFQfEEveIMCdM160XBfmFiPQPiiiKaElc5dIoWFBRhEVlBagrCKBELP4+cdszOISuaBytvX0Y8IfQJZV3v1infE7PruGINDLi0jiIeUPGMk2xshfY8EiJxc/KnnKTouhJeh2psyJ3BLqheDOPTLc+Hdj8lBUXI2jsujfhiA85zrTTkjWHKfzSoGAM2VfACcnhmK4+Hz2YNV2/0wfDMnv5nzS46DYdcN7nJyk2guQcPD5JpaSJPRWOj3cKtV1zy2ybf0fcmC+ZZY46kTnQVzZeKR8GyZN3H2ccXvPIhGLNAZM+EeCkXFN/OGDKgONHrpHkn08ac6nIIOrEQv+ThVNx/byp+N///l08+dwz6O3sQaw/YsomrzE/0hIQYec0sLWTJuLv/vavsfLyS80HXVheef7ue47X9WTdfycKFXNFOUZO5D1wLGG91/jsLX08funHWvAW/ubCuqCnrxcb3tqE119fj7dkfbDhIPoHBpAQf2mpFDmyGF6xfMR7nghsciAq25yUY8hUuL5w2IhxUgSsULYLC8K4fs2V+OY3/wQTxToiHFT15MYD+OnWZrzU3o2BdFQqbNpdaRSWlqO3tV1cBRGWCtfjSYqllsCqCfn40vLZuHDWVPOKkiUhwmTmc4/F0ScNhL5oDB0Dg2jq7sP+9k40iuXfFPdgZySJ1qQXQ2KmDkakwSCJ9Yk/dk+bLnqp2OMSBuEza2pkJnuHxccIn/xw8p0bsjL5mFlMw0N2UuxljzlmF4G9CwyAz3XfFxKME4L8byI6AqMyuxiX/OBzd15r01iUfzxm9smfeYThOOZe+XPW9rdZm/RTtOX6u9xy7cwPwHDYuOEx52gu+C64yVPTcDgCg6fwmvEJIvgJEWm/lJlAYQGGBgdMXnukcSSqDLYHTPe8bCMQgt+TQJE/ht/deDFm5wXw5//nn/DwQ4/AJw28fH/YWOlpKah8FJKIRxGQxty0aZPx45/+AAvmzwNfq+R1Z/4411aujfwe6++hq5gryjGS6x5gZWj388b/IMm+dW3a7P7jvV9ZYQ2I4PHebz58GPsP7MemrVvx1sZN2LtvvwhjGlGxlGnFpsSyoRVOy9URc1bqYnWnxToSCz5P9plBSiLofFqZlKSw23piRbl5Jehjt3wU555zpqk4mc6DbZ24e0MD7ts7iC19g+hP9Eq9nEJQLLGYhOcNh0RgPQh6Qkj096IqDHxsTg1unVWDFbOnm3CMMAm5BjIxbVzs9TJrER+p/s2sca1S0Tf3DeBAWxcOyu9GSUN7/xAGkikMibt+WdOyj1JcTIiO9clO7ZicJ8MR9ZL/RMxkn8l6icd27ZtrwfQxbbLf6dYXWGbMQuveSf97RgJ0UieLCfwIw0WBcct1Nr0EjDcj5D4z6E5ELB5DnB+0CYpwZfxYryNhy5uF58oxDAHZ75cI7F1hw3GXS3s9mC62ZVhmaDGHJH1+v9cMLCyU/Wz8JSIDKAn5UVJYhL3dA9gzEEOXZHyc4x7Yiy7BeANhiNGOgWgPLplagV9fezFaGxrwV3//v/Dyc88hEE0gP1xgBs7FJG1BOc9CX9B8OvWGW67HV774efPtdDtPAmH63Gkeq6iYK8oxcKzln+64fNDCPhI2PYTfCuezblqg/X39ONzahoMHD6GpuQUNjYfQ0dGJgUEeG0Bvfx9ifPeXE3XEoojEpJIXAWeNaUZZs2tTskOMWgmfFrxYslJdi+2E5FAc4VA+YkkRfJGK/KI81E2eiMsvvgBXrb4S8+bNQ1FRkfkCFt87fuCtHbh9awO29XnRPJjGEC06X1ysNampJR9NridixtrzhfMxt8CPP1lci/Ory1A3scpMz0l4fXiu1oriOlvYbV7Ya2nFhJa8eRdaLPJEkjOL8Rm9FzE5NiDbHDDWF42jd0gs/EgULZJHzb2DOCzCVx9LoVOsu26x4PvFLUeFs9uc3c0UGMbEha/lcbCYeU1O4rXppbDTvEyLeOWsjDM4KZZzyKyz8dDEpXTy3LIcOda13SnxyLkay1YsWr7fz+HjXhFRnz9oDO6kM058RJx84xNriCXMNxS8CBoRlrXfB8plFeIo9SZQIPEUhAIokutUHA6iMBREvoglX82bWFRgxJvXNiDu3AMAzUQ9ovAMl9O0Mp/4qCcvHEZEkvyDtdtx1/5WyXufXDNJvwjz0NAAvNIgCVSUiVpHcePsqfifFyzAvh078J///h28tW49ogMR8+Ee5lNA0sSeFz72KSwtNN9L/5Ovf9WMcD9yntJAk7Rxe6zc17lQMVeUUXDfHiOVf7qx98d7uUfol8JjBCUjKhw97exznjlTYGjlJURUKKp2PyuYiIhzVMR2SNYUaiPYYmH3cYCaCHgkMmTWvb396OrtETdD5gMUfCeY25y4w0zsEWM8cXEvNouEb8RTKjF2d1KVEmnZz+eUkt4Uz5PdoHKclTKfMYuNbd7X5qQeXm/AdFXPnjcLK1degosvPBfz584xo4Yp4kz75sZW/OitvVjXHUG9WMNDaQ5Uk8pThI2VJrumkyKUfqn8/WJ65XtTmFtRiM/PnYRV0yaiRsKyFpRJk+QF08ttcizXwl43i/u3DZOLeReb+S/Xge9gs/ueA/1MAyAQwoC475F87BGxt0uH5G3HQBTd0ijqjCTM6P2o2Kp8lauXE6eIICUkKo4lkMhM1+9o8CjTxnRlV9rOMbkOFHReL1m/U8DlvGQxe9gtLXGGxRKnYPpkJxtiecGgeWUuiARKwmKcy3ZYRLVQhLhQhLIgGBARFqGV6811niwBEVsrwHy1kPu4DoubQCwCHxt5Eg6vi3m9TvazMWje55dzCcr1Yzmzec7r7ryOd+RVPCuiXHjunOSF4W3c14gfbzqAB+s70StuYnJiSbk+6YAPRQXF6BsYQnFRCf7bolp8dEIYb69fj5/+8nZs2bzZzGnAXAuF8sy9w/Bo3hcV5OEbX/0iPnHLLZg8uXY4fqbPpnGsomKuKCOQq8zzxrb73Tc493OilN6+PvTJwpHe/NYyrVqO+OYxLhFZolK5x8R6MGupSNhdzWfJrKQo5jFZ8zffF46KQPDdYYZP4TD7KezymxN5cHR0yvwW4cs0BIxb2TbhiWhQfDgTFxsCQ7SW6YbWtCRd/pdzcCpW+huG71/LyjxHld08Rgsq7eXrQRKnkQWpdOWYea4paZH/TWVdXV2FRfPn4Ywzl2PJ0iWYMWMaJk6oMl8+65M82dnShud31uOFnjje6hhAX5qTg3ACkrhInVivxroUC1GaB3w9yifnV4kYVtaV41MrZmJpVRkqSoqNkPNaMG3u68HzM5XzUbBVn72GuRit3rPHuGacfJebz/3te91sJFHwOakKxZ8z1aVEQOOyprXfJ8co7PyYDN/lHhI/vI5mQh2GJ3nK97xNQ0L2M7VmNHwmbjc2jZxMxbyXLkLIRha7rSnI/M3rR3e0inltQyKq5hU4EXQuFGkOSPPGowimnQlamI8cMMZ34M3EN/Kb4Tv7nPfgKbJGsBmvuOMsbXY/GS1/jwX3udpt5ndU8vSlrXvwqx1NeLipC1GeizQm2JANhPOk/Et58IYwszCAP19YgbMmlODZZ5/D7Xffg31790hjM47ighIMdA2gQNwnPLw3hjB31nR8/Q++jNWrV5vG53iZs13FXFFGIFeZp0Cyq6+9vQNdXV041NyMlpbD6OzqRk9Pr/mQCC1iinZcKmsKM9emgqdgsZKWtenO5XNnTqZBMZcKm6JkJtaQCpXbrL7FuVORS1qyl5GwaaYbCiy7Vb3sTpU/irfxya5ssbbTnAlFoDse5z/6l8NHzp0eRLD9Hr5iJmIj/jzijyPWvZK+sD+EqvJy1E2rw6Kli7BixRJMqa1BXV0dKqUy5FSZ7AHY09SCZ3YcwMt9SWzvi6JeGj2JNLuWA+CzZ6Q5XWdcTli2k36J33luWhsEbplajuumV2HxrGkoyMszyXKfp8WkneedWdt9o5HtLjs8iw13NI7mhsfZ4HIEn2XAaZjR6uc+5i+3WU6cMiG/WRbEHxe3mLvjsmtnchleb4qp07NiZ5wzAitCS6vYunO7t/uPdo4fNO7ztNu2AdfR1YPfv7EJP2rowOa+mJRJvksewKA0ltJxaQgG8qSBmMTZZT58TSz0eeVFuP+Bh/CLO+8Uvx1IRRIIpIKmiz/lSUj+SkMm5MMZy5biM5/8FK68chXKysrGXJ7kQsVcOS3IVX6PpUyzsqVANze3oPHQIRxqakabCDl/d/X2oq2tHR2dXeZ9ZgoWLTAu5p1jCX+E28vAitvG/k537jRRZI/vvrPn5IRJa5UVudNFaSY/MUioNIAz6TRWlKwpHPRPrz6x4NhwoQXsFYuPXfOmshe3eUEfSgsLMKl6ImbPmYHFixZi2vRpmDt3DqaKiNs0sDGzr7kNr+8/hLWHe7G2fQDb+qURExaFjvQgJUKPuAhKMIS0WEXsK/AmRXASHhTLoUVVebhmSjnWzJCKeHqdCfNkY6/F0cqGMjbY3dCIu/c04odbG9DSl0C4qESs84gZC8B5+Fm08xDDqtoS/OGymagKevHDn/0C9z34MPpa2kTIg07jR+4Jvj3hCXgQLgjjkvMuxJe/8Hlceqkzh7sbNibMPZPZZln5sMuLirlySuEuzu7ymqv8Zu/jb1rNHAjW0dlpPs95uLXVDBLjFKUNjY0i5i1ihXeZrnRazMS8VyvBmLht9Pa3CxuXe79jOdMbJftIWhy3jnVpXL8zqFF5ZzwSqlPnmN8ckGXhO7Z8Li0H5BcrI2fTjKqWbQ9fG5IjtKxDoSBKy8pRIRZ4aWEhaqsnoG7qZMyYMRVz5szC9GliMRcUmHAZT2dPL+oPt2N3zyBe7+jHS41d2NcVQVQCjMrxtJ+VZ9RMJyoraTiEkUqKZSWJyEt7MC0cwgW1RVg1rRzn1dWY5+PEfb0UhbDBvanhEH6yZR/u29eOrqTfef1MxJaPCjxJ55v2pdI4/MzCKfjErBr0Hz6M7/zoZ3jl6WcxODRoxDzkYXe61AGeJFI+oKKsFDeuWYOvfPGLmDVrphOZwF4TWw4p6KYXTco0tz/M8qlirpxSsJzasppdXt1F3X2MlQEnQ+GHQQ7U12Pn7r1GuOvrG9HY1GSs7/7BiOkOp7pZ4TVxiX8j5oI7/GFLOLPPxsc1b35LdhqJbfGT7PdvSS4/FncaHOS3OLevPUn1Ztayw5wDw+IfKygOOuLI8EDAj/yCfOTlhVEzqQbFRQWYOFHEe/JkM2NWjVjjdXWTzb5wOPwOC6Wtswt7GpuxXUT8LRHvVw73YHfvEBIeDnTyIs4vWEl6kukEgvzutPjxyR9TzUF1lWLxrygWq6gyHytnT8aiqbUIZZ6NE3c+KoqFj7Xeqm/Cd9/aawbERaRMeQOySLFJxZ3u97y8IKYW+HB9ZQg3z5+OpoON+H///B1s3r4R6UQMYQ+/be9HJBFF3EzEn8Y0KfOfuOkj+MynPoWammpT7qxV7i6Tdtt9737QqJgrpxS5yin32cXehLwhOSCtS8r5QRHurdu24803N2DD2xvR2HwY0ShfwzoSDp9d8rcNx+zLiDvjc+KUH84/Ew/3MZ5c6SHO7nceI0f2MzDHrZvs8NzYsAndOc9JOZDJ2eYAKVPhiLD6A0Gp4PLMlKpBvi4k2yXFxaiqrBDBnoBJk6oxe+ZMTK2bYgScA4G42PjNc11Z+Oy3u7cfzR3dWC8C/vCeJrzVPYhOyUPn4xkSn+QfR8KbAduelIg6Z3bLl4xiA4IjquOoLsrDeeUF+PjMiThnyiSUFReZtJqGhs8Z0Gatog+z0lTGJv0Dg3hh53789drd2NwXN4P10mw8yppjRngP+/xeLCrJw8cm5GPNvCl48ZXX8R/f/y6aGw8i7A2bkf4cE5IUIU95nYGic+um4YufvA2f/NTHUSz3h7tMck1seRzt3jzZqJgrpzy84Vh+efOxG51d5HzHev/+/Vj35nq88NIr2LZ9h3FD+zWepGBTAPkKjSMiHLTkyLRzw3J6SU77aQxeuS14K7PyoEf6lf+Nc97kfK/Y7JHffB+bHngr2Vm4joiTNDZE+Jy7jPay/M6MQB72I/8xTTxq/XLgErFx0R236Y6jkDmILBgKIBwKmc+JUrjDoTyUl5WiqmoCKkW8p0yuFcGuNvvYlU6Rz8ZaJITP0tlb0TMQQXMkjnWNnXhs1yG80S37Jd38gpaPXenih2kwn9CMc/qVtPz2YCgu66CIteRHeXAIy6qKsKq2ElfNnY6p5aWZkdJOXO66x50GRSEsH7aMtEmD8r4tDfi7N/eiTe63cIhjPaJyX0vJi7M73Is8sdKXFPrwpYU1uGrRdHz/Rz/Br3/7W/S090pgfF0tYIaJRlNR+V9EW+7x5XMX4H/8zV/h4osvNGNIWI+wYct4WR65JracfhiomCunHO4K392C5vvXu/fsxcuvvIqnn33OfKKzt49vCMPcoBRMijanmGQrnuEQp9zzpnUEld3RfKWM+xzkmPilCcxnbxZOC+pYxhwxLH4zQktLOBwOSpxiEUu8rBSCRmiDCAVDInLOrGgcgVxQIJaz/Ka4BeUYBZnPr7nN7nCmu1zElwPTKMDsJg+JYBt3ss24/HQn/nm8ID9fjh+ZZMUtjKPd4zzG/OAo/AE5932dvXiloQ1PH2jDxtY+9HEODr4WJJVcPCF5IwIuJwbJdPEtFamk2cQlrR/OAe7zBpAXzMOMvDQ+Pbcc182fISJeJucfdCLMwDhtulTElZFwy1h33yC+v64e/7a5AV3SgAx4Ekh6pdzJvZ2HfIRTASRjA1hUHcTfX7AQ506vxV/9/T/h7gcewkBvn3lFj5PqmDc9ZGHTudAfwuKF8/BP//i/MH/+fBOfuzxaC902/j8MVMyVUwqWU3ujcU0x4A22a9du3HHX3Xj40cdR39hoRm3TCmbpp4DT0pY715Rx5xn4kS5yLs4zZ94qch/IQn9HkAaA7A2KeJaXimVbVi4CWyYWb6Xpsp40qcZYvaUlpSgsLDAfc6CgUlg5uIzv5hphF9GmsLsriWO551iR0F0usXPftzZvyLEIY7bfrv5BvHawBQ/sasRLTd1o6I8jJlWdP68A0Z5u8zEREg54zbvv5lUrvzSSpHHkSfDDJSnnvWbJymKJ/qNzJuGr58zD9LIic9628cS08Zy4ZOeHouTCllWuWY6SUsw//ptn8WJnxAi6V4omBTqQ8MMf9yKaTiBc4MGF1UX40TXno8CTxqpPfBH7d+1AYogfZJHGtJRn3vecv50lu7KsBNevuQbf/tZfoVTuc/e94cbu/6BRMVdOKSgA7AKmYPKmfvGll/C7++7HhrffxuHWdjPQLRaXVjS7gUXkzTewxZ29C1jG+Z6vmfhCirsdOCYHjLDkiWCXlhRh+tQ6I9RTpkw2XdT8WAgFnO+klpaUDA8M48J43PdOLsG2y8nE3urZ8TDPmB7upxvmh+3N2N/Wic3N7XijoQWvHe5B/VAc3ZI/g7IkTB6JJSLb8g8BsbS9ibSZSz0tou3lPJ98l53RibVT6PNgXtiHNVMqcaksy+qqzXN6xuf0jDhkp5O/udg844BF5qGiWFg+3OWaky3tPtyJbz65DusGU+iPDkh5lDKelnIdTUr7kj1bARQFgbNKPPj3qy7A/p278K2//P+wf89uaZ5LncBGvYTJesAr4p9KxDChohy3fepWfP3rXzeCzrJo7x2SfW99kKiYK6cMLKNWzDdt3oy777kPr7/2Oto7uhCR1vZgLGpa7OzylqIvN6gjDpyIg3/GMueNKZsi8QwQYbGWOWp77pw5WLx4ARYtXIDp06aiuIjWpM9Y2I517Txft2u3EI3V+yZX2nr7B3CgvRMb6pvx8oFD2B4FDg+lEPOH0cM8ZB5zlJBp6UgeiQUOfmc8JXmZmaTDfA/cPMcXS8iXRqE3haUVhVgzcxIumVSBSUV5KC4oAEfLE5uOo+UVj5Oxmp/K2IFlhQPi3mxoxj+s3Y63egcxIA1RaWvCI2U5lZL7X8qsP+RDYYEX11fl4W/PWmC+y/+v//6f2LFzB8dsmn44FmW+b0EL3SNlv2ZCFf76f/w1rrv2WhQWFprn57zn3Q30DwMVc2XMQUuNZc2WN1v2KNS8aXg8141DEd+7bx+eeOoZPPLE09i3dz8GuvuNe1EVsSQ5f7MzGWlAWt0hjzTL5RgnQ+Ed6/MHzLNwfpVp2tRaLJg9C0sWL8ScObMxqXaSGclaXFxkPhKSHb+9jdz3iPvWGuneOdp99V7uu1x+uI+LO918/t0biaC9bwC7W9qwrakNOzt7cVD0uS2WQrtYMK2xBGJSA/rCFGmxTlJ8liiexSD3UrSZt2LleJJepOJyXaSi5DP6eDyC2nwvzizPx+WTy7G8shgzJ1SgsrREreqTjDN1sDNlMMcglJSUDN87pyq5yjzv++7ePjy6cSt+ursFb3RzOmNxK/c+vx/gkZZ9qDAfCW8aExDHt+dV46p5U/HTX92JBx98EM2HmkzPHe+ZFAfFStlPJiLIyw9h+bJl+Ou//AucdcYKU57pJledZLF1lrXkR3P7XlExV8Yc2WXNirt72/7mmvt27NyJp555Fuve2oidu/agvqFJ2tSiOdIC5/zo5lvRQbmBpD5LJGJIi0gF5AefjbEFzsFis2fMwvnnn40ZYnnX1lSjVgTcPOsuKx0eNObukj4aH+Q9476Ns+PkMVYiPYMRdEjl1tDWif3t3WhJeMTqjqNdRLhFhLuF2yICfUOSPwzD6ze9FnK2Tr4zCmn0pLiRcr6gJlcCHmkMBSni4icgVvqCkiDOqS3DovICzMzzYXpVBSaUl5oeDOXkw/Eh23bsRP/ggOlFOnP5cpP39l45GUIy1rD3Hs+3ubUNd63fgdsbB7G1d4hP2OTOl/KdTJnvE3CufH5qdWEY+GRdKRaV5eP+Bx7Gw489hi7RQJ8ZwMpP7HKa5aj4SSEsjdtLL7wQf/S1P8CKZUvMYzXGmV032HTYR0PZ9deJRMVcGTNkF3RbNPmbIsrj1rqw7lhG39zwFh57+hm88tobaDl0ODP3dUwsbafLnILED1nw/uUrUn65eZ1e4hTKykuwbPkyrFi6BAvnzcOC+fPMxxU4m5n7Oa47TXZ7JNzpPtm408NtnnuEX+8aGERbTx+6+gbR0T+I5t5+dMp5Nw/GcDgSR2OviLaINT/nOSAZk5CFIk1x5su2/PY4rRGv5Jfd5rc9w/lhiYPdlWKth6RKlAqOH+aoyQtjUUkBzp1Qgjki4AvrJmFSZTnyM6PYmUa7KCeXDXI/vLr2DfPRn6VLFmPlZZcON0aPpfyOR7LPi7/dvRF7G1vwi/X1uKexFw2RXvNYjePUOSaGTRuO8fAMDeHsiiLzlbWSdBy/vP0OPP3Ek0hKo4gTGnlZH4jjSDQidUMIheF83HLDtfjql7+AObNnmTjdDSWmxzaeTqaIW1TMlTFDdoG3N4LdZuuWFgbLIj/7SQvkuRdewvMvv4It23ehu6sHvrTX3KhxaUH7AnIz8bmuiJjcitISlyOxFEqLijF16mRMnzkNc+fNxllnnmHmFp9QVfWucm5vD+4b6R4YzU8uRjvOY+ZDG3K+5jxcH+Mwn96MxxFl1ze/tiXb/N3POeGTCfMt7UFfAL1pH1ojCTQPxNERTaFL3Db39aOLz7wTkIo9jD75zS9LIchvQSelYZPgKAGpEOQacB3wmo/AeCRMn1RcfGaYlvzjl7g4mp/vipeG/ZicH8DskjzMLwpjXkEQZ82ZgZL8PCMeNs/c5ztSnignBub1W29txNo33xQx7xUxX4IrLr3kHQ3TUw1bxqxo2joju0v77b1NuGNHC363/yAOyT2TSEldIa36kAh+VNxyljgO0lxdV4HbZlaht/kQfvGzX+KN116RMs/7wI+03F/RoZgz0ZI0ANjj9KXPfho33nCd+WQqGw/u8s5tW+bd2ycDFXNlTDFS4ee2/d3c0oLXX38Dzzz/Il565TX53SY3LgVJ2toi3PykKEXcJ0JFa5P+OPNYUSgPU2snY+miRVi+YhmWLluC6dOnGUvcHYe9+bNhRcGFospPWx4RV75bbb+Cxa9dOV+8MiLJP7nDaAEwbPNVNBOPhJf5Lbchx84i5fNTac2an8Xk5z+HRKRjEnZUhDUaT2bWKUREoCPyOyLHOwcHEZM0t4uV3SuC2xNLoz8pIu0NIi7CnpZzT5vvmErlJukK+UMYig6Z82T6vMwjyVdaH7RXzOdMxaDhuQL8PGYQnkRUdN+L/GQMs8sLMLcsH3WiDzNL8rFIrPDpE6tQmJloRuuJDw9es02bNuON9evR0dWFxQsXYPXKlcNizrJ3Kl4fe148f66zz5HHeW+u29eEX2yrxwMNbeiUhn3aw2+yB515I6R8SxMA+bLcML0KN9aW4dDuXfjJT3+O+v274E8nzAA6H+R+kHuEYs57ff7cWfjExz6C69dcK4I+eTg+mwZuk5Od7yrmypjAlq/sm5G/jejIcW7vP3AA9z/8CB546FHs3bcfiRgHYTnPpCiYpktYSnRaFIytbr6OwhHpleXFWLpgvrFSLrjgfNTVTTHPuRim7Ypzx0UYJkWbX0PrHRiUJYLeoTgGg2F0yHpAxLRP4jcWsSwRuqfAU4glDH6Pmp8ZZQ81GxgMlx9nkWgMdMdjZpuWthxISVoiEga/bc25pWMpaShIOHxMkJTz5HmZXgZBcsyIbzIZN5PO8FvnfKeb4UodI3BUvZybtGRMNLQahqKcTdV855rPINhlbvZLWHz24PEHZFtci/CzbvP7gigVt0XidlpJGDM8QzhvciXOnD4ZdVXlyJc8JO5rpny4UMxfX/cm2jraTY/TNVdeOTzo0JbxU41sfeJ5Ztcj3B4cGsKLOxvw/S315h30wWQAnkE5FpSGrycmd0Fcbos4QrL+xOwpuKqmFLs2bcSPfvgjdB9uljohikJ/WBq3nJJY3IaDYq2nsWj+XHzxM7fhxuvWmIGy7rE1jJuc7HxXMVfGBLnKF28CWzw5Bev++gb89r778Ju77kVf74D5iAI7fflH/eFzXA/fb5abxkwKI2I4qaYaU6fU4twzluEjN1yHmTNnDFspucozXzPpYZd0bz+6Rcg7RawbJK5d7d3Y1TWA+r4YelJ+dMVFrCXOuAisVAVGtCmOJrUSrPnJDcGxjM0RRygz0XLAGNNAQWbDgU44axzPOSUiy/PgrFXDgRoRZ6hOWB5TN0gesS1C8Wflkhc21gOfb7ORwy+fcWY2j7HMRfjFGmG1br5jLcc4D3WcFQ/DlAaDVAgoDAdQIllUmR/ABFH0qeJmTlUJLpozFXOrK1GYn2cqK8KGEK8Tf2d35WZXqMrJh2Xn7bc3Yt2Gt8x3B/g2xpVXXDHcYD2VYXmzgmnrDXN/sV7IlEFud/X24cW9h/C9tw9gXVdMGuRSRqXRn0pE4An5pe0r7qVhXJUXxG3zp+CSinw8/vCjuPveezHYdhhhaSlzYil+mY1vybDVm0wmcPGF5+HrX/6irC8wsy3yns5+c8OdxhONirkyprDlzBZLrtmt/vRzz+Onv/oNtm7fSdU2z7eCUkEl5YZhlzpdp8UK5fNd3izBsA8Tq8vwiVs+gptvuAG1kyaZCo1hU3gYrtta4b4BscAb+gbwysFWvN7Yim3tfajv6kc/hSq/AGLKIyo3eTxK4XUqx4xGI0mxdLRWEiKLpM+XYlNDjkmrwxFzWehOFv5ml7ckSMSYY2tlTYGkALJrQQLzi5WcSkoImffhnbuPUi5Wuoi4CYtD19JiUeSFkJKGiHElfvianc8TRFIs/mQ8CgRlvzR0KPIeNhwCQdODwbnfObVsvqQhJP6rxMn88nycWVWEs6ZUo66sGBUF+Wa2OsK8Iu4KiXmXXTeYhgjPxbVf648Phrfeets8M+9iN/uiRbjqylXDZf9UxtYZRztPuuuWBvurexvxty9txvaUDxH2UIl3v9wUPr8IcUzCSSdQnR/ELXMm4uopFfjtnffgd3feKZZFFxIs/l6pb+R24KO9lJT3gNxHl1x0Pv7oa1/GOWeeYeoXxvVB5buKuTKmcJczikRzcwvu/f39+Nfv/kDKZJ+Z1IWvm/EG4mAtcSy6maK0ybbcXN4AystKsHrVxfjC524z3YysyBiWtSIZPhfGxd+RoSjqJezfbt6L3x9oQ/1QAgPGSvUa65+WdUJa3uy7puXLeFNmana58eU4U+tobuYH7ygKMCdSMQIuq3eIuTQmjDsJz95+knbTfW5+O42AtDQYuM9oe8aZExjPluHwXGghyzanUKVlzulTk0w7nco2zXf+8Ir1nUqgwBdESIJgA4jWf1VBGJOlIXD2xHKcN3kiFkyswOSyIvPZ0dE4lvpA64wPHub5+vUbxDLfYOrwRexmX7162DLPZS2Od3jOXGwDk/e03XYfM71fUh5tXrS0deDRnfX4q3Vb0AmpG2IphIP5iEXTYihI45g3nTityfPhirIgVk8qwbe+9bfoaz6AaCwmdY3UIUMxqSMkzFBIBN6DQDCIVZddjL/5i29i7uxZJp4PChVz5UPFiqzFbc29IdbFf/38F3jq6ecx0Dcojtk17QgzR7VHOSMThVrEKikWanFhPs5YshifufUTuObqq4wb3sTu8G055vpwbz9erm/GE3tbsLa5B539MQzJ3dsvN2VcblbzCUVJDyeLQMhvnr+nBgfgyQ9nxFzu9czdQ0l1RNveI7I22+LA7KJDLqbZIWLurIcPGQGnmPOfUxFR8U1aJQ3ynxkDwDEBbFSYhXDK1ETcjEyPsWKhNSD+vXz2LefIcQQcV1fsSWBOQQhTRfRnl5egtjCE6bKeKkuVnE+hNFKYT8wvWxEq4w9e8z179mDb9u3oHxzEjOnTsWLZsuFX05QjsB453NGJh/c04G9e2YohXz6G4uz5otEdkOMU7KTJOz5uurYyhDPzPfhf//Zd7Nu2DUUci8JeL86IyF403mhy71WUleK6q1bib/7qz1BZUTFc57gbGRZ7zE0ud8eCirnyoWGFPFvQBwYG8NDjj+Hnd9yBLVu3Y6B3SG4adkunzWQNnEZ1KB43Au7nzG4ikLNnTsetH7kRa0TEJ06YaGZpc5dZ9w1S33wYT+09iAcbO/BmxyCGvGH0tffK8SCKxSLtiUl8ItygeEsYfKbtEauWA8S8oSCSEWlYiFviGOPOc3OOBif8Lbeps8jmkRvMbjlCLomTf/amlfWwQycEBpc2g+iM4Y0Au+Zpics+5xm344X5wsFvYcnDCaVFKJScqSstwJzKUtQWhVEj1ndtcSHKwgEUyjn4aUGI6JuvrsnairhyasBxHxydba1wfqeA90H2fXa64q4XmFcHmlrwyP4W/NMb+9CWZm+W3FpsIPOmY6+f1B15gTCmBz34RF0pZngT+OO//p9I9Yk9L636oaFBuX8kX0XQk5wtUbZrJlZKXbQSf/0Xf27qItZpfI7O68Jrkt07Yq/V+0HFXPlA4A1BKBpWWG3lYn9z3dbWjnvv/z1+99DD2LW3Hn09/aZnOuj1yz3G98tFSEVk84sKGKrcmSksX7wIt37sZqxetQoV0hJmOHa2MfvdYe471NaJJ7buxVMHWrFTLOvGRAq9Mb4+JkIsWu2X1riY+/AZq39IhDop4i37guI/KY0HEUw+Y+ZnTsW5A5XWkV7z5+CsjeC+C+cY43RuPTYWHHc8wlfoaHybrzbJUiBLWES3UOoKinSRiHm5/Gb3eEk4iALZrijMR6E0MioL8lAqgp0nJ8PPOHIUf1jOJcS1WBcUb+Zz9r2s9/apg72XCO8vXtv3KxKnGtnlnXVEW98g/vyZjXikuQ99kYjzuqbccynWAZKnnAWuUPJxTmEIt9SW4MD6N3HXHXch0tsqbuOOu8xrbkl+o0DqtZpJVbj5hjX4iz/9prHunftd7nOJ227zWtnf7vV7QcVc+cCwlQsLOtcsyLyROAqaLdP6+nrccefdeOTJZ3BQWstREVpOXEJLlM+n+KyZhmyUo1PEJJ4xbRouv/BC8x7tsqVLUFVVNdwosPHwHfC9Yom/se8gXmzqxcbeOOqHkuiTYBPSEBDHJm3sluZo8JTcdF7xm5SWObu3PUGf3CQp+OVmLZI0FEgDoqIgiLI8EUm/T1rsPuSLSIakNR6SBkdA1Dgg8VKIWaWatSTdfNNc1vxGOb/IRuV29vO8jmwH5XhQwuDgPp5znoQdlP0hSUNAGhSBVNK4oUDzu+Z8ts11QNJC4bYW92jwOthKhOi9fWrB62nXvK56bUfGNn74DvqGgy343tv1eLqlC61DQ0iZx3hyv8pfMpqAz++MN1lWVoCVBSnsXrcWTz/3BAa628TgiMsi+Z0ZK8O7PyQN64mVFfjq5z+Lz3zmtuEeEuK+RoRpILTcrSFyvKiYKx8IvGm42MrFlieuKbqvvfY67rn3frk5XkTz4Xbz/rV5V1zWxkoVfUp7Ekgko2Ide3DmihX46HXX48LzzjPvjLMLyy1QvCn2trTixf2NWN85gF09Q9jewdfNJBy5Kdktzg+H8DvmvAn5PFoU3EzaYsao8RU32SgRG3xWfgCLywoxqzgPtfliDYvlmxfiZCoUTh+CIqh+EXO+7uWTm98INpfMuToLxZr7mb537ifc5vFh//ydOR/OumZeJZPf7tuVx7I5lvs0282x+FHGD7zPCK+pXtd34y7vdptrzrz4VkML/nn9HjxxuAe9IugeqRN8YnF7OJhV7nEKu0+MibMmBHFRkRdbX30Fr774PPo6202Dnxa61FhSt6RF+KWBL/dtXW0NvvrVL+GGG64zn01lXMTGaxsU/P1+HoWomCsnHZYddzFjgbVd3yy4a994Az/52S/x3IuvoKd7QNxysIgUTnats4CLoHq9HFsaQ2FBHi6+6AIj5Becfz4qysuNG7vwa1H1LW1Yt68Bz7f34u0+jlQfRDTlEd9itcuNye7vVELSJO6lVEvtJ6LOFrjcr5zW1C/xTy8twKKKQiyTZa5Y4lOL81FdVoLS4kIUSMMh+35wn597/8nAHbfNW3v+I2HTZ924G1bKqUX2tVbeifv+yYZ104Mbd+EH2xqxtmvAzLqY5qO4NJ9zB6SeCCDS14n8Uj8urpK6YaAbb7/wEra8tQGDvZ0iqFJXSV1ixrXEONui1HNSyyxcMAdf/8qXccUVl6GsrCzn/WgF3W4fL76/EzLb74Cf0RscHDSizok2iBYO5f3iLkPsYn/++efxy1//Gk899xz6ByMitGKRSjn3iKByIAmdJxE31viUSRNx3dXX4LO33oqLLrgAJcXFmZCA3r5+bD9wEC9u3oOnGjtxd30rHmtsRxeCiESTiMrNhUDQGeXNrnuBI+HT0pLmhBFBvweVAS/OFvFeXVuCVRVBXD+jGitnT8WyqbWYPNGZLIXd2DyH7HvB3pzv5SYciZEqnZH25dqfjXXDCoPhn8j0Kh8+uRppdt9oInY6MVIe2PuhmmNPRJS7IzEclrpDah/JQ2k0iyzTQJeqSeqkNBr7IygKhjGprBQ+Od7b1YNEJApfWsRYwqKIc1BsyutBR2cnDrccRmlJMSZOnGB6ErPrDCvi7/U6HdUy3yeW+ZVqmSvvA5YdFlRin5dzQos31r2B//jOd7Fp6xZEOFBNxNYTl4ooyTuGVrQHCT4jLgxh9uzpuGnNNfgoP2hQ63zQgPQPDOLg4Va8fbAJL7cP4tXmPjRG0+iOR+ENBxGL8utpQY6Tk4VFnY0FKcvSODBd2skYSvOCmF0UxjlVpbi0ugRL66pRVphvBo25y/yJugfsLfdh3k/2eryfykMZeyQSiXd109rry2v+XrtwTwfc9yUnkHpk0258b2sj3uzlmwGcVtl5HZT1FPOZPXqlfh8uLA2hqrsdu15/DdvfXI/UQI8EkkCUA+N9zsQx7HJHbAgXnns2PveZT+PSSy8xXe7E3nsM8/18EGdUy3zAWOZdYpnPNPv0hlfeCyzMFA0urFDYUHxVCv7/+Zd/xcbNm8H5yuWgGYTih/Ncirv4kRR2aS9duAC3fuyj+NLnPo3yTLd6b/8AGkXE19cfwoP7mnD7vmY83zqAw9IQ6OfrIQG/ee5uOtXlNy1+jp7ju+MeMf1DskwMAvNKQriksgCfmzsZt50533w0hJ/t5CCU7PLu/u2+8Y8X+nkv/o5GrjSNlE7ut+k4GWlRPhyslUdh4L3Ga8t99hqfztf6aPcs99s8Yw9cbXEBArEo9nb1omNoECkRbg+Pm4pFKg+vH0OyyamdKwoLUJGfh8HeXvT3dpvHdUnGI8fZy0h/Yj+gpbkJfX29KCkpQfXEicPfQWecXNvrNxKjncNRu9k5v+8sFXPlOLBWH2GZsQufR7G35/kXXsT3f/pTrBchN93ptJxFaBNxdv3yibYXbAPnFxXirBXL8OUvfAY3f/R6I7ADgxEc7uvH64daceeORvxqVyueaulBo9xVcZ+0mCVu8wUwzk2eSCFfWtFxzogm4cteBKWBMCHkw6KSIK6aVILPL5qBz561CIun1ppR6Ezn0W4oYs9pLJErTSOlc6T9yviH7zT39PSaT6BS1NmlS46lXJ/KHEuZdwtqWBr11XkBlIqVfUjqnfYhfojFx8fhzpgfY52Dn2aRYwkUFOZj8oQyDPX3oFtE3SNh8U0U1kNBvs3CbvpUEg1Nh3C4vc0Iet3kyUbQSXbPia1H3WnmvpFEX8Vced/Y1qJt1bKg8Xk4C6YtM6xUaJE/9dTT+H//8R3sPHBAbooU8kL5SMbFIheh5qRmAW9AirwfweISrLxqJf7qv38DF5x/tgm7b2AQr+w/iH9etwX/snE3XukYRKvcRLGUyLTcLCm2mJkGWeUXFBpRj4oF7w/lISTN4tKgD7OLArhxajm+ec583CYiPnNipXnNi2j5Vk4Fdu3egxdfeQ0bt2wxDehJ1dXvq/v2dMItkqzXisXinioWemXIjy2HO9ARicOfXyCWdhKeYBicPpo9fnG/Bz3pJEoL8jC3bjKaG5sw2DeAPA6aE002s0hKxWSmfRZZbzh4CO0dHZgwYQKm1IohIdeH9aUVa1sXZddJTB/38bpmC/pRm2pavSnHgm0tUsSJfVfSdveRJ596Bv/23R9gX0MzEkkf8sPFiA4mkOT75OIvxVHlUlD9eWGsvmYVvvnVL2DJwnnokRbx/Tv248sPPY/PPrUODzZ1ICpx+dJxpDnKPUirW26AFLvXw3wdHZHefhF4Kd6FhaaU14lxctusCvznymX425Vn44xptcM3hW2MKMqpQCKewEB/v1l4/2ULgjI6fK3VGiakqrwMV86cgj87cx4m5HPipaTJY59Y637aD2KqRwcH0Cf11y5fCPtDpTjjyqvhyy9HJMpXb/3gh5ESfi/SnJjKPEwMYv2Grfj+T3+BZ1940Vwnxss61Ip09nVjPcX6iuQa+zCqZR4RS6i7q0dHsyujYssFCxu7n6LR6PCsUyx0nZ1d+OWvfoOf/eoOHGppM9/mjkZjUnjjCHgC5jl2f2wI/qIiVNbU4o+++iV88w+/CG9hMX7yxmb87esbcdehbmwfiKNX/CTl5qBg87k6X1/jDcXBbPAFwa+opSVuzuJWEPBiSWkIX1s4CX9x3nysnlGDurIS033GNHNxt3Rtg0RRxjOHD7fiUHMLBkVsJlRVYsb0aeZ+pGBoGR8Za+266wbmFw0UTsg02XyUKIBnduxFqKQMg2KEpKIJBDh3RJ4fcWkAcF9E6rSQP4gLF81F08EmtHZ3ICiWfYo9iBIeB/MERNQZR2NLC7bv2okCMWCWLVli0sE4eYy4LXWbJmKPuzlqN3tPdzdmqJgrR4Flg4WOZYbPgPiblQd/3/6bu3Dv7x5A/YFGRCJDYkV7EQoEkU44ihyTAjvk92HC5Kn4wuc/iyVnn4kXD3XiB2/tx1ON3WgcSKK9u0eseXHP7kLeRCkfPGk/0nE+Cef0qrTNU/BKOHmeBBYU+fDpGVX483Pm4pIplagpKkRxQX7OgW2EN4lWcsqpQGsrxbzZ3HsTJ1RhzqxZplGtZfzYcOcR6wrmHZdQwI+avCBmlRbjtQNNiHDyqbTUJcxbWbNeE3NGrHAPYhy9LkbHkvkzcGDnLkTkWoQ8XojpYgSdY3tY93EwXZfUbXvq90swHixeuNDE7xZwLhR121vAetXud3MUMY+gWyJSMVdGg4WMBYytf1tpsDXL5e577sM99/4ee/bsNZ8ajadT0jCVwiyFOiaN1Di7oEJ5yKudhnNXrsJQWSWea+vFC+0D2NEdQUvvoPiRsici7g1KazYWk4IuN4o38z1uuUF8nIVNhLxYbqNlpUF8et5kfGXxdFw2pQrTJ5SjRISco1PZ8s51ExDePETLuDKe4b3Y0nJYxLzJfKZzUk21+XIay7Xb4lPeDfPGCqbNL/4mtiFUmJeH6rDUc6kkdnX0imhTeI0u05QwG+wIj/u8SIjhMCTuFkytxeHmw4gNDpmPHHKaaM4EacIUt3yHvV2M5j379onedmLBvHnvei2W6WB6RmuUHVXMOQBOu9mV0WBBY+Fi+bBdVSw/v77rHtx5zz3Yt28v4rGoiHjSfI0sKS3aiBTgVFEpUtW1CEydjeL5SxGvmoT90nbdPZREazSGSDIB88q5iHWaVnlSWski5KmAFHQJyx+UGyLkRRFiOLM0jM+IiH963hRcVFuJhZOrUVFaYqZBZbrcN6m7HNub1e637hRlvNIsVvnBRvaCRVBTXW0GMNv7U8v2yNjGjl3bvLJ5Z7c5edSkkA8FyRiaB2Lo4JszUs9wgJuZy0KcpkW1IyLvEfFXWFCEWVMmYaC3F9HooBym7IsfMWxY+9C4T8eT6O3pQ+OhJgxFBjFlcq352pqF8R/tGo4q5nzPnF0AKubKaNiCZoWQ27/9/YP42e13Y/vuvRiMipUuRSfm9RkrPFEkIlszBXnTZyM4cx68tTORqqpFlzcPnVK6Y6aQSwuXQs7nUXa+4wQ//h8SBRYh9yaRH0hiRWU+PjptgiwTccWMWvOKWWVGxHlTMi0WtmqZPu63ZJdp/s7epyjjiZaWFhxqahbLPIqJEyaYZ+ZWCJSjw7yydYTNNyvwhAYL65ja/BAiItCtsTS6o2J40FhhfSPOWBcmaIyIhT7oC6K0sBCVZYUY6uvF0GCfqcOkYjNWPK35gMdnhsV1dvfhQMNBI+jT5boVi6Dbessy0nV8t63uhn5y+1OUYWxh50Jr4NlnnsMvfnUHtvMTpiLA/f589JdUIzl1LjzzliG45BwUnnE+fHMWI1A3C+mKKlPg2YpNeMRyT/G5EkdrcqCbNA5S7Fb3y08v+GnCKcEUrqopwjfm1uKPZ9Xg8wtnYPWSeZg2qXp44B1xF3q3qFt43C4W97aijEcc4ZHGa0aUKD7K0TmeeoDHZ0yuwUcXTsVNE8OYFZY8FyOEz72NV85tkfAiEfOiM+3FlkQag9WTMPnMM1A+VRpX4XykfZm6Sq4R3z+nle4PBHCg/hDue/BRNEmDjNfvWDnqADha5rOOYpnbCI+WAU4hG92Ncmzkysvs63A8+W39kqOFa3HvZ4XBZ+Qvv/AifvijX2Ddtt3o8waQLq5AoHYqQjPnIzBrIbx1c+CpniICXo2IL4woJ3WRNqWHVrsUaA5gkwDlZmBLkwNG/CLgPoTFQq/N92NFWQgfnVGFm2fWYM38WVg2dQoqiovf1XolI5079+dyO5J7RRkvsAxz0hi+5lRQkI+a6hrU1k4y94dydNx1wEjbFu6rrihHpWhyQizpNhHs7hinkJG6K+2BT4yQhBgmXr9cE7Ha++QaVJWVYVJJMTzirr+nz7ziFhDrPS1GSiKVQDAsdaLsiycS+MgN16JuyuRhQ4Tx5UqHZdS52dv41bR99bjyyityCoPdl/3cMRd0a92P5GY8kyt/ThbuvCTueLmfHG9a7DUk9JvLf3bY9GPT0S8VyC6xxP/hX3+AJ97cCE9ZOVLFZQhJazQ8oRooLkU0GMZgSgptMgUPJ1MQsU5La9aEwRYtw8x0BfFjKyEJt0TEvTIIzC7Nx7LKQpxfU47z585AXig4nOZcVreinI7wXjKPSAcGpXEdQygUMlMgKycOO9iX2DpwR30j7tq0B3c3dKAhKvs9Ur8lxMihqHsTSISkfhNBr/SkcGYoifyWRux+Yx0a9uyFNz4kdWgCQ5EhCZHd+l4UFxTi9p//AOefe7ZpiNk6zta3uRj9Qytt/ARqPVblEHOeBBdGwoXH+Ztu3BET7o9LayPGEc6SERyaz2P2OP04VTm3j4gFMccyi/PbrIx7u8+m7ciSOwxIdPY4o7ZOho9ntt1rN9n7bPrtuZzM1q+Ny5IrfRabHkJ3I7l1u8mFDcd9fQl/0xLn9eSsbL2DETR09+Lf73sSL+1uQqC0BIMi3KGKSqRpeYv7IRFwfrffJ5ULSQ4OyeWQeEXcaY2nvUlxK5Z8NI78YAjFIvaVvjQWFgZxYXUxLppVhyXTJw+nlWlhmtznN9J5KMrpgh2AynvBff8qJxZb99g5NVj3b9m9D7/dsg+/aRpAveiyz+s3H3WKJuPmkQend00noijzJ3BmsR/lnW3Y/err2LNjK4YGuxEOehGLxBAQf4WhAvz6F/+F8887Z3j2PlsHM95c1/QoYt7hfM98BMt8NNh64cQg/PpMXyyGrqEYWvoGcbhvAAOxBCe3NW7kFI2M+yVxTJ8Zsi87vBIX/5gJZjEn4Ozjce6jn4B5jsrC6/jhQnwZt4TdGM4xhiVhyrYTbsa98ev493t9sohPChdvDPFPJzx/Jw/ozrlZ7GKx286Kx9z7nDX9ErdfZ31EmOx+Yn+789+9ttsnglzXmPtYgHgtCRtjFPE2uY7NUpB3dPbg5YbD2NTShbbBBOIpEX4R8JTPb56Bc2Y3FmIGy08B8itCzAKv5C234wMRuVg+BEIi6J4kCiQfpoZDOLuyGGtmTcYFMyabL5ixC59WhrtBoShKbnjfujmR9cTpDOsf1j3s/bBzqhsdk31cdhxowK+2NuDHe9rRHU9L/ZeAT+qzZE+viLIYMrTofUmU+OO4sDiE2ako1j//AtatXwvP0ADiQxGIDYOCvHzc+Ysf48ILzn/HOKDReE9ibr2MVPEPDUVxSCr79VLBP737IDa19aBpYMh8CIPflO6PRE0GcOIQqfqNXw7XF9+y5SycV5tj9kVunUV+m9lzXDB2TiTiPgUKMvebdSZ5fq8jJvyCFhsAXHjICL4c4LeymWFpyXh+4iMox/NFaIJyPCBBs3Xlp5uA0+CwYQRFhCj8zgc6gLBYmM4xD0LiPyQNDX6cPijroDQSZLdxyzX9BsV9UBoaYXFDt2xI8BhPxzY6/HI8wDBlbcPmmvsYJ9MmSZPzcc7FYeTWuPuaZV8/i72OzG++C94rQt7aP4j9nX3Y3tyJba3d2N07gP2Dg+iJS0sxFDbvjnv51TM5F3bvifoD/GavnGdaLmlILG1mekIadWaoRzhoGkzewRiKqysRjURQno7hphkTccvcqVg6aYKZFYkiblu+bphGLirqijI6vE9GuteV48Pm5Wh5uvfgIfx0Wz2+t70JfbRbQwGExX1sgL3ZUm+JNqdTEYR9CVxWU4ZLi/PxzO/ux1NPPy16ExetSKOopBB3/uSHOPdsp5vdxjfadTxhljm70Zu6erCuvgkv1R/Gs20DaE170SvCnhIR52xfKXHD1/CMIorYSaDyw70QPjWVyp5RyS6prmXTqbDdrng440QWJ10jpc4+j3UaB9aVXBD5X3ZJJkicFBYRDw5cSCRikl52jfBZhTiQdJqGhGw7WcD/GKuztr8dq9udQptndJs5lslu7s5sZsKkj0w48r/TeyANBckrCj4bGBRyn1xofvzen04ij/uTKYQlX4vkghfwtwlXGiTSOODISk5zyoaA03AQC1jOKURhFHfBgDRvZNtJSxqJeBJDItz90YSIdAJd0lBqSKTQIuls6orAG8xHOimtUmmoeaS1Ka0jRAcjSAWDpvs83dmGpOQhX7soYGtUWq9xTlsof2kRfc6MxB6RQEAsdm8KQQl3Wn4Qs8QqXz23DudOnoA6KdjF+XnDBZhizTW7D90tVO6zC/NYRV1RnG727PvB3iPKicda6rYu4jb31bd34j9e3YQHRQcPHW4TU7sIgWRADN04Un4ajzRa4wh5UjhD6sA1E0pQ//ZG/OqeezHU046iPD/u+flPcVHGMmeYDH+0R7mjinlbRsxzDYBz/25qbcMzew7i3r3N2NDRj6FQHnrEkksEpfJ1XqeDlyou6Tfv4UkFb8TRxMz/zIYkxqyEjJgL3HVEgK3L4cOyg5lyhOEgXPADHJktZ8mk+0io4o/pMmHJwvwSN2YCALPP8e/hFH3OlizcN9KajHZsdGw+2Oy25+/8Touoi6XKQmPmNpdyEghIklOIS8OJPQvsQZCi5QQk/zganGuf+RMNZgtG4Bd8zCKnzjYLv+4jF9Yc4/zpMdkfkwZBT2RI3IhlLQ0Hv1jY/Ewp+1HSHMgm7p1elBQCQQmfYcnxof4B5FdWYGhgAAn57ZVGBM/EK42RYk8MS8rycE3dRFw8tQaT8kMoEgHPC0tjShLCssWbwhZcW9bsjWP32f32GH+PVtgV5XTD3iPKiYMNJuKuaxIJZ4pVWz/RTUNLK363/QC+u/0gmiJiyHpD5q0dv9SVaR9Hr4vDeFwMMQ/OKCvAzVPKkNfbiW//r39EvKcNd/zoB7j0kouHP1rFOo7YOLIZVcxb2ynm+7F61cp3FAoGyu3u3j6s39+AR3YewMvdQ9jRF0U0vwQJERlxJAIuJ5iUk6A/ioAIBPWFJ8T38JLGknUVNMZhNiTRWeXPJtK9m/uynA3zDnfvEvPMpkXidQSJiZOFysZt82K/YDPPyUuD27sbG1M2w+5NBmS23wumK0GsaQqqETcpQGxwSF6n5BBfg+CzfqPXNn+ZKHHPhaPEbVHgY42U7EgZZyKKxp1zZPhE5Bi/ZmZ6UqTgsSHGMNOZBsFwRcHXyli24zEx2P10gYT4pfizMVIg6ZxeGMB5HI1eW4n5lUWoCgdRWlRoRJzYwTtkpAooW7Ttb/eNpCinM+662m7be2uk+0p5f7jz3EKBP9Tajju31+M7m/ehOx00441Yp7JOlFrMGfWejKPEk8Sy8jBuri2Ht6sNd957H/7pW9/EiiWLzQC4Y7luOcWcu7p7ekTM27HvwH5cvXJV5ogDj28XEX9MWh3Pt3Zj12Ac9T0DSEvFnczLQyoqCZZQaT2ykhfJMCOV2ZXt4ahmnoiYhGlOBGKkhQllMpwu9uFudrPXOW4TmeuU3Cdgj7vd8QwdN87/Hpqgww54UMScQs1uXH6GTlpCFCtjeUomOhlPl3TkhEGONS3vROLKbI3E0S5cmt/tln9sFFHMk3xGLV48TL9tgJggJOVMP8OjF0n+kattroJkPxsy8pMNGO5xdtGneQ7uCLzjifLJL5IZy5z75KAZlMjg5bcf0qCIRVEojYiQ7CsOeLBwYhlWTKzAzJICVIvlXltcgAkVZSgpLHiX+DKMYym02e6O1Z+inOrwXiC8H7jNhfeZe1s5uTCf2Xiy3eMNzYfx2y17cfu+Fuzqj5jeTiNxKbG4fflSjYrxFRtARWEI8/MDWFVViHkl+bhsyTwUFxUYw8V93Rh+rvpuVMu8hWJevx/XXOGIOZ0ycS9t3on7dzTghc4hNAwmEGUQYhHGRGRSTJiIupf9t5LolLREKJ40EinSPlEOdvtSczxGHigb/JMMMApFMeJBJosJFo+0Kt8PTJ85d4aZWTJ5wZf1qWaSKjPYi5/TZI8BxdwrrSY2PeidM49xtDX9SlaatRNIrjUZ4Zjzb0ToysHxw9jeEYas+Etsc+e05KKmkmI5i6g6VrAYx/KbruWg/Oekllhr2gmT+xmAcz7GqfxnckLWDDvJHg25UM4rFuJDtpld7DLnM32WSP6ZVCbFIk9E4YsPISat0ZVzpuK6FQswp6wIUyrLUVFSjPxQ0LQybZGzBdLpYdBKRlFOBL29veabGnwDpbi4yEzpasU9lwgoJw6rkcxn24iisDcebsPDu+rxs90N2NY74IwjS4Wl3mRdKnWhj2PKhuAPhjCvMB8fr6vEp8+Yg4lSf9q68WjXLqeYMzEU8w5Z9uzfj6suv9wE1NHTi7UHDuHunQfxUksvWkWw43GpyMXk4wComBQeU7FLi4TGr88viaClJhZahRiNlSEvyqRCLwgEERTBNJ+Po6Dwf1ml+CzByGfGuhToxsgOM8m10L074TzO3zxGEeKfsR6dgxm3sk+OGf+yNgaunBcHZqVFuId4ESSTBxJJJKTBkRTR4itWnOTE6cY20i7BsVmS4iNk89vpxZe1hDMcp2xzH8WRa/vb9DQMN1Tsmv9ntl1pfacbe9wRW/7x4yOMz8f3tK3wiljSouaXeWyeWFgWGJITlsDgxB+HGBq3DNc4clx5RME9bCTwurClyRmK4kkE5MT5CAXRIcSHpGBGBzgSDsn+Pnj6ezGrrATf+tytuPzsFSiTyiQbW9ht4WTcRyuoiqIcHd5be/bsw46dO9Hb14cZM6bhjOXLzXNX3mdEG84nD1OPymKFnFgrvbG1DXds2Ib7DrZh50AKERFysX2R4vUIiB5FI1LfBuD3BjE74MOvbzoXi6vLxTI/cr1GqyffJeb8ycj7pCB0dvdg94F6rLzoAhzu7DIti/sa2/FmRx/EIBftEEGOUzQoD857dhQ5UQjkicBUBb2YVRTCgvJC1EnLY0LIj+L8MApE+MMBv4ihuM3AeI3IZhaGKMkz/9t9FGL6oeibIf7GheOShZhwTTG3bsy+THhWyOnGiLkRYy4UYQ8Skv5AablkcgoxyTROzEcrnT0GjJeibhoc4okfoucgsaT8tqLO33LUHGfUJg1cZ/bRjWihySP+5jdteZzpZTjcdtzwf6ZVjsl+DpRg/KbxkXHPBgUH5A3wvURpHPmksEQGBqXxIYVI0m7yIROGyT/JqHcVBPZAiAP2RohTXjm5hk6es8ERlgZYYdCPUCqGRGwIfdK4k1Ye0N8PDA7SBECir1NORNIgx5ODA5heUY4//cZXcf01q1FSXGzidK7nkfj5W8VbUU48vO/ffnsTXl+3zljnSxYvwpVXXK5i/gFi6zdeCyvqth7c19iEx3Y24L6GTmzujWFANCbCHk/WvmKie4ZEdUTMA4kEnvjYhTivbqI0BJypqu31G6nufJeYMwGkXyrs1o4O7GxsxpLZs3D/9n3497f3o8UXQlTKQiqWgFfEnCOX2WVOa9GXJwUmGUGpP4WlpYVYXlqA8ydVYMmUatSUFSOUKVBHq8iPlujjheG5480Vro2Tawq+02igPznXzD6+025Ezwj4ETdOw8JxY7YzbukmIZljGgHiljHE4gkj4rZxQHexRNJ0jdswuY/h0B2/vGOOs7fANCbYkBB3/hD8hUUYiseNyHv9AfRHIkgwbtMAkEaBbDNMujfnwi51cWsaHdyQBhjDtLe2eX+dr7LxWsrvspA0yPJDSA32Y/2WrdiwbQe6mg8hKSLuS0ihGxhAOtIvDQkPwhJ27YRKfPlzn8U3vv410xK1+W7JrkTssRN1nRVFgYj5Rry6di06urqxfOkSXLP6ShXwDwF3/WbrQm63dnbjoc17cef+NrzZF0UfR8KzHg4FkRQx55UqywvjvmuX41zRzoAYviQ7vOx6c8Rn5j1SYfOVszfqmzAUzMM/bdiPDlHxSEpaDyFpR/BZeJr9/UFpVcifVOhBXxzTi4BzK4uwZvIEnD1zGsqLCsyoPj7EP9GvDeU6obGK+0KcKJJSAEzPABsFrkaAseIzS9w0KnjMNiDYcHAW8YpBfmdc/DBdISk0nEo1PxhAOBBAkRSosGzvqT+Ib3/7H/Dapo2IJaXxEI8gL+Q3LcakNOo4sLGyrBS33Hg9/uJP/wSlpaUmfZzwJXvwhhvbclUU5cRBMV+7fj06OjuxZNEiI+a8v8dLXXkqYOs29nLbvOfC/VxT0H+/cRd+sfcwdgylMZAUA0qsMk59LSYWiqRavP/6s3He5IlGzKkfbr1jONl6mlPMuYtf3tnf1IJfrd2C39cfRltxNQYHaT1Kq0AaCnwcLlumzz+U9qAq5MWSihBuWzgZaxbPQ56IwOlWWbuz0mb6sfBe/b1XGB8XxsV1rmvE/RTjhkPN+Mof/xU2b9wi1zom+yLmFTSOh2BvAvvvK8rKcflFF+Gv/+rPMG3atGH/JLvQ2Xjd5NqnKMrxw3vp7Y0b8cb6Dejs6sTihQtx1apVpqdM+WDgNbDPyQnrQP52z7HO+q53YBAv7G3E9zfW483eFDr7BuVYAnl5ARH2BB648VxcUDcRwYw/wrC45LqeOZWWEdFx0BfArh0NGIh50dc7aGYi84U4jlqQxCEg1nahHxOKPbi+rhj/duWZuHnFIvM8nAm2IsFtC0+Ky1iDabTLe4X5Zpfj4b36ez/Y+NxCbguK3W442Ih/+bfv4O3160TEByB2PdJ8riNlg18DSqe8yAuEsXT+fHzuM58yQk5/zEM2BBj+0Xpj6J6fa1QU5f3j1CGOBcj7kL/ZM6p8sLjFlnWsFXJeF+cawUyUdfnsOnzrnLmY54mj3LztE8RQIglfMGR0lr2ubk2iX+s/mxHNZk7Pym+tFhUVIRDOMy4jmUA5lJ7PVsOJOJYEk/jTxZKgy8/A1Kry4cjcEbq3Wblzeb/CeaLJle5TlezzZOOK14KFjgu3W1vb8Nyzz+H+e++TEshJgBKmIAb87HFJiwCLsIvuL128CF/+0hdw/nnnZkJzwrezFuXCfd0ZHz+goijKicG5v2XNhrrrPh9L9e2pjjVYmec232nguOF1yg+HsGJyFf7v6mW4vDpfRLYPIbluqWQaQalrA9IooDsbDrdZZ7IuzuZdYu6OXLakiZFExBMV9RZr3edHaojzlicRTERxTXke/nreFHxq8SxMKCkaFuljwSlwp75wjnVY6Fg43PA91VdffQ3/9aOfiAUu11PKTYBzrKekxR9LwZvwIM8bwqK5c3Hjddfi8ssuGb6W2WFlo9ddUU4ufFWYwhHjeBi5v+39pvfdBwPz2fZIuus7Wue2fuT1seLOcUln1E3EP61chs/MmYASTuohOkuct6ccEXdfv1z17Lv2WE+OxzTiCQnUL9aa32deas8P+c3Uc6snleKmujKcP38mSkuKTYTuLgRlfMBC527l8fu8b67fgF/eficamw8jxfkApJgkzOtygvwXDARRWVGGK0TEr7l6tVrWijJGYD3MT3NWT5iAybW1qCgvGxYWcqzGlnLy4DVgN7y1sKmZnBdkclkRvn3BYlxTlY+J/hQi/EiZPS5+3NfumCxzwtZcKpU0Jj67UwOeIML8pCUfAyQHccv0cnx+Tg0uXTJXCkupiYwJs0Ke3Z2gjE14na1lbgvL+g1v4de/+S02bd4hjUMpB/AgvyDfeXc9La18fxoFJWGsuX41Pn7LTaitnZQJTVGUDxvWwXVTpuDiCy/EVVesxMJ584d7TNXYGlvwurDu5ZpWOwV+Wm01/uryM/DHK6Zjakk++CVOK9z22lm9zSanmFtPrOjzAiEkpVL3BvPgT0ZxvVjjH5tVjfMXzkZFWek7IrItB3dLUBm7sEDYQsH19h078cCDj+LVtW+if3BIriknK/AhxpluBOcaJ3HBeefghjXXYPbsWXqtFWUMwTq4oKAAEydOlIZ2LUpKSkwdzf22Xlc+XOx1sHrJ62PrYQ4Gnl1ThevmTcGkkkLZf0TA6Z6aPBIjirmHM5/x/WOprIPyO5hO4abqUnx21iScOWcGiosKM+6OJMwKe65WgzL2cF+7nbt24Xe/fxDPPP8yOrt7zXvrzgxxsiSksEkZCsKP5QsX4/qrr8KiBQuGR2gqijK2YF1sRZywTraCoIwNbP1r14TXiT3bdZOqEQ4FzW+rp7x2drFa62ZU1fX4nHeJC0TIPzqtCl9aOBXnz59thJzYiNwFRhl/NDU14/f3P4QHH3kMDU1Nw9fTFDG59h75Tft7et1kfPLjt+C8c881bzm4C6GiKB8+2fckf2u9PHbh9XFfM/c26+HsY/ZaHrOYmwDkH4c85fk8WFAYwNeWTsf5C+egsLBguHVAd1xsC9At7MrYh9eKc/A/+9zzeOSxJ7B33z4kExzvwK4cvq7G91M5XWwceYVh3PSRNbjq6itRU1NN74qijEFsXczF1tG2XjZ1u/KhY68Dr4tdCLXUvqOe69q5l2xyirnxLAvdTy0vwhfOXYRFmTlirXDbCIgNmPtytRiUsQlfQXvxpVdwz333Y/+BA2ZEJd8n5+x+Xq9cZ08CHm8SoXw/zj5vBT5x6y2YNKlm+HrrtVaUsYe7ord1td6rYxN7fbgQPrq0Gmuvo1tfrbtcY5VGtMz5IQ5+cGNBTSXWnL3E7GeLgQ/gedxdYNytQB0QNT7grFCvr12H7/7gR3hr01ZEY84sUSnO4c55BPz8FJ8zc9GShQvxp//tG5hQVTV83Xmd9VorytjDXekTd73s3q98+Fjt5MJrQyHntXJrrL1m/E13IzHiEQYgwaOM38EU7LvErNzdESljHzbAbIHgmiMm6xsa8C/f/QE2btuGwWgMyTSvtl8Wnwi6NOYSaYR8IUyfXIf//fd/i7POPMO8v3o0GFf2iEvb0nTD3+59dsrJbHfkaPsYPv2743ZbIrn8W3jMuh0pHnf+kdHCyybbX3a67HG3u1zTb47k1mL30e9I7rKvC8l1bY4G3WfniSV7f3b4PG7zYKQwCN2MdNydhyTbTfZxy0hxHQ36G23JJns/0zNSmniOXEbC+mN47rwjbn/2ONesm7l2lwVCv1pvj114bXIZSMd6zUYUc3r3SDnwugqDMj6xLT3ezJFIBO0dnfj23/0DNm3dhmg06bzLaGYaYktRLG6/iHoybSzxv/n2X2Lp0iXDkxy4YXi2ArEwLlsgecwtTNY94bqnpweDg4Nm2z4nYlju8CzuSoy4C7i9CdxxMwz6yQ4rV9j2vBhO9nEbdnZ87vTY2ZxyhZ3tz52H/G2Pu91ZGJ4N0x2f263Nz6NB/7niICPtz8bGRffZeWKx+226eb5udzxu88BeK6bNfX6Ebtxx8Lg7TDfZ6XAft3nIJVd6TxbuuJgemyamw30uPEebDxbrhov1x/DceUesP3dYdMeJn7rl3uLC+93yQZ6/8sHzzrtCOaVgZeCu7GmRH2g4iK9+45t44aVX5EYfyhxx4M3u9bHyBabUTcbX//APsHLlZcOPVwgrDlt5sGKxFQhxV1KEx6xIE1sRtbe3Y+3adbj/gYexdesO48/CsLIrHZMuVyU2Gu6KLZef7LBtpZkNw+E5Z5+TxR02e6tsj1Uu6J9iP5LFnY07z2yYtuLOhvvd6affXOlget1ptvHafTzXXOmzMI7sNOTKN4s7DTYvGb7bjzsN7rRlh2t/j5S/llx5SUbafzI4Wlz2HLLd8RztPrqxeeJ2x+1c+Uj3Nlzu37VrNx5/4kn87vf3Y+26N02DmRwt/5TxzbtrO+WUgZWBrewp5IeamvEv//ZdvPnW29J6jw1XFqwguDZCLv4m11bjU5+8GR+75SbzeIVCZCtyd8VhsRUOw8tVYdj9rFS2b9+Bp555Dq++vhaHmlsQCgeH/bgrKOKuyNxwf/Yx/nZXiJZc6XHD86Ib69e655rHRjonkisdbtzHKPZukSbWv12YBl4LN9mNAHeYNr9ypdFeU2LDtvFwyXbPc81OnxvGQWyYhPts2O4lG5uXDN+GY9PjTodNm12IDc/6Gwm3H2K3Gb5dPgiOJR57vWwe5Fos3HbnVXY+uqEb7meZoVXOHrj+gQHjRzn1ObqYpz+Ym0A5sdgKgOuhoSFs2rwF//qd7+G5l1/GgIiqrTA4gp0D3jh1Lwe8TZ0yCR+7+UZZPmJmjyIjVQY2fC4WCo9bfHisv7/fTErz/Asv4fU31qG5pcV8wIWCE5OKx41NF3FXjG5x4n73MW6zErML3WW7d+OOg1j/2e4sPAcrsu5zJSP5ISMdY/xc3PHabXdecx8rbrvPHV72ORCbRkI/DM/ijscdTjY8v1xhW7L98jfDdi/Enf9ubP653dr8tXnCtHPN39nu3PnvDt+mw+JOp3ubjHZ+74Xs8LLjs7jT704vt93Xy+YHcZ8/48mVduuW4Vg3Pp+UG97TmcWdb8qpyZHSPwIj3/bKWIYVAG9qWsOvvf4GvvfDn+Dxp59BV1ePubkNUi84lQM3UqiursKaa1bj1o/fYuZctxWDrZxshWArGx7Lrmy4bcWHIn6wsdEI+KuvvYFde/aiTayFQWlc0C2tcj6vJwzTVnA8lg33u9PBxe2O2zZ9Nhzrnrjd2v1uPxb7m8esH7rn4nbPbRtOdhhuv253FhveaLjPxe2W2zZsniPd2d/2mDtuLm7/7oaWxbon2fnG8LPPj7jjsbh/MwwbjjsM7nOHx23GycX+zg6X2P3WHWFYI7kluY4R9/mdCBhPrsZL9m+mnfvc50+sO7vf5kcud/acrYAT9/lw28v7L+OOYZh9mXyzcSmnHkfuDOWUgjctu9tokd973+/xrFjFnZ3dTiUh9zPvaXOjy19QxH1iZQVWX3Epbrz+WkydWmcqAPdC7Jr+bMVC3GuGz4qmtbUVW7duN6+/8bl4c8vh4Wf0nCqYA+5oOSSSzohbKzLc5iMBpt2NjYPHbdxcGBf9ck0/XKwbDgSyFWJ2xUhsGHRLfwyH7hgW13axv60furfYuOzCcOie2/TDNeE2e0jc6bPHSPZvm3YbtztMhsE8IvYciK2w7W/rzobNMHiO9rc9X8LfbqwbG77NH7uf/uw293Ox8RK7zeOEv+nHhmHPyf4m3LbpseFbuG3Pj2nhQjdcbNq42Dwm2f6zf9v4RlvcfkbClnnmtU0Ht+2147a9XnSbKy32N6+73bb5404Pf9trwt/Ene/0a90StzvidqucWnjk4ucsrRxp3NrahvoDDVi56vLMXmW80NXVJRb5Wjzw8KN44cVXcLi9XezvjNjKvc1bmje5T4R1Sm01rr36Stx80w1YtGiBeU7OYpFdSRDuYyXDta2YrDtWWJyIhsJdX99gntF3d/dIfFIpGhdOZebxUhAdMZ8mDYepU6YwYPjFojAVkYRfUV6O2kk1yMvLM/5sPO7i2t7RYeIajESctGT2B3zSSEhIZS8nyjA4Yx2Pc8mGlSOfLR5qakIsnjCPG0y+GOvGdmGmUVlRIflUO9yrYc/Z5gXT1d4u6Tl8GEPRmNO1yalwxQ3DSkjYSYlrwoQqk6Zg0BkrYMOx58V1R2en5F+9uV7cy3Rz3gc6Zb7RTXFhEWZOn27CccNjDJPpOtTcjBa5h4nXxMOKPj2cz9zDNxaYJvdnbBkGF5tfzOPGQ03Gj9/vM2my8ThuU6iU6zV92jTj3u4n1h3Tc7it1ZQJu8806iTMgISZlGvFfROqKk2a7HnZNNA/85F+D0tDsam5xZQr4lwvp0eBY0EYXkV5hSlb1r85XxOnk98UzQ4pP4daWkw+O3tJphRlVqb8VI8+42HjoUNolWvPa8xxJ4Rl2C/lkGU9Kg0Mfo60unqiGTvhTouTf44A87ofPHjIXGt/wCnDphBKYmSXuAfKS8tQN2WyyR8bDrFhcd+b69/CG+s3oH+gH8uWLMbKyy418SqnNqOKeVtrO/bt348rr1yZ2Xt82KBtgcuGx0c6drrzXvOGNzMrqqeeeRa/vuMuvP7Gm+jvHzAVBD+c4pHKLZ32wMdKTvaVlRbhuqtX43Of+RQWLVxgKj8jHhKOrQjdRcSdJu7nQnesbNn427ZtG/bs3Yfevj4R94RTAWeqSnFt1j4KggiAqYyk8qPwOV9oYyXoVO7z58zGimXLUFlZYeK0FZeNn7+3bd+BNzZskIq0U8IImIrUpEeOx2JxEXUPzly+DGeesQL5+fnmWHae8tWdHbt246XXXhcRjg8LHcWBJDkjnlSsC+fOxUXnnfeOd+1tvjBMNgo2b9mK9W9vQoc0YKzoER+Pi7XIqJdL5bpi2VKUljqfDs6GVuWu3bvx4suvIELrXAJht6nTIHJaYUGpmKfX1WHVJZea8yL23Oya4XCg47q3NyIiYmKuq/j1yLXnl5iYnlAwgBVLl2LxooXvmGvffV7Mi/UbNmLtmxtMY80jeTqMbFJw+H37xfPn4bJLLjZ+GZcNgzAc+t28bSteXrtWxI29BRx5Lw0mWTNElp88ydslixZhsZTDsrJSx3MGe17M5x07duLl199A7+CAE5dkEs+JC0U0LEI3a+YMrLrcMULc6bHn5IzjkHx+9TWk5fiRs3Lc8erT7TlnnoFzzjrLbBO7dvPCSy9jx569EqYzatzAxmqmDMWkgXHxhedj0YL55otmxIZjz4vlkI+hXnltLQYGI8avuV/EGfOGBKUcLpg7Dxeed+5webYwDP7mwt4wjmLvEzFnWVu98goV89MAp7S5YGFgYSdsVR4L7kJlsQXLfSx7n91mfHaf4sBKyzJS3uTaz9e+XpTK5XYR8jfeWG8+cE8RN0sGWmmsSyZWOV3rt37sZsybO8ccY7ysPOy1Iawo7OLG7rPXj9/A5+jZIREhwsrVCcKp4N3uTViycKAOK/qExGnjtr+JLYvWP2Fc/E3oh/Gyu952t3JQHddxsZQYjnXrPqdsmGYes2lgg4jpoHXNAYJMhx0LYKF7mybGQX/GvwhcPBNOUtJFi5xLVK6Fjd/6c2PTx3hs/AzDnkdC0sG08DyN5ZfpJSDucG26aIXHpVHDuJlH9Mv00D8Xpoe9I8T6J+60OfudRxbmfDLxx3mOmXDSEjbziTAfbPw2LVy4n+dlZhhknshitnntTPpS5ho41ugRbLrcaaIVT3eMm2liw9Bcd5YbSR+72unayYNMXZbxb9NGeA70l2sx4YpfRm/PYSR4jILN9DvXzPHPcGiVx+OyT7YJ43anxcJtXlP2MvFa8dzoPzu/6JXX3abJhufe9sl9FwoFTcOTU3ArpwfvssxZCMmAVMptbR3YL5b5ypXH1s3uDorh8OZ1F1y7TXiT2UqWBdfe7EqmcpBKga1pm0eEeWZvWPubWDfsWn/s8Sfxi9vvwNbt26VioJBbQXXccaH/kIR943XX4A+/8iVjxbCC4DFeNy7sxrPX8GjYdJHu7m40HDyIPXv24eDBRlPBsTvV6RGQCouJEaeO5QHTxV4o1gorHZ/XsdhJ9cSJmD5tqrFA3HlAbDlram7Gvv0HnPdoTWOFZYxWVuaEZcWu1unTp71D+Nwwn1sOt2L7jh0Sj3OurERNeTXWHvPMY9Izb84cE467HFvono8WGhobjSVsPiGcuZeMhSbHGS7PadrUqcOPDyz0b/JH8rJNGmRbtm51DkhcFChz3U3jyLlv2BW9cN78d6THpFm2uWZc9XId6hsaZVsE13Hg5GXGHb3NnjnLdP+6u9ndMH/Yxb5nz35pUMQzaXD8my5l2WZvxqSaGsyZPfsd5cW6I8wLvsWwe+8eaRiIhS/54zT2eN7GiQlrypTJpkzQgnWOHWm4Ef5mt/a+fQcwFIsOH2O+MC7mH0V4cu1k09PkToN7m4LPrwXu3rdveJ+Dkxju4+BMU36mTTO/3+nuCHyvu1HCikpemR4vwaRbnLO8s8EyR/K5rm7KOx6LuO9f5jPzZ8eOXSYekwrxb/OIblkf1E6aZB6vWEvbfU6E1/3AgXrz2Ijp4bcU5s+dq3XracCI3eyslA9LJceCsXr1qszeI7i92cJk97l/c+Fvd4Gz2GNujubndIV5whuaNz7zhdtsBNnn2/z62YMPP4p//ffvoLG5RXzw2TjFM9OdLX7olzc1v3x37pkr8A9/9zemonJXlm5yXZ+RsG5tBcVuzO07dmLnzt1o72g3z6PFgYmLbvnHZ4yrV12B5ZkZ5giPsUJiWNkCzGPEnSaKBH/bfVzbtDB/bKVn887EnTlu/RBaniMJGv3ST7ZQEYZhw2ZarDsbto2L2AaaO16L2x2h2NgufeYHw+fCuBgPt7MraO4fKY3EnQfcx/Qwj7nPkp0OS3bYFrq36cuO2/rJFZ7FppEwHLq36eExLu7fDIt5Q1HkdnbYdMPr7hbNXNAd05ddxnJh482FPca8daeH+91rli824Nxh2WPu30y7u4Fm15ZsP+6ykQsbX7Y/5dRjlGfmvabL9kB9Pa64/DJz47MgsNDQCxcWYGILi60sbGG0C+Fx3jz8natSsMdGKpSnK0fLFx6ncN7123vwH9//L2mAtUleS76Le1oFNq9NZSPrwsJ8XHrhBfjf/7+/NQN73NcoG16zkY65seUgO420mNlbwGfJB+oPmsFxtFqZpnBeWCqiJK4SMWcXPyvfbP+2nHHJLjMjVWJMy0juuY/nw+MWus92mwu642IrfxuGO3+4Lzu/6If7cuVjrjByke3OxpMrPgvjJbnKDctM9jkzLPqhexsmf1u37nBGSrf1nw3dM/8JGzM23QzbHR/JDtu6zcVIx0Y6v5HCeT8wXBv28YbvThO3SXYY2XnEPLaN1Fx5nY1N37G4VcY3ow+Aa+/A7j17cdklF0lrOIrOzk4zOrlTKugeqZh7eznIyXn1hYOE2CVaXlaGkpJis0yorESZ/D6WylJ5N7xxmbfu/OPNTey+Q4cO4f/+63dw7+/vN78HBoaM1et3WaTmEstSUV6KT9z8UfzNt/7cWAl8lML1SDc6/R1rBZUrrRammd1+W0TUWZ44OI5d2nyufON115oBWMdbRkYSc6aBaRktPJMfGY7mlseZB/TD83B3bxJ3/nCfdcuFabP5wv250kpGymMrStnubHh2nQvGS3JdW7f1N1oY75Vs65LYfHDntT0/NyOday6ONe3ZYZ5I3k/Y7vSPFA7ziNfQ7S5XmWWec5+93vb6018u98qpx4hi3tfXj6aWFvzmjruwe9cu83oKZw7jgCqOUjY3Z8opjByRTDjiloWJz9I4AKO0pART66Zg4fx5WLpkERbMmyfW4Lufz7kLNcn+fbrizofsbeY/3zT4t+98D48+/pS5NokUrXj2nBypKJnXdFteWoybrluDr3/ty5g4YcKwhWQrAS78TY4n721a3JVFttDaBh+7GhsaDmKTiPqhxiazb9XKyzF37ux3jcp2c7zpYnos9OPON24fb3iEfqx/5i3FivHY8G2c9pxHg+HY62PTQP82H3mc4dANt23ejpZe+qUfGw7d8rf1w2tiexXc2HNyw302LW64jxzLOVpsWkZLO7HuiE3TSH6swBG3H5LLT6405DrvE8FI6bDXeyTcaTyaW0sud9mirpw+5BRz7qLVxkEd//Mf/g9eePEFxGOsWDIVoZefynRueMICaAc2WcyrQlKgOLCJr5wUFuRjUk01li5eiHPPOhNLlixE3ZQpx1RoTzfcl8TkretG5za71de9uR6/+o3z6hl7ShJJqXz9fF+XvnhtKAiO/2nSoLrlpuvxqVs/Zt53Jbw2o934TAP9Hit0z8qFgsFtLjZcbtuyQlFpa2vHzp27zHiMhQsX4Iwzlg9bvOR44nbnjRumhfuOtVJzl2V3WPZc3PuPJX3ZbrIrXh53r5nOXOFm78uVTrrh4s5vtx/+JtnhWD/c73aT7Z/k2mfDICPdx+7rQ7f8Tbc2P3KFS0baT2yYxK5z7TsaNo73koZc0D0Xex2Yplzb2RwtfntuNnyb17nE3PrhMev2eM5BGb+MKOYUDI7y/fNv/TVeeukV2SsVo0duPllL0Rp2Z5Cf2YGYAiiF13kNyimInJCjtLgYVZXlYqFPEEt9Di684Hycf945KCwsNP7oTgvfO7F5whuUI7ifePIp/Pa+B0QQ95hXwcw7yHIBht+zlnw310P+WzB3Fj5+8024Yc21ZjQtsflrKwl7fdz7GZdbYI8F+rHiMBp0x+fnfGTDUctVVZVmv/XHtJDsdFlyVYxuP9nwGBe3n1z73PBYrvTkYrSwbFpteLnCtX7d5+Xetj0d1r/dnw3zNZdAun9bNyRXPubC+s8Ol3Cfxe3GvbbHSPbxkc55JH8jkSu8bI4WxvvFnWZuMy3ZYkuy0+H+nSs/3MftNtdc3Mez95Fsf8qpy4jd7BRzzrL07f/v7/DCCy+bgpBISkExhdMRC3o13rPKiNlPMQg6XbnGQaawmQIq27TgKitKTTf8OWeuMN2tHNXMEbyM61gKHsMbrwXUyZcjN5vFnlOu9bZt2/H7Bx/C408+g9376s0rPm6Yr877vinzutAZy5biYyLkq1etHJ5rfaSKzg3dHatbNzatxwqFhe5Pdjwkl5/3Es5IjBTW8cThduve5j3D7aOFcyxxHU96PmjGctreC+/lfN5vHpxqeagcO+8Sc/7kwm52Wubf+vb/wLPPvyAi7kecYi4Vr8e8jysC8y57XDDBSeUja74jyQYALXQj6MTjNe9i8vmu+Sm7J4plxlmfrrj0IjO70YwZ04bfw2XBZHrcrVz7/I/7x3PBdVfS3Ka48bzsOdlLw9mhNm7ajN8/8DCeePo5NBxsMo0qO+GKZKmZljWVcqYjZTadfeYZZnrWKy6/FDU1NSYcd36N97xTFEVRjuD7OyGzPQwrej5PpYg8+ujjZjIMMwUnBdyIgKiHMaZyiLnjStxArMMj3T2OP2q5013IZ+zOMb43GjWDuerrD6Kl5TDiIlAcPGe73gnd2u4ju03GmyBRtEl2uq2wuxss3G5ubsETTz6Ne373AJ5/8TUcauI75NIAkPPnZCQmPAnKmd86gcryMvP2wac/9QlccvFFqKysfFdejZQGRVEUZXwy6gA4vrP853/5Lbz62uvI40xctIbleH44D4Fg0HxIgPMrUxM44IqjlTl1IZdEnNMZxhCNcerHzChrUZ2MjJj/LfRPIaJ1yee0SxYtwE3XX4srV15uvuDlfnZrRY+4RX28QOub8Bxs2q24uhsrzEvOUPXoY0/g7nvvk4ZOI+Jm+kunP4RXzc6WxqlMOV93RVkprrziEtz2yY+b173c8ze7hdsdn6IoijL+Gf2ZuViB//WjH5vXifjeeIFYyqFwGMWyDuflIV8WjlSnKHCe4/6+fvSJv8HBAUQGI2htbzffz+Y76WbNj2/EOVWmCAr/o77Iyud3pjP0e51XpDgN4ozpU3H16lVYc81VmD1rpvkQBJOaSwDHG+5R5DwnCq29DFx3dXVj9549ePjRx/DgI4+Ldd5KW9yIuNOjIVnHTBJMI0gs9BlTp+KySy/El7/wWTNdKMO3Au5u/BC3sCuKoijjnxHF3H7KcuPGTTj77DNRVVk5PIWiWyhGgl30nHiGz935laM3N7yFjZu3mOe9HMXMeYMZBhcralzzOTs/pMB1XjiEc85cji994XM45+yzTLc74yZ0b/2MJ9gIsefLxeYBLXZa4/wMIr969MOf/AybNm01lrg4MH7pj/65mPm+BfZa1E6qxte/8iXccN0aM1XrSFNZ2vgURVGUU4t3iTlFhbsGBgbR1taGerHKOYiKWKduQci1z2K7lClCtEa3bttunv++8PLL2L233sTBj0BwWk+KNMOiUAWD7FbnoLAkwqEAFi2Yh2987Su49JKLzWh3uqXwUcjGm5gTnqdNP+E58xn5/gP1uPve3+OXt99lJoHh2AG65aA4nqe9NhKCGY/AbnQOFvzTP/o61lxz9fB83vZaMFy6tw0gC/dxGY95pyiKorybES1zzqnNZ+YNDQ3D3zOn02zRzrWPUEjcYkEx52+65de0Hn70cdONvHHTFgzFnPdoGZZdrNCx+z0Q8GFy7SR89rZb8blP34bS0pLhY1boxgvO+bzzYxv8WtKTTz2DX915Dza8vdnsYx7YEfvJ+JFeDAo5Rx5MqCw3A9xu++St5l19d35T9G1+kvGUP4qiKMrxM+IAOH41rbOzC3v37sOqVVcYIckW6KPBcNyiRf+E+ynuHLl+73334/s//Cm6enqNeNHNsDv544QofGeao7WLi4tw/rln4w//4EtYsXzZUb+MNFbh+XOhdf7qa2tx+x1348XXXsdghIMH4+Z73Ea8xS3X/F40X+dz/KWwcP4c07D5+C03G+vc9mrw2rgbODYfVcwVRVFObXK+mkYBodCYr15195jvXdv9x0O2eyNQslBcKDgc1DZ3zixMn1pnvtDW09UtYjRkhMm8m063fDYsa36UIxIZQpM0ANat22C656sqKswMYu5uZPp1Nzrs7FknEpO+rHM7HuiXE8D86td34Ne/uQNvbtiIvoGISSvD5ovjNq/423nFL4W8cBDnn3c2vvS5z+L6NdeipKTEnJt1S/jbnq97v6IoinLqMmI3Oy1zfjVt//4DuFIs8/crYCNB4eVgu1279+Cuu+/FY088JfG2i0UuB73OCG7GS4FiGuieDYGaiVXmWfq5Z5+FSy++SBoFs42lTjdW4Gjl0u1o6bZh0o11l+3+vZw7w7RptbD7m4MBH3n0Mbz0yqs4cKABHd295j37tIQvsThxUZBF0DlSXS6QhOHFvLmzsebq1eYdco7uLy8vz4SqKIqinO6MCTGn+NIqpdCx2/2hhx9FQ2MTkhInBY4T1ljBHR5UJ9v5eWFMmDgBC0Tozj/3HLNQ1O3scTbs7LTbU7b7sn8fK7n82XQSe5z7+FERznH/xFNPY/vOXWiXvOWI/rQn84qauONAQPqld65T0qLJzwvi7LPOwMc+ehPOO+ds1NRUv+urc4qiKMrpzYcq5lZsLfzN96sfe/xJY6Hv3LUH/ZEhKpsRcUfonMWdnrBY5JMmVWPhvLlmWtg5s2cZ63XSpBrzTNla6sR9uu59dtti3bndWHdut9adPWbXbJxwzMH+/fvNKP716zdi69Zt2HPgAIaiHKUufsTfO8Njr4LjNxwKmkF/l1x0PlZefhmWL1uKiooK80jBHb+iKIqifOhibsPkmnFw4RSmr72+Fo8/+RRee+NNHG7rMAPhCMWM4hyPJ8zEKc431R0xpQBWVZSjbvJk1NXVYlpdnRH1KVMmm2lN+a48rXYbp/ucss+Nx4jbrds9yT7Ghd+BP9jYiJ07d5vPfO7evdc0ShoPHkIkGuUct9IwOZLmzAZDMZ+v8fo85jwuOO8cXH7ZpbjwgvMwfdo0MwKe7u35K4qiKIrlGMR8v4j5SiMk2YL3fmGYNlwubkudk868vXETHnjoETz34iuoP9hoBsENv3Zlni87YdCa5QCxNP0zLB6VpJYUFWDmjOmYOnUqJouVPlXEvaqqCiXFxSgqLkJhQYFY7gUilPw4iSOSdrHYNHJh+riwOzyZ4nS1CTPTHT9Dyne8KeR8V3zL1u3YsWM3GiTNPd09piES8Aec2e+YdkmbiYPhyjGmla+b5YUC5pvvZ599Bm7+yE0495yzh7vUmT+Mj2v3gD9FURRFOYqYt2cs85Mj5hRmChNFiliRYlxWUBn/I48/iRdeehW79+0Tq/dQ5l3tkEh2BqZLRFF8moWfXxV1hBi5w+nmZCpFhQUoLy/DxAkTzLPnCVUTUFRUaAbOhUU0fX6/+eqYM2jOhCzBpk06Of8512ZbRJmvj7HBwdnsOru60NPbh7bWDpO+np5eST9fF8uMppfAQuEQhqJxscz9EpYIuIRtJnGTdOfnhSQ9EzB/9kzzbferr7oSU6ZMMenmwgYEcTcyFEVRFMXyoYq5tcT5ChwFlIuNxy1cfE1uz959eOjRJ/DoE09hf32DWMODRmiZeIowBZPvYzNMpjKdFiuYU6EKfE/dyHzmVO150IYn3O/MJidWb2Z+eHHkHJPwGGYylTDfCk+KVc54CdPohOVMQcv9/KCMbZSkko47Gy8tcp80GhIJSaOEGQz4UFpSZN4bv3LlZVh52SWYPXuWcUtsY4dYQbeosCuKoiiWo4r5ARHzVSdJzIk73OxXydzHKGY8/urrb+D2O+/G+rc3oaO9y4wIT2QEl+4p6hQ6TgVLrxRDiiKPmeMZEeS2FUi7n+uRETeZrXfDNLL723kNjcJuGA6OcYsb/pMllB9GSBoPtTXVuPSi83H9tVdj2bIlpvfADdPnTq87/YqiKIpiGVXMOZELLfOTKeZHwx2vtVTZdf3k08/gnnt/jw0bt6Cnpw+DYr1zLnNaz3bSFXtq7M6mMNp9ds3FCrp9R90u70J2He3sbTqPxO00LPi+OMXc40mjpCCMidVVWLFsGW668QbzXLy4uNj4UxRFUZT3wrgQc5IdN0WY3e98Rs0pUdn9/uaGt9HZ3SNHRTgzljb9ibTK9hEr3Aq4W3xHwxxnMnJn1btgHO50cwmHQ6iuqsJnPnUzLrn4YkyfPt2IuO1Gt7i71hVFURTlWBgXYu5OohViO7MaxY8jybskvfv312Ptm+vxymtvYOOWrejs7DSWMce+Mwx+C9z6J3w+7vfzvW3OaR7N7HWw52rjNqJsthzcaSJGgId3OXnllX0cMb9wwTxctXqVeV+8pLgIpaWlJl30Q3cmbZIu7vsw8lhRFEUZ34xpMWecXOxzYndSmRYKOaEo8hhHl/P1sO6ebjQ1t2Dnrt3YvWevsd456pyv2lH0OeCOXfU2fMI43OHnwuc6/2y39E/ru7SkBLW1k8y74ZyNbu7c2WZ7QlXlsCXOtFO8uc7eZrhcK4qiKMqxMuYt82yYjuy05EoXX1/r6elBT2+v+W46u+T5CllHR6c5N25zhrYOsd7ppr+/3wg83yHnR1xsHBzUZqxoWYKBgHnvm7PKFRYWyFKIIi5FRWbwWmVFOapEtMvE8jbHZD8/18ptm0bGYXsVCIWccVmr3FroiqIoinKsjAsxt0m08fM3l9FEL1d6KfDskueHTQYjgxjoHzBr/uZ+I6yy2NHvhJa0EVpZuKYQh4JBI+pmEWs8FAyZV9vy8sJG6O232K3FTWx6rVjb8C32N91/WPmsKIqijE/GfDc7cQsicacjO11H++3GfcwKby63ueLNhTu87G0ubjEnbDRwm+6ONQ5FURRFyWbM9+dakbOCmM37Eb8TLZzZ4bkF2n3MPut377Nucp2joiiKoozGmBZzipu1Yi1uAcxF9vGjubdYCzkX3H8s4biFeKR02POh29HiVBRFUZRjZcxb5haKXrawjzVGEvBs7Ij2XKi4K4qiKMfLuBFzRVEURVFyo2KuKIqiKOMcFXNFURRFGeeomCuKoijKOEfFXFEURVHGOSrmiqIoijLOUTFXFEVRlHGOirmiKIqijHNUzBVFURRlnKNiriiKoijjHBVzRVEURRnnqJgriqIoyjhHxVxRFEVRxjkq5oqiKIoyzlExVxRFUZRxjoq5oiiKooxzVMwVRVEUZZyjYq4oiqIo4xwVc0VRFEUZ56iYK4qiKMo4R8VcURRFUcY5KuaKoiiKMs5RMVcURVGUcY6KuaIoiqKMc1TMFUVRFGWco2KuKIqiKOMcFXNFURRFGeeomCuKoijKOEfFXFEURVHGOSrmiqIoijLOUTFXFEVRlHGOirmiKIqijHNUzBVFURRlnKNiriiKoijjHBVzRVEURRnnqJgriqIoyjhHxVxRFEVRxjkq5oqiKIoyzlExVxRFUZRxjoq5oiiKooxzVMwVRVEUZZyjYq4oiqIo4xwVc0VRFEUZ56iYK4qiKMo4R8VcURRFUcY5KuaKoiiKMs5RMVcURVGUcY6KuaIoiqKMc1TMFUVRFGWco2KuKIqiKOMcFXNFURRFGeeomCuKoijKOEfFXFEURVHGOSrmiqIoijLOUTFXFEVRlHGOirmiKIqijHNUzBVFURRlnKNiriiKoijjHBVzRVEURRnnqJgriqIoyjhHxVxRFEVRxjkq5oqiKIoyzlExVxRFUZRxjoq5oiiKooxzVMwVRVEUZZyjYq4oiqIo4xwVc0VRFEUZ56iYK4qiKMo4R8VcURRFUcY5KuaKoiiKMs5RMVcURVGUcY6KuaIoiqKMc1TMFUVRFGWco2KuKIqiKOMcFXNFURRFGeeomCuKoijKOEfFXFEURVHGOSOKucfjQTqd+SHwt6IoiqIoY4+jW+Yq4oqiKIoypjmGbnaXea4oiqIoypjjKGKehtrliqIoijK20QFwiqIoijLOUTFXFEVRlHGOirmiKIqijHOOIuYeHf6mKIqiKGOco1rmOgROURRFUcY2nrSQ2X4Hvb29aDzUhA1vb0RBXh6NdHg9XqTTKTnq0UlkFEVRFOU4OZb+7mAwiLPOOgtlZaXweo/Y3JRrLu59lneJuXUcjUZxqKkZjzz+FPJFzH1+H1JJOQYRc/Gh3e+KoiiKcnx4xCDOFvRs0ziVSuHqq1ejuroafr8/s9eBx0i2oOcUczpOJpNoONiIl155HZHokFHvZCopLjLRvtOboiiKoiijwgfXKXiPIuaU1+uuW2PEPBAIZPY5ftgrTo0+qpgTK+Zd3d04ePAQunt6TADcR8de2dZudkVRFEU5PmiVG8vcSui7FBhGwJcvX45wOGxEm3pLqbZyfUzd7MTtid3tiUTSePZ6VcAVRVEU5WRC/Q2FQu8QcguN6uyudzLiALhs6Mxa48foRVEURVGU44RaS0Pa5/MZ4aaAE/52a7GbYxZzwgAZGFFBVxRFUZQTD/U1V1e6JZegj9jNzufmVrgt8XjctBJytQoURVEURXn/WMOZOmyF3epyri52MqL0Zws5A+dD+RzaryiKoijKCcZtnXN7JCEnx9XNriiKoijK2GPkTnlFURRFUcYFKuaKoiiKMq4B/v/jAVW61GI0WwAAAABJRU5ErkJggg==;" parent="37" vertex="1">
                    <mxGeometry x="10" y="44.16999999999999" width="87.06" height="48.33" as="geometry"/>
                </mxCell>
                <mxCell id="24" value="" style="shape=image;verticalLabelPosition=bottom;labelBackgroundColor=#ffffff;verticalAlign=top;aspect=fixed;imageAspect=0;image=data:image/png,iVBORw0KGgoAAAANSUhEUgAAAewAAAETCAYAAAD07jWsAAAAAXNSR0IArs4c6QAAAARnQU1BAACxjwv8YQUAAAAJcEhZcwAADsMAAA7DAcdvqGQAAKLHSURBVHhe7f0HYF3HeeaNP7c39N7YeydFipJI9V4tWb3alu24O97ESTbbsvk2/+z/281ms3HWibvjKluSVWxZvVeSIsXeSZDoIDpwcXv73mcuBrpCQKpYhRDfH3h42pw5c86dM8+8Ux2ZTCbncDjA5YMml8uZxel0jh15KzxXGI5sNmvWE8NHd+Tdhnmi/2/Hu3VfyB9yraIopyb79u/HK69tQnfPMcyfMxfnnH0W6mprTVrI9MSmK5q2nJqIdjrflx+fEYnLieB9jifWZGI46Hay8HH/RGE+Xjgmu4YfgmRaxvbeCt3TL56nu7d7PkVRlPfCm2mLA+lMGqlUFlk5Zo/bdPD9Sq+Vqcm4ejJi/CGCxEj0biIS72Ut6D+EycL9bsJhMwWFFPppP5KJH0rhPbnNZyl8nncTBkVRTi0K05iJuFxus86nJ/l05ETulVMHpxUbCowVGSs8hQL0flN4vz+E98OfiddP9HMy/yeen3iNoijK8ZiYXnCbaXH+eN44yMvzm4aDdaPCferitBHBFvsS7heuPyg+aP8/TOx7VBRFeSdMFF4rxtlsRtZvTYsL0XTm1MWUBTMC2MhC4bb7GjEURVE+GGyaa7HbXq8Hfp8PXo/nLecVxRSJmw2n00SOnp4eJBKJ4zbEUhRFUf5wJjOISktLMHf2LCxbsgjTmxqNcKtoKxaHRAZiIkUsFkNHRwfq6+vh9/vhkRyeoiiK8sHC9NcKOA2mVCpl0l9fgWDzPA0pl8tl9pVTj/EicVrYjCQjIyNIp9PjFreiKIrywcL2Q1yY5lKki4qKzJrHmB7b81pNeWrzlv5MjAxut9ssdl9RFEV5f5loDNFqtl1HeY7iTGuax2hp2/NciFZZnpqMCzYjQDKZNFY2txlhFEVRlPcfawxZYS6E5yjMJyr61mLxU5PxftiMAF6v16y5r8XhiqIoHwzWIHo7YZ7MeFLr+tTF9MO2xSx58h33NQenKIrywfBOi7aZDk90q2nzqcu4Ur9pUYtgj20piqIo7z82vbXia63oiSWbFOmJQq2ln6cuhaa1oiiK8iEwsUGvtaJ5nO2I7FgYPF5YAkqxnlhErpw6qGAriqJ8RFCA7UIh7unpxc5de7Bh02bs238Ao6Oj4+4IBX2i2CunDirYiqIoHxFWiC2DQ4PYu28/Nr+xFQcOHkIkEh078yaFFrdyaqG/vKIoykeEtZi5UIip35FoFCMjYcTicYjtrVa1Mo4KtqIoykfERCGmaLtdrvwAVrK2560lPtEiV04tVLAVRVE+ZI7XcIzyTI3mbNhOWtb5w2phKwYVbEVRlA8ZWw9Ni7nQejZLNt8AbaKoq3WtqGAriqJ8SBQKNKHlbPfz6zdn7bKueJzizePW/fEsdOXjjQq2oijKh4QV3ckwVrecYz9sCjKLxAvF3cLrtaX4qYn+6oqiKB8QFFxrEU8mvsSKL6fRzKQzcLk5WIoIdzplxNsKNM9zgibl1MUhkcjEIq44F/bhw0cwe9ZMFJcU65i1iqIoHxC2WLuwPnt4eATd3d0Ih0dRXlGOpsYG+P3+8fOEAk7xZvp8PGtd+Xiigq0oivIRUCjAdptrWtEclpTzYHOx9deFxeA8r+nzqYcWiSuKonzI2Ak9rIXMtRVlinQgEDDTHdtj1h0FnYuK9amJCraiKMqHhBVcK9CFxywTzxG7Tya6V04dtEhcURTlfYRpaaHAskibjcdY1M0lnc6YOmiRXTMwSjabEyuaWw6T5nKUM4/HbSxsWts8NtG/QlFXTh1UsBVFUYSxpHBcCCcK7zslHo8jHA6jr78fgwODGB4eRnh0FNFoFNFYHPFEwkyfmW90JrIta7fLbfpdO50u+Px+BINBFBeFUCRLMBBASXExKiorUFFebs7Z4nLl1EIFW1EURZjYapv7hQ29JmIFntByHhgYMCLd3tGJ1rZ27N1/AIcON6O3tx+jo2FERchjsYRY26y/ZlevfD02/aElzXXe2nbCJ4IcCoUQCgZQXBxCfX0N5s+bh9kzZ6KxsR61NTWoqqhEaWmJqe8uTKttuFTQP36oYCuKohyHieLHfW6z0Rgt6UgkghGxpjtEpF/f8ga2bNuOzVu2yrkk4mPF3+ZS+Y9izIWYEvDxkcJhisHtvZjuMrNgi76z2bSc43Y+HI0NtZg3dy7WrjoNK5YvxcwZM1BWVmoEntY3/WIRvM0ETAy7ZeK+cvKjgq0oijIGRZJpYWHL7FgsZsSPQsjzLM6mJX3gwEEj0ps2b8GefQfQ09NnhNwh147Jct6PCYLpcOSLwe2x/PqtDc24zfSX60wmJcdo7ds6bieybGUu7spLSjFn9iysWrkCp61aicWLF2NaU6Ppu20zAfZ5LJMdU6YGKtiKoijCRCGb2NeZxd7d3cfw4suv4JHHnsCWrdvMQCe8JpXNIJcWC5oNyYwoU3zzwm33KfZyFzmQhcucz8NzLpdbtpxyzzHLWvbMtfI//wwi2jyaE8F3OVxmkhBzF0d+ZLRgwIdZs2bhogvOw5VXXIbly5aNZzIKn4lo2j41UcFWFEUZw1rYNu1ja26KXktLK5574UX85uHf4cChI5JWDiMWTxi3BhFMt1Os8PG66Ky51vqXF3AKpQinCHYukzYCbI6L+Iqkyx8tci4SDrmGVrjxX/bNDF65vFXNayjAbKBGsc4Yd3kLnEvIH0B1dSXWn3Umrr7qCqw+7TRTZM5icj6XputTFxVsRVGUSaDAHW4+gl/9+j489fTzGIlE0DcwaFp6U1Upwab4m+IqfzwylpyOi2qGwsxzRpgp6izmziGdiptjzAzICTOGOMWa22afRetj57nOi38+A2D9zpl13tJmAzZOFkJL3UwaIu6CQT/Ky8swfVojLrvkIlx+6aWYMWP6eBgnWt/KyY8KtqIoSgEs+m5pacMTTz2DRx9/Es1HWxCNxE0rbwpzRtJKCh2x4klRzhpx5rG8iMsp455dttjau6SkBKXFxSgrLUZNTRW8Yo2zNTitaQpyMpnCgGQIOjq6MDg0ZOrKk5JpoHjzHi5ZmImg3xRrh1jTGabeY2FghiGTErdixUueQG6et9CLi4tQVVmGBfPm4sILzpPlfMyaOdOEXZlaqGAriqIITANZR71h02Y888wL2PD6FrS2txsxdYk1yvplGsDZsaLsfHH3mMUrIp23cmHEs6y0FI0NDSKM0zBrxgw0NTWiprrK9KdmH+qiUNC4c0oaa63mrPh/tLUVW97Yhs7OLoTETVlZmWmNfvRoK1ra2tDb24vR0QhSmZSpL8+ZzEE+/MZClyDS6s5ImM0x+TNiLta5P+BDQ30tVp+2Euefdy7OXLvWWNzK1EEFW1GUjw1jydk7sh5tozKu2Xhsy5ateO6Fl7Bl2w4cbm5F38CAEWRi6oeN25TZphSaRl9iyvJeLF6uranG4oXzZVkgFnQNGurqUFdXi6qqSjPgCbtd5YvA3xo+hpn7XB88dAivvLoBXV1dmDF9OpYvX2ZafB87dkyWHgwODqK9sxNHW1qw+8A+dEkGIxpLiCf0M188zlcw9hoo17IjzyCL6LZ5XvbrnjF9GlauWIb1Z56BM0S4maEg77aI3IZd+XBQwVYUZcozloy9hcmExDYiI7aeeN++/Xj+hZfx9HMvYMeuvRgeCYtwyXmxSl1ul7mG7ugd65FdFG/arnKAxc2cAnPp4kWma9WC+fNM+knLmH2iKX4TRdBa1BPDx/AcOnQYr7yWF2z6tW7dWagX4adbPiOt7X7JSLS3d+DwkWbs2b8fu/bsMXXtPT0DSKVoWdNfupcVF9nNHxlr9GYOQsIXwLw5M3HOWWfimmuuwrKlS02afzzB5v1tmO0zFR5TPnhUsBVFmfJYATHF15JuWYEjhSLDhYJNd7RW94pYP/bE03ji6efR1t6ZFyCnpHtyCYu4eW0qlTTXGx2TY6GAXyzmMkxrasJ8EdXTRKhPP32NGcyE9y7MFNA/G7ZCYeMx7hceo2AfPHjQWNidItgc2eycc9ajrrZ2XER5HeF19JuW987du7F561bs2r0Pba1taO/qlrR8VM7n3bCOnBmM/IX5Insez+UycIuAl5eEcMH55+LC887H6tWrMF0sexbbE/M+xsJYuG0zO3ZRPhxUsBVFmfJYUWSDMYolRcSK25sCle+uRTe7du/Bqxs24hmxqrft2I2h4TCcLrmOF8i1Lle+ZTaLxK0/HrG2G+uqMH/OHCxbttR0l1qxfDkaGurNefpvhbUQHn8nosb7HG5uxqZNr5s67DlzZuPs9etRU1M95uJNoSy8D/0fHR01xeTbd+zEptc3yzPtQtexXgwNjcg1WbOYa1g6IGvjj/x5PexSlgEN7+qqalxx2SW45OKLxNpegsrKyvFwF4bfPk/h+1U+HFSwFUWZ8owlY0ZIuF0obNynuHCfwsbi4//7ne/jcbGsYyLeTie7N+UF3S1pHhtzpcWqZl01Z82ipV1WVoK66ipcccnFuPiiC7Fk8WIUFxebexLej0uhZcplMjHjcYbFYve57unpRbOINq3/6upqY8GXlpaOuXwr9pnstdxnms1nfPGll/HwI49i+86d6O0bQDgckQyIZD7kOrox7k0Tc14DBLwsdcggkUzgjLWn49Ybb8C6s85EY2ODqUO39+HC5+RzcZtMfB7lg0MFW1GUjwW0nCmYXFNAaGkbYRqzBLu6uvHaxk341X2/wYZNW/IDn8hxl9sjIpTvApVvUGYMURFrDjKSE8EsxgXnnItPXHUlzjrjDNM9i1i/C8WLYjZZujmWzI67s9dNxmT+Wuxxupl4jvcmVpA5zvkzzz2P31G4d+3C4FAYo5GomS2MLcr5fniNGeo0/eYgL/S/prICF114Pm64/lqsXrXK1MfzPIdoJRPvrXw4qGArijLlKaw3towlbUZo9u/fj+9874f47WNPYpj1u+ZMgVhzJ5cXLLfbZYqKOfDI6atX4k++9lUjWlasCN1Z0Srcfq/QD2u5Fgo5j9FvHrNiTbhNCt0SHreZhsJzLP6/9/4H8PzLr6CruweJBDM1PJO3zrn2+bxIiYVthJzVAeLPvLmzceftt+KmG69HdVWV8ZMN3zhDGOF7571UwD8cVLAVRfnYwIFFbB024cQdr776Gr7/gx+KWG1AIpWRtE4E0AwR6sgPASopINe8ROTLWJzz5s7C17/0R7jpk580/jF9LEwPx5JNcx9u2wFNfD6fETEef7v0s9CPE0F31nq2mRLeg+JpRZluCv2hcHOfCwdgYVgotI89+RR+8ot7sPmNrUa0RfLhkHeRTY+5l+fnn2lwJ398F8WhEM5Zdxa++qUv4Iwz1hr/bXh4XxXsDw8VbEVRPlZYS7WlpQUPPvSQLL9FS1sHRiJxSedE9Lw+k95R1Jj4GStW3LtlmTmjCZdfcoFpfHXaihWm/naiUI8lmYZCK5bw3PGE80RYPye6m+x4oVU70X/u2zBN3KYbZmCOHD2Kl155FY88/gQ2bnrDjJqWFPEufE7jN9+jeMvtomAASxYtxI03XIdPXH216VtuKbyP8sGigq0oykkN0yYrSMeDbigcTLO43rBxE37xq1/jRRGmnt5+JJNpY0WLOhnLkf7l54vOIpVOIhDw4bz163ET62xXrzJdqSjW5IMQJFtsbRlLht/2OUnhs74XWBrARm0HDx7C088+hwd++wiOtLTlrXd5PxIIeD1epDNpyRywSD6fMfF5PfJeanDWGafjz/7kj800nqb4XJ6FYWJ43kn4lfeOCraiKFMCipQVTy5MsygQhWtakI88+jjuf/BhbNm2HQODw2JFj7UWz1KwxSNxxz7InCiD69kzp+PiC883VvWK5cvGG5WR91uoLTbMx2Oy87bkoPCZ3wmFbrltYRE5B2jZuWsPvvvDH2Hzlm3ijl3jUuadyY55XbIhlnb+nuy3XSPW9emSqbn91ptw7jnrxjM2PD/xfb2bcCpvj+uvhbFtU9cxODhkZnhhXcwHFVkVRVHeDRTqQkGwQmDFi+zffwD3/eZBMwXm9p27RaxH5Cjrq9lqmvojwiEbHO2L3bU4Ytk568/Ep++6DddcfSUWLVww3lXLZgwKhe6DEJ9C/+g/7zvxmN3n2m6/m7DQnXVfeA1LGNhlrLGh3hhpDfV1GBoawkiYg67wzeUzLBwn3cVZxuR9pVNpM5pae1s7mo8cRTQSQX19vRn33L4v3osU3u/dhFc5PirYiqKc9Fghm5gm2QZeLN793g9+hN89+iQONYuQcHxtwc6cRQXKTzvJ1uQu1NVV45qrLsftt9yEC88/D42N+eLd/DV5YbH3suJN3k/RmUzEeC9a0lyT46XBvO7dhGWiiHLhMS7sCsdR2+bNm4va6mpjedvZwtg/nbOE2RbyzOjweCqZRGdXN9o7OhGLxoxmlJaWmHdo/SVv9xzKu0MFW1GUkx4KANMjK1JWcFiNx5G97vn1ffjt7x9HZ3ePqa/meScnw6BwyD9eK9INv9+NxQsW4Pprr8Ydt91ixv/mpByEbq2Y2ftYJjv2h0C/7P0s3B4aHkZrWxvaxIKNiXCGgsFxsSzkvYTFvAth4rW26pNVAQsXzEdlRTkdix7EjRinJFNEjHi7nEhLhoJQnPv7B9HS2obRyCjcIuacpYx9tgs53n2Vd48KtqIoUwYrcrTcjvX04OlnnsOPf/oL/P7xp0TgUuY49cElYm2s60zesva4nSgvK8bpa1YZob791ptRW1trRIf+TRQVu54oqu839lnsPSjUm7e8gd279yGTzkgYa0yGguGwGZb3Ep7jXWPTeOs3xXvatCbMnTPbjJceF8EeGBxEPBY351kcznfmEaucVQ1slMbpPg8faTGziXm8HnnPZWZSFNsIjX7b8Ct/GCrYiqKc1FjRtAuLwTs6O/HYE0/h77/1bezedxBmvGwRPpfLA3EltjSLZfNCmG8oVY6LLjwXX/zcZ3HF5ZcZq5WCYoWa0O3EfS7EhuH9xAo1n8eKWk9vH5pF/Pr6BlBaVmrmq6aVbVuVF4r7O4XXEPs8XOxz2m3rJ91yqamuNnX61ALWU4fDYURjMXDObhaR05qmWJuB4SRjlEgm0dbRiZaWNhPW6uoqlEn4Cf23Vrzyh6GCrSjKSU2h0LAV+OHDzXj4kd/jBz/+Gdo7u41gpEVI2Cgqf4EkbEYAswj6fZgzaxouvfgCfP0rX8LSpUuNEytYTOMoUNznduG9LIXn3y/Ytaqvvx/RaNTUGbP4m6LY2X3MiHZSzhcVFRnRtu4jYu2Gw6MMvMlwFIbxRNihWgvDb6+d+Ky8jy2CpyXNem2OZ55Op9DRLmIsmQv2z44n8+5c4oYCTfFmUXlPXx+OtLSY4nQ2YgsGAubdTVasr7x7tFuXoihTAgrPq69twPd/9K948tkXkMuKdTpmPTqdHPdbhFsEh121KEF+MTrOOmMNPvvpO82EHex+RPEtFC5at7bothC6I++nSBfC1tgbN29Gc0urKR3w+LzyPFnJkCRM8TNFkUYTi8PNqGxCLBYxArl21Soz/7ate387Jj7zZEx0Q+HmvtWAfslcPPf8S/jeD3+MgwePYGB4GB4O6yrXmRnNcmMZHTp2ZFFRXop1Z5yOT995G84/71xzjhkA5Q9DLWxFUU4KaDRQKAoNBQqq5Zlnn8c/fvs7ePaFV0QAXHB7vaaIVnbkbM64zY/MJQuyOP+cdfjal7+ISy+5eNzCmyjMTOMmHiNGfCY5/n7B+7KOessbW02pAUV6mFNhyjGXwwm3y2Maew2LEUULfDQSNgZViVjd565fZ7qfvdPwvRN3E93wNyhM/9mQbO7c2Vi5Yjl6e3uwf9/B8VIMY/ExzCLILOXIyjHO+tXR0YFtO3dgxbJlZgpS/r6Ffo7ZigZuf5Dv++OCCraiKCcFTLDtQouP4k0RoGD96F9/hn/+zo+wk42xsjkzapkRc0nj81NgioUo0sHZtoqDftx1+6346pe/gNNWrTwpLTs+Y1FRCJ1dXYhGYuYYB3Jhn+f8O5C1HDMZCnkmrgOSJp991pmmUZgRR3H3YUIRpzawiDwsGYgDBw6b/tkSOOTGxh6XQOXDL3+pZBphyWRwLPempgbMmjnT+MHfNf+Mb4Z/opgrk6OCrSjKSQMTcZt4czl06DC+/S/fw/0P/g5HWtrlvBMet8sM4MHknvNXp1JJiILD7/VgzuwZ+MbXvoKbb/wkZs2aNV4MfrJZcAwPxcvv86KlrV2s6XwxPnMgtDtppTK8LnnWjIhhNpPGzBnTcc76s8ZHFvswn4f11FzYZ5v6cPrq0+T9zkDzkWZTCsAqCXkkU6xvMhsSNC5sjBaORE3xf29PrxmPvLB0gH7y99Hi8neGCraiKCcFTLiZkHOhoL3xxlb8wz9+G888/zJ6+wZNETETeFpoLIoVeZA0iuNeM7HPYt3aNfjG17+Ciy44H3V1deMiYMXhwxS4t8OGpUTEa3BwAP39A0aoCzMWZsYsbsoxr9eNtSKS06dNe8t7+jAozPCwVIOizZHNpjU1mgFXOOoZ6+T52+TkdyD5kOXHa+fvNTIyiqNHW03maubMGWaENeNC/LQ682E9z1RGBVtRlI8UigFFgekNE+1IJGJmk/rWt7+Ll17bhP7BYZPos4ETrU2m6yyKdTrFSpVtn9dlxgH//Gc/jfXrzpL0q9xYr/T3ZLfgKGjBQNCM6c0Zs0w9vLwHhpfWKkWbLd1ni8itWb3KpMt8rg87bbbCWrhmvTb7iU+f1mTec29vr2n1ThhG4nSxuiK/zUFY2ju7jLuqygpUVVWZ34l+2d/qw36uqYYKtqIoJw3sX33/bx7Gz+75NTZt3oqwJPKEab5DkiPW51KwWRTulv3amircetMNuP3WW7BmzWrTcrrQIrTLyZiWWaFimFlP33OsZ1yw+ZwUbJYkcLjQtfJs9fV1H8mzFL5HG2YTRtmmTrBOffr0JhN2DmYzGomKEOfDmOXANfJbiWNRcQfC4Qja2jvQI+5KS4rNM5nMydjvpZpzYlSwFUX5SGFCTQuak0n89vePiVjfi1179yMpAiDpuDnPgTq4Nom6pP0BnxdzZ8/EzTd8EnfdeTsWLlxoEn6eZ+Jv/WUaxsUKwslKUagIHR2diCfiyEhYTbG3PCiLnufNnYNlS5eMPz/5qJ7HhGssHNYiZikBqyDq6mrkN3BhYGAAQ8Mj4sYpIp53YyYPcXDgl4wpSejs6hStGUQw4BdruxKBQMBY28qJUcFWFOUjg8LDhHvzG1vxwG9/hwcfeRSHm1tMY6tUMj9mNVuE00pjYs/WyJXlpVi9agVuuuE63HLzjWa2qELx4rYV6UJhK3TzUWPDxYUiyOJlFicPDg8jGo+ZRmfMgDSKBXrayhUmTaYFWyhqH+bzMLwWqwuF4s3zHB1txvTp8iwBDMtz9A0MGsHOiWXtsNeIO7Y7SKaTpttXd88xBPwBEfvad9yv/FRGBVtRlD+YQmEkE/cnYs+zPvO5F17CT+/5FR76/RPoOtYDSlKW4sTW4Nm0ES8OLiJqbSamOPvM0/GpO2/DVVdeMd54iVjhsNt24bGTLS2z4eLaZi5oZfb195lW1xTnYhEwDpDCIUJ53j6Hve7DZLL3yG0bDnueE4jMnzfXWM1dXd0YHGD7A46CxtISFpdw0Ni0/K4ppORYt/z+nPHL7/WZkdE4upvlo3jOkx0VbEVR3hM2QeW60NriNo8Vph/2mE2AWWfLySKeeuY5Eet78fLGzUikUuCcWvnRwLNweRxIpONyIw6T6UFDTQ0uu+gC3P2pO3HO2etNa2V7f2Lvb+9BCvcL7z+RE537oOA74Tuya1qmbEXNEod4LIoZTU1iXa801jex1vXEcBY+v8UeI5M912TPy2Mneg88zrDa7YnYY/npOhsxY1oTjnX3oK9vEMmk/LYMviP/u7K4ny0G05kcusXNkaOtRrQbG+uNaL/dvU5VVLAVRXlPsN7ZtvItTGCZbhSmHazrtO4Ixfro0Rb89Bf3mPrqnfv2Iy0Jut/jNWu2MGOCHolGUCRWpk8S8ukN9bjl+utErO/AihXL3+Kfvf/bcSI37+T69xu+I74bC/c50cfw0LARrwUL5psRwmwL9+OFcbLnLzw28dxkAk+O574QnpvMv8Jruc9nYWO0lSuXmTHTm1tazDCybm++9T7Pm9bj8s/t9IjuhLF9+04R9ripr2cmhW7oH99R4T0n3v9UQscSVxTlPVMo0oWMJSvjiat1x6JeDsf5d//wT9j4+uuIigXN4m531omAw4sUx9UuCmIkEkFpcRFiYmlOa6zDX/2HP8elF1+MQCA/aAjvx4Tcitk7gWGy4SITw/xRYDMzXFuBOnLkiBhPSTSJlUprs/BdFgr8yZY+F75bhpX7HP+d1vW//69/g0efesbU0SOdEuHJlyrwEtk0os0x04NFAVx5+UX4H//tr82zM1PI3zjv9q1x6lRELWxFUd4zNmG2iSgFmeJsxcfCbS7ssvW3/+MfsP/AQcQlvckga+qpcyJEfrdY2LIejcbgCYQQFW1ac/pq/M1/+Q84/5z1psiYWKHifQsTclJ4z4nYMNilEIb5RNd+EPCe9llsWstnYb08p6dkGmyP2fNc2+V4FP4efyj23Z7IP7qxGQ7COGAzU/b5Lr/4AlNycPDgYdMS3ueRjJcItXkHTreZSIT13KlMCkdbW9HS1oY1q1aaUdFsZo/+f9i/0cmGCraiKO+JQqvQwv3CdIPnmIC3SgL8n/7qb/CTn9yDnmO9YjknkREtSIq1xTpNf8iHeCYhKZIDQW8RIkngP/35H+NPvnQ3li6cL+mRd9xvJuAUCWuZcs37/CGJ+YctBIVCWFi1wHfFdeE7fLcC/H4+C/16O/9seK1bPgv3C5+R9dqrli9FiWS6jjYfNa3IzfCr/KP/4tYj12XjCWRTGbQcbRfhbsOc2bNQWVnxrkpSPs6oYCuK8p6w6QNFhonzxESaC+d4fvrZ5/A3////hc1btmKwf9gUkWZYJOqWRN7JVsNAKpsRi1oyAKESVFfW4pt/8e9wxZWXIA4Xdrd3Y3dbJ/Z1HkPX0AjCsQSiHBVM3LPeW1L78aLiwjTr7YTu3Qrh+4l9P5NtW6vUYs8VvttCjne8ELqxCzmR2/cK/S70l9s8ZsWW/bXnzJmF2ppqtLS0YVAsboc8azqdz4CZLl9mVDTJlMkxth7v6OpGfX2t6R1Afz6IcE8ltA5bUZT3jEloxeItFEomqqy7PHL0KJ548mk8+NDvsG//YTMWOOsqM0gj68gY0eZAG5z2Ip6WhD1YjBlLV2DN2evRMG0mutNODCSzCCfjSItbuvNyKE+PG5SAIhH8Wr8HoVQCRT43imS7IhREqVhxdikO+OW4DwGvG/6xVuUnE4Xvjhkfbhe+y+PB6/gs7+R5+BulJEPDgWjYXiAl16ZlzW3z+8lifaEY5CVdZFP8Zp9pt4THK7+TVwTTx3c/iS6Mych4xonaYZ/NhpFuuN3b24fHHn8av7r3fmzbvsv0DuAkqjznduSnHXXJNv0IlQRx9rozcedtN2H9WWec8n21VbAVRfmDsAmxXXOkK06p+LvfP4qt23bgqFhT2bQkxl4PkhkRa0menaK4nCoi56Bge+EpqUTdgqWoXbwEyfo6DDm9CCccGIqIWDsk4RdLmsKSlxYRATZOEzEpDgXgyYml7XJANBtFHpesnQi43AiKwJT4PCgVsS7PpVCSjKDU50VFcZFZSkTcORUnBd0nGQGOnsYMwYeJfWfkeCI8lkQbKLrReNIIcCyRELFLIp5ImmOj8XzJQ0S2I5JhiqXEjYifu7wSHOB1JJFCSt6f5I2QoIBnaHHLibF2bNzMyr1FxkVoRXS5SFC88p9fjhfLukiOOcMj8p7dKJXMUEVRSDJFPpQXh8z7LJJjQZ9PtCOf6aBgT4wffM6+vn688tomycw9glc2bETf8LDJwHkkYrg4Uaq4kdDAyXuK32euPR233vhJnH/u2W/pe3+qoYKtKKcYY5/8W4RhsmPvBl7PhJjdtZ5+9lk88ugTRqw5FjinXvS6vGZ0q7QIp8vtECsqi6zLg1wgBE95LcrmLESxLNmKGhwRoUmIQAc9vvxkEgyTm72z86LC8bUdIji0/FzBIBKJuAkDGzE5zcAcQv5xxI2IjYhLiTOLUpGrMhGSUhEUCnlQxDkkYl4qljmFvpRCL+LvlkxFUDIXIb+Ewe+XtU9EyG+m73TL9S65r0cyAywdMGEYO5afyzovUpNh3xEzHpzIhN2aWKxvrd9UKo2YCG0imRLhTSBiiv4TGI3FEaW4+uVZJYMzkhDRFvcxWeKyJESUE/LO4rKOy3uNyjoi7qPif0QyNllJx2Oyn5R3ksqJYMr7EymUheJJtR57WQYKrGQa5BHkVZphYPkO3XKNX9wVeeU5xSIukfdWLO+rVN5bMbfNe/SiMuhFuYgs33NNaRFqy0pRXVaCMskgEZsp4bsYHY1gw8bX8ZNf/hpPPP1c/t3I83qZsZNt/pKs+6bVHvIFRbRX47ZbbsCll1z4b1rPnyqoYCvKKQa/dS42obMJqN0mheeJPU8mc9PZ2YU9e/fhxVdewVPPPI8Dh5qRFsEQW82c94hIZ7NpsaIy+XrLjEvEthT++kaE5i6Ca9osjMh+1O0zDdIQDCCXYZceFq1K+OiXuRUTfC4SHtZ3cjYoESsOXZqjO4ZJEntxIOdkRfHkdWNC4ZJreCnJP1JOrGunsdBD4jYk/gTkniER+aDPZYrfi0SMSmiBi0B5xC9anMYil8Uj13hEnDw8Js/olfOZ/l4JgwihLCJ9cg9arRI2EVyEihCXMCTkvqKlRmwjFGpmUkSYaBHHZD8umYZREe4RsZpHRZQjCVYkuDAqVnIy6zTimxQ/KGt8MeYussk13zrfe5aZFzlGqznHhY9rXAjmZfICvisWSI+Rk/eVkxdn/JQ/485hMkLGfV7m5ZC8R7Ofk1DxGMU9i6BYyGWSyakTa7s+5EeDz4155UFUpWKoFQHPi3cIpWKZ+0SMw+FRvPjqBvz01/djx5btGOrtFoFOIS0Zopxk9FySQbHBLPIHcNYZq3Hnnbdg/fozzahqhUXuNjNg9z+OqGAryinK2Kc/nsDZfcLtQkuR+1wKE0QmkLSADxw8hOdffBnPvvAidu3ZhxGxnCSJN3pKoWACLJom2uoUoRahcopFWzcNpU2z4aqfjkRdI0bE0h4QYWLRd070g0JLS9rl9cm+XCNClhNBhFjoFAaHWHYQYcvK4hD/HA5PXhTlGlH6fDjFPR+BFhqFJ+twM0B8GBN+Qskzz0P3Y3+yI8fFjXnMMbd8H7xOMh20Oj1iBXpFnFjnKlptrFCXO4uACJmfYYzHwE5ZLt5P3CXkfaTcXrOE0ykkzPPBDCZCsZbHMwJOvbRiaERS/DXvXiznvHiSvHU8pqV5GFwG1TwbF57gmuT3zTOZ4/KU9hTfpcvIfh7xNJfNvyfzLuSEuYKb9Dt/E3PdmyclvCKuWdaJy+8rNrgpETFimkqgIehDuWQK5hUHsLS2HNVBD6ZJzmdmdTnqKitM6/CdEm/u/c1DePrJJ9Hd0YGMZMTc8tunJYPCSUS8ss8O236fB6vXLMfNN16Piy+8ANXV1RKAPLbPto2fH0dUsBVFMVCAmQ4wwTtesS6hOzYq6+8fwMbXN+P+Bx/GqxtfR1iEmiLNOZCZltMdE1mm9uy6NSLiXlZchWB1A2qXr4Jn1nz0+UvQmcghItaok+apXJOReztTbJDm5S6cslBSXHI+K2LIftsOsXypchQItz+EtJicrPdkWs3iXDhY1CtXsY+3HORMUchylC1aZEzyTLJn/DXibpQnf9TokmzxFXDNfyxGNufFbY5CxOLvsWvyF8n9ZFfuYKzuVCyGYrGos/IclLCcvJOUuEuJ04yInVNEUhJfc3lGniGvvoIItAmfyWSIn8zpCDm5X5aqLlC4GeYccwpjl5kwcMXfL7/JHfmPT5Bfv3lCrh9zb47ljdix/3jOvMBxP+mWzuhdjuIsby3vgfhs1nJNPndmrHkX93lOniVLYZfMhk8EHIkMiiRDls4mMaciiLX1pVjfUIkFJUE0iNUdi8fxd//n/5qGit09/Wa0N1NaIjfmoCrZbP639/rdWLRgHr7y+c/jmiuvHC8eZ3wrtLg/jqhgK8opDL97Lm8n0DYRZNdPTtjR0tqG5158CT//5b3oGxwy5yhiTM7z9bNiHcsltK5DxcUi1glU1DWhcdpM1C1ZimhNIw6kPejiSKQuj4gYE3kRJAqWJMpsJZwJx1FfUoSKABsisdg2Y1qaR8XvjFh00YxDLFeX6IBY7hQMyoQ8C4ujs2KmO8UKZ+ku67spJhmKNe0/86h8bv7PcIvIyH3lpIQ9L2/5k7IYgRrb50rccsk7om/8P/8O804oeLIhOuMVweaMY2YITl5Dv/l8ktfgs4iScWPMrzHEHf0jFD+zTdNbhE48M8epkUyb8w3EaGubEDIU+Svlv7eE2fxPr/PuxjGPIU9gXoi4GrvOFoOPX2hO5XcYHiMLRqgZND6HA/yFsvL7m99Rfh9WZ/AZnUG/mcjFkeQgMbKdlO2ACDEzI5J9KffksKYsgKtnNWBNfSWSEpe+c8/9eOXV19Hd2gqfPEPQ60Y0HhbfxD/JqLGFOy3txXPn4S+/+SdYd2a+9Ti7jZnff+JzfoxQwVaUU5jJEjgeK7RWuJ+WRJeNhPYfOICHf/d7PPDwI2aMaAfrkJlA8xpJSSjaRuBFA2hoO8U8jollFSiux/U33oDalSvxXF8UzfE0+iURT2d5b7mPpDUuscIymTQCzgyCgQCC8RjOKPfiE0tmoKE0ZIq2KfxdQxG0DI6gI5LCoCeEFhH23kTatH7OiVXOlt7ZdMqICVtRJ2XNItacPAN1iA3ELPmW53nGNEigR/kd/s8Q5vdEZGip8wAfVtwYwR57f2ysJdJqWrAbR2PHHWxcx8wM72WuEfFiAYFkTOgz9THv8s37UfTz95Q9I9hsdEd/eVyO0drmS+ZSeHWhR4Lxiw8mG+yiNc7YflZuPpYlMf+z2N9Y8LJtahfkP5MtkeMmIybHWTduX5a50jynZI4YFhbdyy4n+sik43JM/JOcG4+xqsMvuZWkM18/LTFHjqfhEzd+sbqDIvKfXDoPlzVW49knnsW//vQepEYGkROxZjdAt0+ukHukJD45JCfmc3oxraEG3/jaF/DJ6642ddofZ7EmKtiKopjvn4JYOKKUFW1a1dt37sIDD/0Wjz3xNNra241FaxNHphO8ngNgMGU26QbFwCV+ej1YMG8x/uM3voFhXzH+9/ZmNKdEdMRizCTiRveoXg4j3A74xHJyO8SC7mnHt65ch+uXzkFRMGDCMbEUgOFjAy02zhqMJ9EZloxA3zCODoygXZaeeArdsRS65BxbV9PSTTK5GxMbt4SVd2UY2DwsxXdgzlOg6IJn83LGRzV78h+dmEZwZoPueJ4OjEuxoOV55B1k4/mZxuSF5C8y5+m3vCeTtBr5M07MKSG/nbfc+bx8LVl5Pp7x87cR1Qv5vEjLM7E6oLBonlJuxFQwZQlyT45Jzrpwr9sJn4TD42F/6vzCUgW6M92oxG0+9IJ4YX5Peb8sceBvzaxFQjIObCTHFtx56TZO5Z1ICFzsducy53kNWGXBR80kTB7HvFNTpC93MPkeyYCwmFvCR1/cAa/8LHIinURTMIhPzazGzg2v4tl770MiMmQaLaaScT6VZMgC4lasecnwyWMgKHHmr/7zN3HzTdcb0f44o4KtKIppsMMiRZIWS5TC3XzkqKmjfmXDJryxdTtaWlpN9yOKD60tCrzf7zMjl/FaCiL9MWmyiE3VtCZcd+21WHXGmdgZzuKXezvQ5/CJWHvEOkqa0c2yVCY2HJME3RuUNCcRw2UNJfjyyrlY3VAtlrbfpEM2c2AzERamWwwH4bm0EYx8MTSPxkRkhkTcBiMxhBMpWRIYiEQxEI2YFtjDcm5YrPMhyUT0y6NxGck4McKW2BRE47PglBOywwZVrAc3QpVPOg10Z8NIS94Ux8t5Np6juJljFBt5r3x3+Rb0+etZ/G/emWggxY+GsCmpkPPObMpYoOWS+akTUXOODqKxtBQBeQXlfj+KRLzZbS0gGSN2ReM6xLW8Y7+oGY+xTp0C7ZOFbhkGtmzPd0V7M9NCGGYeI3nBzsp7YLcz9tvOIC6/VURElu9xKBaXJYFReYfHhmPoGo7imLz0NslldLJVuyi18Z1+pxPIyGYw5EcsnMhnNuSmbhFul7wrzo1tfluvFx65oCg5gtpcDInWZnRtfR2Rzg745f4i1fnR0CTsbEvA0fKSEuemNdThG1/5I1x79eVvaYj2cUMFW1FOQZg4UmDGRYbiItv9/f3YsXMnnn3+ZWzdsVus6Q4MSboQF3FLiTCPJRbmGrb6TqVTktiLGEnCy8ZmLLL0FxXjvPVn4c7bboa7ph7f3rwP2yI5DIiWJ+Ic+5uml/jF1mQiRiyUpQTX+Nz45Iwa/PHpi9BQEjLF4oWMJVX/Jswngs9JQWd/Z4o5G49xzYkmONIXz+Xr3MUaFfM5KuEPpzKmrzMtd1rwFPWheMzsD4nFHkuLpSnXRGXNvs9R8Scl17NIPi3PYjILkmkw75clDbLN52NLcp+ImFsE38MMCvflXZT43QiJaFFoS0WUSwM+lEpGqFjeh1/clMkx9nsOUmSTCSO+FEIjuLLk+4Fz/O7878l0m+fM/c1CfaM40709lq/q4NpY8vI8hMcmZoi48Dyfi++P++bdyXPlM0jy/PKeKJzs790vy1ER7129I9jVN4pDIzF0jEaR8TC+yO/vFGtc3PDnl5CaDA0bp2VZ7CB+S24CfshzpuMoTkaRbD2Cod07kRLR9kmGzi/3Y0+BNKORPA9jD8PcUFGJz33qFtx043WYPn3a2BN8vFDBVpT3AX4/TPw+Cibe21gqBYluIXRr3XOhNT0s3/3Ro0fNtJdbtryBw2JZt3X3YjgcMV11Miy2lMTabeqYaYG5jdCmHWkkMmItiWC7RWBcvhCWLl2Gyy66GIuXLsExsbSe7BnBS91DGIglJT1hMajXNALL0Qp2SWIrwfa7spgbcOGa6TX49KqFmFNTZcL4Yac/VtyNBWxEPb9YMTLb8r7MO5Hw0R2XnITTEyoSKzF/nMXClL/x9yzbXERbRJJEIMWdS/yhhcniardkfDggC/uce8QC5qAsrIfnmsLL4xRkCjN/148qnr0T+A4TySQiYn1z1rWh0Rh6JGNzNBzDq5392DMUx4H+UcQcXhOnzCLPxPIQ1nfzfXJEvJxY7nwvznQMgVQc2WOdiBw4gNTRg/CFh0w7B/YYYBuKVE4s9GRaMjQuzGisw2fvvgM3XH8tGhsbxsNUmCk53rcxFVDBVpT3EZtIFzL2iX1oCe1kYSA8ziLr/oEBtLa24cChQzhw8DC6j3Wjt28AHR3t6O3pRTgSNUNY0qLy0nJj2bIItYt1zWwwJBZiMisC7HUiLmtv0IfFCxfhkvPOwxnr1yMiFtTLbT14bTiO3cOjSIpVyaLeDBsLifhIqmyEmkH0OTI4q6oIN02vwtkz6rFgxjQTditMx3uWkw2KQV4QaPHlM0WFYad1S7hrn+/jROGz2mfnM3LNoVOHwqM4NjiEvowDLaMJbDs2hC3HRG/E+h5KpEzdu2kAKLkaDoLjzjiRkYxS1pWBz5mDRyxr90Av0kcOIbZ/N5yDPfBKhpEKlRQLm0XrznTK1NsvmD8HV191OT557TVYtGjBeNi4tkyFODUZKtiK8j5gE4XJONG5Qt6pO8vbuae1GIlEzAx8Xd3daG1rR3d3D9o6OtDW2YXOrk50dR3DyOiIqZs2giOpgZn2UPylFexzeMCpNljnSDFyel2IJcWq5m1FhGbOm4tz163D+WefhYr6OhySxPil3ghe6x5EezwlialJZODz+pEcFUvJ5xO/knCIP37JFpxdEcAds+pwyeK5qK2sGLeEbGL/bt7HRw3DSyaGeao9x/uJfXbGRbOW35aWd2tPHw70DWHbUBTPdw5gx1AEUbGUHTk3svGkmYUtm8sg7ZS44BLxz6RRlEnBMziA8L7diO7fA+/wAIJIIyXCbdoMSBxlUbtbMpWzpk/H9ddchltuvh7z5s41JUn5dhZvrQqaaqhgK8q7YOxzMRR+9DZh+kMo9OPt/OPAJVzYCjgWi4owRxGNxRCX7dHIKCKyHhwSi6Z/CL29/ejs7BGBPmYmXRgYGEYsHuPXb5Z8HWLewjGNpESwTfMzSSTdkoi6JBE1kzHIOYffLRZzFgsWLpREcRYuOudszF+0CCMizht6hvFkTxgHwhI28YuNlEy/Y3kOp1hMbrG045KYOkWoG4udWF8dwrWN5Th37kzUVFSYZy5Mc96Pd3oywOcgH4dnebcU/oYUS7vPNcdMb5f4uPFoB14eiGDnSBJ7++KIRkWYJUOX4tjzrNn2OCXOZOFmBjKVgmNgAPED+5DYuwe+0QF5sRywR6xryRSm0xKHJIPJUejmz2jEJz9xBW644TrMnDFjPDNoG1dORVSwFeVdwO+Ei02EJkuErRsuTCTeaUJNAWaRNa2B/DbXCRHkmCxx070qEo2a+lSKcjgcQXiU6zBGhsOIyDaPj4wMYTgSRv/AkIi2iHc8gXSK1rMj3yI5K2GThMu0EGbFKsVattlim0XXFGynLGYgrbF6Rq/Lg6LSEtRLwrd4ySKcfdZZWLp8KYbCUewQi/rlYyPY3B9Gr/jLwTOypr5XrCoWcbLuO5ZBMcfRTsQxr8SDa2ZV4Nq59VjSUIvQWOMyJqaF3cpI4btWTn74e5HC36zwN2Tcpq5w37qNS7w+cqwXm1u68XxvDM90SPwVcQ5HI6YKhnHRwz7Ycm1O4n5IrnUP9COyezdi+3fCGe5GgCPH0YI2Xor/Et3ZqG/urCZcfeWluP66azF/3jxz33fzTZ5sqGAryrugMPEhNtEpPEbhscLL81y4bRd2g6Jw0TpOchFxZiMnijFnnhqltRyJiNUcw6iIMFtpDw+PmIFLjvX2miJpbo+KKLP1dlruRYE0gmfsC7fp0pQRIc5JsGilmGJuCaokVaaFMv/kAjnGOkOxPCRxS4qbtCSUbo9cT9GWYx6vE6Ui1DObpmHJwsVYv349zlhzmpnKsUWs5h9sa8azzZ3IeQOmf64ZNpQDgsj7yLrzxZQMhFPCVSTHFha5cU19CLesXYKZtfnGZXx3E4V6KjIxbpyqTPZNEMZPiuXx4HdwsLsPP959FE+39eDQUETisRcpOc6Z0tifmwPhMA4H+K77+jC8eQNyzXtRxiFr0zHRLLmnxG8WjfP23K2vrcQ1V16Or335i2hsbBy729REBVtR3iFMcGyizDVFmQsTGlrBtIjZQpatiXksGs0LbkyEOCoiHJN91ikPjYj1OziAgaFhUzwdlv1kNIFEWqzpRMxMqBGPJ019H5sW2/txTenj6FOmdbIZ3tFooynKNoNoiFZmkyLEFGT5fHNOqrRcb8bW5vUijmK1uJ1v1vnlPch3SZIr5NsPobioCJ5gAHX1tVi5YgXWnXE6FsyZbVpEdyWy+OXOw/j1kWNIiVWTyMmNkvnhRGEyDhIIyQSwnRWL2dkgqM7txOJiL+6aV49LF89CZXmZeZ7JGEuSxjmeu5OFieGdyMke/g8KG2cthYJt35k9b/fpJioZ2u8/twEPHT2GncMpRNxeuCSuU7A5JC2/M0Zrn2RynZzda8dWpJsPwBUbglfiOVveO5lZpH8S7SniDTXV+Mxdt+K2m29CfX39lP1NVLAV5W2g+Jq+vGIdU6Bp1Y6Ew+jt7UNf/wB6envQ2tFupphsb+sWMR7OFwmnMkZ8aS2zxSu/JrF5TX2xpBiSkhTOLMSRnBLyf94qdkiKxHNcKNDsy0untJ4J/edQmPx66d6oozhwyZqCnGMXIw5GwfEgxcKmP5yX2qR6FGtzp3wjILbKLQoE4GVf34Af1ZUVOHf9WTjnvLOxbMkiBEW4uwZHsPHYEO7b34YtQ6MYlvcQlWfyyv1S4qeLg4kwPJLH4LOwn2zOlTNDcE7zOXFFXTn+dN0KNFWUyvuLw+fzjSfehVYX0yG+54mDuCgnN/w+yPGKm60gF64nuuVvbYvLyaOv78A/bT+CTYkMRiQ+Z9nYkSccEr9FrN0S1yr8fqDtKAY2vAx0tcETHYDfKYJuqnk4xjzbZLBrtwc1laW48ROX40//5BuoqKiYNJwnOyrYijIGvwG7WGuaAt1BIW7vwN59+7Fn3wEcOdqCrmM9pqg6Eo2IZZyflIHunbn8MJsmMZAvyyki5hTxNV1WRM2M/yyqNn/UWCtWdC/XmfPcpfJZV+IvP0U5TuHnBqd1pABziEa5RMLLMBsnRrSNvzRDRKzFkbihwNONhMftgVsE0SHrpFznCwaxcP48rF61HBedfSbOO+sMEVTOlJVFe+8gXm3txS/3tuPloTgivAEHPUly2E0RaHlOt6hyRhJG3tPNokixptl9y5WJYY6kp3++dhFuXrWEhv54msIEvtDaKhRtC9183NIgPutUFIr3C/u7F76Dyd6JPfbbzTvxD9sPYsNgDCmXlyckrvGcW+K5fGupBEoh34RkmAc3vYJs11F4E0PwS2aR30aWrc7FP5YscYiWoNeBr33l8/jSF76I8vLy/M2mECrYypTEftB2bbFCe7y4y1z8ZA2b2KCrh7NQtbQaQT4k30Hz0aPo7uGxNtMCm4JrWj6Le2NR8P5yPa1dNuBKJtLGcsyIZe3zeBGXazhFYH7SBRH/TBJpEU7enxYzL2bdLud7Li0uQSyeNhYv/ziQBMXWTF9Ia8HJY7LmRRRsSfT4R0va4xDxlUSMJeSSFIoLEWV5fjO1oVcsYDPLk1jScoZF3U11DZgxcwZmzZmNRYsXY66sF8oSEOuawt8bjWF7dy+ePNyK19oHcCyWQ1gSvzATShFndrHhQJtmaC9Tz+2R95oyI3AxUZQdzC/24dpZtbh6XgPm1VSipDg/BaL9rSZLuBXFwu/Yrp98Yze+u6sVz/XFEBFLmccc6Xxrb7dkHjPZFMrk2wwfPYTYto1wDXbDNToIn8RXt5PTeeazvQ75pjySLHhcWfzFn/w73HnHnZMOYzoxTTmZUMFWTkpo2RZ2v+BHOpkVNpGJ7igMXCiShcdZt0yB3rp1G3bv2YuDh5pxtLUVA4NDSIrgJkWA2O2E/rEInIOGsHFXvlGLfC/UKxbh0aqURIQjgHH+Zt6LopcTUQuKWGfETTaTMv1EHR6HGTM5I8rqofCx3yl1X2QuEUtK+Dz5b86INEfNyks3LWXOVkTx9vkDGI2N8sHk/XjhEouZ3aXAFtmSxvk8vnyCJuLpDgVQUVMtwjwL8+bOwvzZs03/VNbnlZWWwCfh83rFD3HLYTe3tXbh+eZWPNvWg06xZkbk1smMhDnC9yDPJO+QJQAc8Swpou6RxNBfUoJIeMTcz5FOoNqVxuUzq3HTnAasntkk9/BIJiFkEkC+G5umnMyJovLRwswzM76simL8HI1EcO+rW/Gjo4N4fUS+JxY3JfOZ5FwyBmfIJxdFUO6VjHh7M8Kvv4pMVxvkw4VDvl2PuOeoaWkRd3/Ah3QyjkrJuN5y4/X47Gc/i1nyXYzJoImT3LZpxsmGCrZyUsL4yI/n7YSa7uhmYlzlB8frrShQXHv7+rBv/wHs2rMHu/fuM3E9MjKK8EjEDOYQlQ+ZQxzygzAfxdj1/HCTCfn4mWMXYaJxSWtb/jPuKLScazkm13IyDN4xHY/B62FXlJT4kbeQXV4RNZfTZASc4l7sYBF28d8TEFFni20Wd9M/c+t8Mbr8Gdta7me6YAm0zjmUZVGoCEFJ2CrKSmUpR1VlJWpra9BQX49qEeX6xgY5XiaWc9CMy10kwukX914R0VgiiY7BEezr7MGengHsHY1j71AMvZJZ6Y2lEJdwcdYpM2WivFsz7WIqYRrUcdhM/iKSZgLuALwSWG8miXNqArhhfi3ObKxCY0UZQsGgCS9/P/5OXOxvaX9fRSnExhNbEmbjS/fAIB440Irv7mzD3kGW78hxyQhnJTObkYyig3215VsrF2vb09GM2N7dSHS0wxGNwp2OSwaZZVaS6ZW4zxIwl3zLNRXluO3mG3D7HbeJ5s0y92E6YjK8Y9/+yYYKtnJSQ+ElNtEn9mOyYs7jEz8unuvp6TVW88FDh3Hw8GFT1N3e2SVW9CAGh4YRHg7DxRbO9FbiOq1mFm/LHfL+cRG/OaxkPBZBwOuX8IglzI9eLOX8ZAouM/FDTqxsfi8R+YZKiksRGx0x0zf6Ah4RXM50xHGPxV+GV9yzRNzr8Zv6ZJfPj+LyMklUHPBIhsAf8JspJSmyAbGoWVTNovWAiG25CDCfubi4CBVyTYlYCnTLvszGvWwXhUSYJeNAwWSiNzwaQX84gh553mPDEbQPhdERS6ND8hyHRaT7JAHrkfOjFGdZJHiSoLHxmjwnZ1kS6yTH18FMi0fEW56LhQB+sX6QSuPsugqcW1+CtdVFWDqtFuWSdjCMXPg7EG4XMtlvpiiMF7SwaVkzztDKtpZuuxHtDvxgWzsOh5NIizhzwBRfKIh4KgmXWNOcQKUiHYWrswXxQwcRbjmCzFAfguJFPB6FQ76LhGSsffxexc9pjTW48fprcfONN2DunDnjaczJqn0q2MpJCeMjE3SuufDjHYuq42uen5joDw0NYY9Yz9u278SeffuNQHPs7N7+PiPSrIs2DbIotuLemR2L42K9muJnUSvJjJu4z32TKZB93kbsY0TFcmZ3Jza2YijYMpo5d14flMQgPjQi/jpQEiwyczsXlRbBXyQiWhySb6oEJSKm5SVlYu0Wi5j74RVRLS4rMYLLhRM+mEWsWJ8kWrSGvR6vsezZuCskiRPDRiuXouwRwadJzwknaDWPxuMYjsTQPTiEbgnLMRHpUckY9CZSGEzmZMliSAz5gURattOIZfMZH3bDSicTkosQq1oezEnLX+7nkJfBvtWmC5k8K+d59kkmhTMpnV1fjsumVWNRsRfz6mtQK1Y1w03/GEb7+xH7OxX+nooyGawOY/xgHKKlzfhC0Wa8Otzdh/v3teMHu1vQLxE/LBa0T+Kc6Z3NaCwZ46Ajg3LJaBb3HzMjonXt2WWKzB0SZ53ilhO4mLgtUdPjcWDatDpcdtGFuOn6T2LFsuUmrk5MV04WVLCVkxLGx4kfTeExu82PmH2g2zs6sFeEeteevUawDxxqRkdXl5wTERIxpUibImaajwLtaPZFdopgmX0KkvhHq9hFkTbFz2NilhMBcnsl8ciIeMmuxw23CK1XBNYnohkMeFFeGkJVeSkqy8pRFAiiprQc5VUVIrDixucVa1cEW6xiWr1s+MWuUqyn4zlaExQ6JlJsdMZiZ5YscJvTGKZNF638zFGj0TjikuAMj0YxLNujIroJEfQRhwv9Yo1wVqxREeW+uGyLpXJMMilZseAHRmP5NmIen8lQZGQnJQJs5hSWRzUjnLHlt6R6TvEvKw/KftVOr7y3TEISCraw9aNCMg5Ly4txRlURVhZ7sHbBHFSWloxnqLiQ4wky3+fJnCAqHy2M5yazXBBP7DZhH+z9ncfw8z1H8IuDHRiAG0mJ6xJbTZuOtJzPSQazlH2vs3EU93YhfHAv2vbtRY5tP1IJcC5wRlP6yXYhbjf7aVfh6isuw6fuuH18RLSTERVs5aSFH6pN+K0Q2A+JxWbdx45h//4DpsHYwUOHsHP3HjM1ZHg0YtxQm9lYihaogw1VWK5rrGbWC4vf5o+WsuyLIPFWFGyP3Es+DBP/TR9l+RaKxSquqKpGaWUVAkUhlJQWo6ykVCxlEWCxmivESq6sKEdNTbVpeWpacUvCwASGQk/rlyOUJUVgIxJ2zmCUzOT7dTNYFdOmY1As44hYvpyIg6KcksSLS1reA6dupHCHxVKmm0FjIWcwzDmZ5RmGUhkMpJJIsFxfnooF0fmBTJLyUMxssG5eMiN8D+LW1IeLlZERkWejM04LaYrr02KrMMGkW/nf45DEz53DnOIgFotQzy8OYIms186biQp5L/xdChO3iQndiX7DifuKYgWbMO4Qxg8uNr5wpMDd7Z347vZDeLQ7jK6RKLJunxkTIN/vWuQ7l0KpM4d6yWxWjvRi+MB+HN76BhzxKDxZzusufxLtGO89/M4lrjc11uKqqy7DLTfcgMWLFh830/lRooKtnJQwPvKDZRy0Hyo/Wo4U1imW84H9B/HG9u14dcMmsar3IRwZNe5M0i+ixEvkM+dV+ePy8XGf2+P+0fI2ViY/XLmXx4VisZrLWT9cVobqqkqUlJRgxvTpqK6pwcyZM9FQX4fK6iozVCKF30zaL+LL+X+jIn4JORZqajJF0T3hmFjBItJivI+IwIbFEhgVN8Mi2BER8VER2LgIJFtfx0XY2SI7k3YYgU5mRaxl4TYTFTPYCsPOxxNr2hQRinVhBlCR90LrmY3RcmJZiOya52eKZN4I0z1JzLjNJIg1AmMO5MHT4FjNGRHvfLFjDk7xxytWR23AhdlBNxbJek1tOdbMno4ZYomw7tqKLNc2YZ2YwPE9Fwo2sdcpymSYb3Usjtj4w/3CeMNt9tzY03EM//D6XjzS0ouIL2TypjmOgcC2IpwgVuJxkTOL6UhjWmQYbZs3oW3XDuSiYfk00uJP/lvi92G+C0cW1Y1VuPKqS3H37XeZKWNPNlSwlZMeWofshtXX3499+/bjpZdfwyuvbsCB5iOm+5V81kaQKUKmyNsIBD9aHsv7wfpo08rbHBVhlFPBYMg01AoWFyNQUoTismLUVddgtli7i5csxIJ5c1BaVGRae7Nld1zENi4WrjNUZCzbTtYRh6PoHY2jcySC7kgcXTmxdOXcqNOD0ZhY1wm5uYsNaMRezaRMSFhfLKYsUwuTScjEIhI6EWH2p2Z4JSXhM2UowHQqCYuDoihKm0+3WDLAxEw2Kdj8TumnbJt+YvSNo0EZwZa1hJ0DTeRYBUCnbEQmGYWsiLXb5zH9qj1yLUeN4njfFT4nGoMOLC4NYP2sRixrqkdVWSlv/G8E+EQUJr6FjCU5k55TTm1s/Jos7vBY4XFa2ttb2vG3G/fhtf4wRjJ+yfTy25Cv3fS4EFGW7SK5Zq4rh3mZUWx57DH0tzcjER2BV4TdNDqVTDK95OiCaVcW5bUV+OSVl+Orn/sjk1nn/d5NvP8gUcFWPjDGopbhRB+fPWf3C9eMkxTqLVu34pnnX8Rrr20RC7tPtIkfpAi1RFHWP7PFKOfQTVHAqUry2XJqSFPkLd6L8QqXCGCZL2haUbtDQcydOwdzJa7PnD0L8xbOQ0NdLULBgARELHmxnIfcXrQOhdHcN4wusZaNOMdS6BeTuXs0hhhH9ZJ7JcValtsY0YxLQmE01x+EmfjC9H0isi3+UkLNtiizyUTImpfyjANitYulbSbjkOOcN1qU1zT0yolV7vD6xaUkGhRq85zydKauXRB3xkd5FzxmhjBJiR9OyaJkJRFjNzK3HBNrmpkAt1gYXnFb5HWi2uNEndxvZsCDJVVlWDm9Fosaa1AS9JuGbxN/O0X5qLFpRFoy87vbu/E3L27Dc/0pyUi7JL4njXUNUwol35pkRsslbZjrjGO1P42NTzyOg7u3Ix0JmzSCAw+x/ozfBr/enGRoyyvLcP01V+CPv/A5TG9qMlVXbGvC+1K4T/RN0I11936jgq18IIxFK8OJIjfrrHjeRm6bk+UHwnrq3z/2OO598EG8sW0XhsNhmImgRIwoerQQObtUkVjIUbFSPXKbWCIKT8An1qncX/Qu4BUB9nnhCvjRINbzAhHnSy++AOedcxam1dfK/bOmWHs4nkCLCPIbrcewvXsIu8Jx7IvFMOoJwCM58EyS43KLvSoCzYYqWbG0CYf3pIZyuE4GzsHhE/m88hymkZtLLFs+o3kfY+9Brre8uSWaS5EVIZaXB7BfKS1h/lFk5XlcHKBFwsFcimnpbvzkOWYKaIFLIkZLm2OJ852asn55n7LtlkCyv3RA/HRIRqBCgjm/2I8lFSGcMb0eKxur0VRZPv5bMSHk91/42/E3PdFvqSgfBoyHTB8YF22vhF3tXfjib1/B7rh8MxL/OasXG2lyLAGHiLXL6UGpZKbn5qK4pMaPB3/2M3QePYJMIi7fcsJ0TzTdNOV7zsh3mBS3gaAH556xFn//t3+N6dOaxluq875cGI6J30ThdqHb9wsVbOUDYSxaGSZGWJ6jUNv+ldYt3TGSc3KITZs242c/uwePPvsCYvw4RbS4ONnnSrzjJVyypgiMLZ9phUbg9TuQclE4gaC3CPW107F45XIR6HU478w1kltuMPeLprM43D+Ep/YdwY5jvdgzHEFLNCHhEotS/IpKONI+Ef7RqISMXao8piiZjcoZdgqihIAfkIQnb9ly3+XxmefgwCks8mZxOJ2YgUdkn9uyxcc1yO44LiYw7ONNQWciQvH2yDuSnD0bkKUlQwEORiLu+NRMZHIesRD8PpM5YB02rXOOrsZSBWZ83GkR54AXTSEf5kgCNL+sGKtrK7C4pgK1xUEUs0ShAL4bLpN9+zz+fiY+ivJesPHQrplmcPuJHfvw3zfsxdaIZMLNBDjyHdANM81JjnHgQYkI/NoQsNafwGMPPYwdWzfAnYqadhvsMeJ0++Xb4cBATsm0sjlnDnfdcRP++CtfxLSmxvE0a7LvYOL3oYKtTAnGopThRJGVwswPwOZcOdDJK6+9hvvuexA7du41QxIOxRL5EbcoQtkUPyMRJRYf58XP4WBXDifKQmUikhGkc0nMXjwL5194HtafcaZY1LNRXVkJj1jZERHp1w624Hd7j2BrIochuZ4zTo3Gk0iImDrEGnVnXSJ03nyr7FQCORFtR5p1wvIJi5sk+ySLkDpFSCnWtJ5zIpKmG5jsOySc8uFIIiHfjhynpWpGKaPAmtZeAi1fs86vCN+Swy2Jj4g/6908koCYr4/Ws8nciJ9yhEOb5sSvALuwiHUQlHdRGfSi2JlDpd+L6RVlaCotQrWIdENZkZzzyRJAUK6XrINpBc9GYx4JPwXdJnb8Dd7PhEVRPihs+sL4aluV8xjnl39u70H83RtH8NJIRr4iic/8VnlevmGWOGVyLlR7nTjdm8SZ5S5seOUFbNn4EkZ6u+GWb545cpczaLpcxqKj5sMMhgJYt/Z0fPPrX8aq01aac4VhKITHP8jvSAVbed85XmQupNANW37v3LUHv33kUTz21HM41tODSCzfNYt1xE7JLbPom+LizPLDoxbm65HcIj6pdAZV5RVYs3w5LrjkfKw+bTka6mtNXXVCPuj9PQN4WoR683ACLcMxDCXS6BPxiiVS4g+FiqOViTBKcF3y0Wbl42axt8Mr57xivbL4W+4t/xmLl12jGAYz0AiL3pkg8GN3e43AmjpnyQiIOso1eTEUWTfF2tR1UxogznkJCwxYZO2RE35nCl7xuCzgQbEIdyibRJlY9aUSjmJJJIoDflQUFxu35bJd4nOjTKzrYjkvdgF8ctwr9+L43RRkDrjCn4DhtQJN+B6J3edvYX+rwm0ycV9RPmoYJ20cJlanOCoau0s+sG0f/uXoKF4/FobLdFMEUsw0yzfNVi2sGiqVzPRpJS6cWezEi088jk0vvYhsMgYvq57kgqR8v+x2yW/EKxZ6yOvHujNPx9e++gWsWb3K1GcTm+Glu8LviXwQ340KtvK+w7j0dpE1b3nmsHvPPjz59LPYtHEzDkrca+/uNo3IqGxGoOUjcEs8TIq6sd7W7/Lw6wNnoCoWC3LB4nmYO382zll7BpYsWozG+joTd1tFpLccbcemrn7siCZxJJlDXzwrmQMRX/kQs5LL9koQ5ZOUD1U+OvmjEUwBphizERePmrpiOcaW2ByNmMXynOSDYxHT8qWVzWdl0Rn3iz0u1BYXmbG1KyRnXuzzsJ22fPAuBERIAyKcARFVv1i8PvEzIOugHPNxTeGV+4ZEpN3yfE5ZOGa4GflM3FL4/ayPl+3xEdHkOr4fHrMJhk3MCn8Dbk/8Xbhv2xAUfuvWHdek8Boy0R9F+TCx8dJWq7E+29Zl8xvoHQ7j/t0t+PGeLhyU7300FZd8dFzy02x97kImyYy6B1V+N84MAIvcaRzY9gZefv4ZRAYGEZBvgRP9JLJp+b48cLBxqfxxEps1a07DbTdfjwvOPRsVFeUmLFzsvQtF+4P4RlSwlQ+NsahmInJ39zE8/+LLePKZ57Btxy70HOsxReSsh6VGmmIsifzplMgmI37OYRqFsHapWIRwwYI5OOe8s3Dm2jWoq6sVoW6QD6oYe1vasEFE+iVZdg+E0RlPYVCMXRq8pi+Xw2saaTn89FMyDfIxsu+xCZncx7QH4yL3MvM6Z/NF736/XzIZSbhSMdQHg6gSVa8LelBXHEBFwG2KnotEeMv8XpTI2pWIi8UsmYKxsbfZNcwKrLV2WUrAYxRcFnlz2x4r/NgLtwvf4fGwbrguTEBsolJ4rRV36+7teLfuFeWDgnGR8ZrxmfGRwm2rdtqP9eHh7Qfxy84wNko6wIaW7J+dZt12ijN9ScZXMu4NPgfOLHVjmd+JI3t24+nHn8RIXw+ysajoHyfmcRur3dxDxDvkD2Dxgnm4+fpP4IrLLjGT7VAnGRZmIJhx+CBRwVY+FBi/xqKamc7y4d89hmdEsJuPHDVF4hk2/5ZIzxhHa5X9ltlwKklBFZHmH2ekmjd7JtauXYX1Z63F4sULML1pmqnXPdTZjtf2H8TGkQQ2DCVweJTjZIs/4qNDNIaNuNm9yeHwIM3iMXcGWZecp6Uv95Jv01jI4gIuubFblLs0GECJfAO1bGFe5EeNCDSXhpAfxRyrWMS4TDIPoYDPZCI4mArnweaaCcdk2HfABMBuk0IRtfB84XEmCtwvPDbRTaH/pPA8rz+R0E70azLeiRtF+bCw3wSxpUVcGM/be/pw//42fHfPUbTGxGKWXDvbkmTYEDQrGWUWebuymBZw4ZwSDxZ4Hdi/bRue+t3vEA0Pw836b/E6IekFe5MwTWLmmkObLlk0H7feeD2uvuoKVFdXGa209enkg/pOVLCV940TRVJG5o6ODmzY9Dqee+lVPP38y+jrHzCtp019sVxmCpbZIlzc0yrlRkL2K2uqsWzxEqw+7TQsW7IIq1Ysw4zpTWYij8NiqbekknjiwAFs7B5B82gWIznJRbs4CIl4IBY6S68dTu5zwBD5+GhCO+XjZvRmmOWDrAp4UedxYEbIJ4LsQ4VXrGavC8Xid3VxEWrKi2UpRYVsF3HSDsl522cd+4Q+kA+0kMkEd7J3fqLf4US81+sU5aOk8PvjN8J9+500d/fg4QMtuPdQB7YORJHLOJH2BOUiyZiLW84z75Uc/Uy/G+vLA1jgy+LIrp14+bkX0HrwENymq2a+8ShL+JgRZwNTer9k4Tx84pqrcMH552LJkiXj348Nj90v/KbssfeKCrbyrpgswtlcLs8VCop1y/7Ue8SqfuKJJ/Hwo4/hcFsn4qkMPHQrQp5mTpa5V/aBTIuVy+tEVH0imnPmzMKZ687ARRdegNWrVqKstFTcZ9A7NIwth1vwbM8wXuwdxp6BEbicfnAME/EoX4zOBmS0rsVvfmzccbIOnLXTbNDlc6OpOIAGnwvzy4KYKznteeVFmFZZhvKikGnkxRm0FEWZOoxJmoFpU6cYBr9+fTu+f6QfrVEXEhzvUDLp8p+kMpJ2iRu2I2HXx/MrAzinOoSdb7yBn/3slxjq7kaA4x4YwZY0RcSbvVRYIsiR0Zrq63HllZfiU3feaQZiIvb+NoM9UbAt70W4VbCVdwzjCBdGwrFoY6D1zGMTxZq5Usapbdt34N77foOnn34OQ8MjZmADj98rETrfeMyMh238FdH2eEzjrNqqSsyfPRvXXnc1zj3vXFRVVpgIPjAcxpHeAWw6NoxHmruwbSiCwYxc6xP/UjkzOT3rjSn8tKzNACIs8pageUTA2RCs1JlFvd+FhZUhLC8JYEVTjZkekkXg9hk17ivK1IaCSZhuHO3owo+2H8Kvjg7haFxy9ak0Mh6xfsVYcEnikMsyQ5/DrJIgLm8owbm1ITz37HN48vGnMNBxDBiNgUOeeiSTn0glxNOsaRDKgY5qaqtx443X47Zbbsa8OXPM/XhvpiHvRZRPhAq28q5hZOTCyGhzkIX1R1zYxYJTXr740iv4+S/uwfade0wO1Ux/l87CF/AhJmLNIUPZr5H9nDgyUVVlJRbPm4dLLzof11x9lWlQxnuw4Uf74BBeae/Fw83d2CyWdTTrQlyuS2XicIjlHCwqRnR0FLl4Ai6vX3LAeavfLd9iuceJ6WIxrywPYmHIg3XzZmBBfbWxoum/zQ0rijK14TfPxaZFNr3qC0fw31/ZiYc7BzEkWh4dHREB5Gz2TrgckgaBpW8O1Epm/sKGID63qBEHDh7C3/3j99FzqAWubErSEhoZcdMAlQJupqAVA8FfVITLLrkQX/ujL2CeWNpM02zaOCaxZvsPRQVbeVdQmGk5G5EVWNxtt+1HYorA9+7DPb+6F7++7wGEI1GJaCzkhmm0kROh9ni9ItYOpORDYl21V3KrDZze7orL8YXP3o3GhobxCD4q17964Cju2d+GFwfj6OFcziLKzACkZMm6xWfJ6cqXY6a15IxXuUwKPhHpMq8L0zhQQkURrlkwA2fPnWHqoG0DEYbZhrvwg7LHVcQVZerC75wLW29zspCIpF3/zzMb8fODrWaCnrR88zmxGtwOr6RRHhFjFn1nUV3hwydmluB/nr8O37vnfvzgx/egq7UNqcEBVJSGxOcsItGw8ZeT9LBXCdOT5UsW41t//z+NaOfru98sjZyYvhTuv1Ncfy2MbZuEdlCsmPLysvEcgqIUYoWNHwHjh20NbS1urp99/gX8/f/5Jzz2xNPIcVAS+QjSLJ92si+zWLx+ycmK23QiLR+KGx6XG4sXLcCf/vFX8dUvfdF0oeKHMDoaMfPt/HzbYfyvrR14uS+JvngSnK4+6+d44RLhWZfEyG9GD5P7h+Nwur0oCYVQ683imqZy/PmZS/CpNUuxSDIEbCxGbNy2z8OFFIq3PaYoytTDfssUUqZXXo6DIMtp9VXYcawfbbE0klmOqSBpgaRPHP/BzWbhsg4n49gdHsbWzg7812suR7CsBIdaOpAejSE+NCz2QcKkYwlJzzi4kyMp1rakR8d6+7FTjJWZM2agtqZqvJsX709smvJe0xYVbOUdw0hn+zpSmG0JjLVEOULZr+/7Db7zvR9iy7YdIqgsPuIAKeJG3NEN663TIrJmQotUFovmz8PnPncXvvH1L2Pt6WtMBKf/tOI3tXbiPz/3Bv71YB+ODMWQYN9orxsuyQGz2JuNypizdUi4GP+LQkWmmOr0qiLcML0M3zx9IW5cNBtzqyvNgCOWiTlem9kgXHOf9+f2e/2wFEX56Cj8xu3C75ppUMjrxdracozGEmiPpBAWw4E6zX7XGc6HmxbhFv3Lujw4MjiCjtER/MllF2DhnJnYu3s/RkfC4l/OzH+fZX2bpGm+LNvJiHEitx0cHjZjTISCQTQ11KOoSNIluS/DYDMR7xUVbOUdw/hAkWaEs2JtLW3OU/0P3/on3PebB9He0Slamp8Fi42+vB6faUzGvoxm6kd2uRJpvf7aq/HHX/8SrrryUjMAAeMcP6q2/iH88ytv4G83HcSuuANhuS4jIu2RxZFNSU5YbiyizjmeveyiweFFOQiCO4PPLqzHn65diCvmNGJ2ZbnpH21LAWwu1348lsJt3p8UXqPfgaJMLQq/dcJv3C4UzYDLiTPE0h4dGcWxRAqj4oZT83LoUn8whERcjIK0W9w60RaNoF+s6gub6rBq6SJ09fSis6tTTAPJGEjS4WEpoVxn8giu/Nz5FP3tW7cbS5wjolG0aYwUpjXvBRVs5V1jc6qE602vb8a3v/M9vPDyK2YCD/adZuR1yDkKd46L7DOCM8LWVFXi85+5C3fceiNWrVqO4uJ8e4nh8ChePtiCf9y8H48ci+JIPIeYRHzWR7NVJueap0VNy5rdLLziv1cs9TI5f+vCJvzpmnm4fGYdZolFXSp+UnQLPxCG9e0+GHue68JFUZSpA79Zfu8UZ5te2e+Ya6YNfklzGgJu9A2PoGU4jCSNCa9fDA1xI4kN56fn3AAxMRIGJG1KijaunTMdK5Ytwkg6i47ePqTjCXhEtelzSjIJpjupLOyqOhoewZHmZoRlXVVZhZqa6nFD572igq0cF0Z2m1NlJLfFTFwzbjC+PPDgb/HP3/0hNm7ZYrpspVLsokVR57Ucd9steU+JRxKP2X/xyssuxBc/9ylZX4y5c2YjEAiY4udD3T34xZbd+N6+Trw+nEbnSNzMY8uhSnOZJNy+fF1QbmyoUG8ugyYvcGVTKb6wfAaunVWD5U21qCgpNgPz/yEiW3jtH+KPoigfDfa75douhTBdo3iym2e9l4KbQWc0jpGkmBU5SWtEkNmoNZtNSLqVQSSdxDE5Fxc3py9dgHPOWG2s8ZaWNiRHh0XonYgn4/B5g+zwgkQ6gawjjWg8iu6ubrHIu021YH1d3XiaZzMUDBszFTaM9pil8JwKtvIWCiNL4douhG5isRgefuj3+O4PfoKdu/dhZJTDi+b7U9NVfnxst+ljzeNl5aW4+spLcfedt+Hc9etQXV1tiohikkPd1NyKH+9txoPdI9g9kgLn53A7OUh/Ek6J/ew2ITEcnAGLY22Xe91YVebHDdPKce2cepyzcDaaaqrkY8kLtX0GG15FUU5djpcOUAiZTtWUFqPR7zEW8qHhGKIZSUNcbCvDqrGsCG0GHq8HA4ks2tOSFPmDWFRVhjOWLzKT8nR0d2FgZMAYFxyYiVY2p8plhzFJLZGUtKu3rx+tHZ2ISLpZU12F8rIyc/9CjS1Muwi3SWFapoKtvAVGDEYku20jCuE2c4atbe148KHf4ee/+jUOHmyWeJOU4yLWcpnL6TAtLVkDzBwqG17Mmz8H133iStx1601mtDK2Amfcaj/WgxcOHMH9R7rxaMcQjoYTcMjHkklljZhnJD66RKxNVzCx1j3i3/wiDy5vLMX1s2px2YKZWDxrutwjMB75GUZGdI27iqIcD2u1Mp2gYVFVFEK5IycGRhYtoyLaYiwwPWMqwvSEaVBaliFJm5qHRpB2ODG3rAhnLl+MUCiErt5+hEWUU+DcBJw/X+zvLNvr8B4OxFNJ9PQPSNrZgdHwqKnXrq2pHk+nbLplmSjcdlsFW/k32AhSKNyELcQPHzmKB3/7e/zrL36BfYcPmi5ZyUTKFPe4JBJL3DSL+CIROYhVK5fj05+6Azde94nxvon0f+eBQ/j9nmb86kgvXumLYTjtFIuajcrYHE3gvSWyu8VP1hGVSI719JoSXFtfjBsXzcR6saqrK8ro0sRTG0ai8VZRlBPBtI1p0ZvpRg4VQT8afDQ1MmgbGUU84xTrOC/WKaZxbpdpQpOIJ9EyOIqopGMcynjdiqUI+UMYjUbR0tWGTC4NH7xw5TiMqVjkuQzScj/2mhkaHMGRwy0YEPH2+byor6sdD8dEkSZMy1SwlePCyMGFvz2tacJtjly2/8BBPPDg73DfAw/hSHubiUQcgSwnEZFF2OzWwIjPyTyqqiqw5rSVuPmmG3DzjdejtKTEfCQJ8WfvkRb8/I29+E3HIHaFMxhOyicit/K4OHgBIy67aWXg9XngkDg5M+TFBSLUd8yrxzXL5mPetEZ4xQKnf1wYPhvhycTIryiKUojVNqYf42LocqK2tBgzi3wYisVwZDSBBEWXM/yl6Y5pTRacnjMhaV5bNIX+WBJzS4I4e+VSNE2bhs7eHgwc64GTxeqSHHFmwKxYMGx8y1Ee2QUsFkvg4MHDZqbC6opKlJaWmFLHwnTLbtu0zaKCrbwFRg6KMxtk2MjCeMEpMe/59X249zcPoLO7W3KakitkPbNEQNYrs2mZiaFyXcP0Rpx/3nrcdfutuOLyy4w//DBGozFsauvC93Y249H+CPo4tKgY0qLP4saHNAdZicdNa/CsZHTLvU7MC7jxifoifHbNQpwxdwZKi4rGIzOxudNC4bYUbiuKohTChmdMI+zC9IPpXpHXg0axtDsGOYSpA7GEiLSbXVFzordpuMTSZtXfaCKDoyMJdIVjWFZdghVzZ+G05cvR3dljWoZHE3EkmSEQ48KkTZn8HAVuHweTErHv7sU+SVfZSNYvesvRRW2aZdPfiYaHCrYyjo0cFEHCSMVl1+49+OGPf4qHHn4E4dERibS0ot1m9DLW1QR8AYnMEqmcOdQ11uGOW2/Clz//OSxbunT8o+gdGMJzRzrxn1/chVfDKQxknCanSetcTGkj9FRuFjn5JEIHHSmcWRXCvz9jEW5dvQT1FWXjH5WNwHZtc8mF+xp3FUU5ESxBpDAy3SjsDcMi8PryUpzZWI22/l60DMZgpv4QAyXnonEglrJY2xwGOS2mSp9culUMkUWVxVg5axrWnXWmWNY5dB/rxnA4bCxrh6RzbvGbZgYbp8GRMxMU9fX3Y8PG19HW1o7Zs2ehsbFhPP0lNk2zqGAr4zByMBLzd6dQc3/bth349nd+gCefed606DaRlRE1JwKZc0PympBMJ1xeF+qaavH5u+/AbTfdiIb6enM9l2P9g/jtgXZ889m96PcUIxqJy80kUnLaOrGwGT9dzjQyyTjYILxCLOtLm6rw389fhdNnNJohBRkm+3HZsDKDYT86G1dtMZKiKMrxoEAXDmTCNIPbPM40haLpdzlxybzp2NzSisGsC4mkCK1Y3KzjzrJxGUeWEPENx5MYTLuwvbMPiypCmFtbhfPPWYdUMoWu9g5EBodN+x6OS0FjQpIoc6+0JJwZM8VnDl0dnZg/dw5mzZqFYDBowjQZKtjKW+BvbiPz088+j//599/CK5s2G7FmxKI4cvQfscXFtQhlzmUi4ZIlC/Bf/sM3cd3VV6GyoiLvmdDSN4i/e2Un/vf2ToyIwMcT7JpFP+SkRFaI0KczIuDpKEp9Hiwt9uDfrZyDf3/OKtSXlox/SMSuLRRnWyRO1LJWFOWdwDRjYnrC9IMw7SNMW7yS3q2bVo2uvn50R9MImxLDrNgaYmkz/WJLcKZnWSd6ojFsaOvGkqpi1AR8WHfm6Zg5YzqGhobR3t5qBpRymPSTJZlMQ3kPj1ja4p9sX3rRBViwcIEpIj9eOqaCfQpji8AJc5VW8Lg88eRT+Md/+hds37VbxDppisEZyWgVgw0x4BVhzyElucTzzjsTf/0f/wxnnH6a6eJAPzlV5uaWDvzdhr14uHUYEacbqXQSbq8bTrlPJh6V2Cr/PGIRux0IuV24uLoI/3HtIly2aDaKAgETDvth2XAWMvHYZG4URVEmcrz0ZKLm0XgpCfhxWm0Z4vEIWpMJDOfyAssuqGyAxrppt6RvtLj7k0m8erQdFW4nGoI+LJw/ByuWLzMifKD1CEaiEVPkznHUQt5QvoeNpK0unxsXnn8ulixaaNJQUpg+W1SwTyFsDpIRgTAy8BjFmrlK/t7cfvqZZ/G/v/Vt7N1/CJFYPH8dxdMIqFjVItxpiah+vxdXXXkR/vJPv4oVy5aYiEa/w9Eontl7GN/aegjPHAsj7vIjHonCJ6LMYQjkJmYyDkcmKYHJoDHkxY0za/FHS2fjtJnTTN9tFV9FUT5KKNa2BK/I78PMkgD6R0fRMxpFIskyRofp1sqGtznWSzNpE/dZXwCbDrag2ufB9NIQ6mqrMWv2LNTX12NgoB+9x3ok/UwaEed8C5xfwet14fxz1mPB/LlmJDSb/nFdKNwq2KcQhZGAkZFCbOuFubB1+DPPPof/9Q//iF179yIajZvhRCnWcpXpH+2USMkI5A96ccsNV+FrX7jb5AoZX+hHV98A7t2yF/+6rxvbwmkMy1W0rDlamUMEOy1xzC25SQ60EpBjZ9eV4ouLp+PWRbMwTyI2W0vaMCqKonxU2HSRUAsDYjUvEAEuEbNjIBzFkFjHcfbTdnNyI7eZqYuDRiXEIEmJ9XxwcBT9/b2YXlaMOU2NmCHLgjlzUBIKoOdYJ4ZGw6Ye20yIJPe5+MLzsHTxkrfUYfP+KtinMDYSFi4kKlbxiy+/gn/4p3/Gth275LfPd9liUbjTxXggkcZESCcqqspwwyevxOc+dQeWLlk8XudzqK0D9247iPvbhrEjnMIQux1KzjOXiptBB7JxEW7JgbI8KSQZgQtrinDbjEpcumAGZtTWjPtjw6QoivJRYdMhro21LcZNVUkRmvxueGMixvEUelJZ5OQ4e8xkaYSEgkjFksh6A+iOxdEpx1OZFKodGcyd3oTGhno0iXAXFRejs7sT0XgMmbRY2XKfC847BwvnLxi3sCnUvC912IZFBfsUhJGA2EgxMjJi5m/94Q9/go2b3wDnsDYtGnOs06ao54WX4l1TU4WrrrgEn7r9FixftszEEfqx50grfrH1IO47Ooi9kSwS4j+vz3GwAbk232ebQ/U5USliff2sGtw2uxrnLpyNmopyEx5iw2QjqKIoykcFSyEL0yKmd2XFRagrCiLgAo6JodObzCCVzsLvC5guXJz4iEWROYcT4UwObcNRjAwNIJRNoaa0BA31dZgxfQam1TcgJyLf099vJg65+IILsHTR4vHSysL72m0V7FMQGwm5hMNhbNy0Bd8XsX75tU3IiFjSumaRNYtq8vEkX1/DPoIU67tErJcsXmziB8V/0579uHd/O+5vDeNQLAvmF3MZEX322RI/cpILdbg9pkXkNJ8Tt4hY376gAafPnY6y0uJx0S8U6sLIqiiK8mHD9IgwLSrcZvpZHPSjNuBFMBFFXE51x9i31YMUG+iyYS0yZsTHXDqHIRH0LrmuJyHWdGQUdcEAGutqMX/ePNTV1KJERDwp6eXqFSswf+5cUyRu00KbNtr0UAX7FMH+6LaIhQtn3Nryxjb89Bf34NkXX0U6Y5qEwcVia/np+fPzupxYyk2N9bj6ikvx6Ttuw6KFC0xjDEbcXe1d+P72Q/hN6wDaUw64vZI7FIvazIPNyCZrwr7UTR4X7l7YhE+vmI0FDbXmGMNkI2PhR2GPKYqifBQwPbIaaNv7EB7ndrlY2rPKS1GaSaJnNI6jI1E4JU3LSTqXzSbFbEmLaOet8qikrUfCcbSLtR2UNLgx5EepXD9tWpOpViwvLcXsGTNRU139lmFKSaEOO+SgOcoVi0YPHz6C2bNmmmHSbACVqQ9/X0YCCjbXzJxt3bYdP/vlr/DwI48jnhwryhnTSYfpY5iBWyJfZWUFrrrsEnzmzjuNWHNQFfENB1s78Y9bD+GRnigGkwlIlBadd8HBBpMSyWihZzJxiYAuLCwO4OrGSnz9zCWoKAqaD4DhYGQsFGceJ4WRVFEU5aPAppt2u9DgsfSLkfvEjoP4zv4O7ImmMSTpaC7H7lpsAe6Cx+1FNiHpXcaNkC+IGd4c/mhZIy5oLMespjo57zZpqm2RbtNFpoU2o2DDoBb2KUKhQLI1+PYdO/GTn/8Sv3v0CdNgIplibnBsWFI2FEunjXbX1lTh2quvwKduvx2LFy00fiXTGWxv78F3trfhvvZhDIvGulwSSWlZS06SZropDZcNzrK12JvB5xc24AtnLkdZKN9li5GQYeH2WJ7RYCOooijKR02hYFOsbbpl4flgIIA5NRWYE/RiMBbHsdEI4qwWlOscGTGEmCbCi1zGJelsFkMON15u6UQ8k8L0kiCKPG4ExKqmXzZNtIYL78eutjZNVEX+GGJ/bMJIRuwPzv3DzUfwy3vvxeNPPYVEKi65u4TplsB6FPatdknECbjcKCsqwi03fBJf+OzdWLZ0ifEjIcK+rXsA//mlvbindRgpDqRCKLqM3GxoRsXOZVAs6/WlfvynNfPxhXPXSu7Sa5zaD8DCfbuYDIOiKMpJQKE4Wwu4ELvvkfTz/CVzzXDK51eXoMbvg1v+HA7O/S/Gr7jJOcQQEsOGXbkG5Mi/Hu7Dnz2/Ay8e7UbPwLDxy97PpodcCtNEFeyPAcyZFVqp/NFZxGJn3SLWwu7o7ML3f/QTPPbYU4hH48imRWDlWnYt8Ht9Zp7WjOT8PB4nPvuZO/Dpu+4049tS6DmV5o7ufvy/r+7BhpE0nGItJ2NRuL0euYHkDuU+Hskpet1OFMtt11UHcPeielx1+goTBhsBFUVRPg7YdJddUpm2zaqpxP+87Cxc11COugBF2wGvU6xyMYDENbLIIJUU+9vtQdLnw3Otffjy09vw/a2H0DkUHje2rHDTui5MM1WwP6YwAtl+zYQRgAL+7X/5Hh5/7GkMDoSRiouIZznMqEQIiXeMFqxz8foCuOtTd+DGG683LcMZYQZHR3H/jgP4i+e24eXesAh8AunwsNxI3CejyMVTYsb7kBELvNzjwN1LGvG35y/FlauXjFv5DENhxkJRFGWqQ+OIwsr0jUttURD/64r1+Oay6VhQ7DVpXkrOi/UE+Lxmas4irwOpRBzOogC6Ykn8aOcRvHiwDSMRSUvFPf0jE0scVbA/BhRarvyxC0WRIk3YPuFv/8ff46mnX8DwSDg/raVItEOiAAevJ2lxWxwM4TN33YbPfOZTmDt3romA0Xgczzd34Id7WrFjJI4EhybNppHMcVYbF2IcPMAfRE6EuUzE+rZ5dbh7qUTWRrYElwgqEZWRmqhgK4ryccJa10xjid/vM8Mw37ViPv7itLlYW+LmzAtweZxws52PpJ/RVA7FGbG3EymEgn4MpTKIpvO9a+gXhZpp70RUsD8mFAq1FW+uGZnY+v9fvv8DPPXsc+js7jaTeTjd8tOLAZ52ZJAS8XbAhaBY1tdddTk+LYI9fVpT/tpoDA/u2I/v7WoRsU4hlnYik0xJZJJ7pEWEJeK5xbJmzfXssgC+tKgBt8+txdy6anM9w2QjIJksEiqKokxFbFpLo8Smd3a/vCiEK+ZNx5+vmInbZ1ejVpJApoJeXxEyETF44IffERCDKAVHToTbnxd+6wfXtnTSoqnnxwT7Q7MOhGtbpMIhR3/+i1/h3gceQvPRo4jHOE0mkMllTX2KWWS7pLgYV19xCb7+1S9g/vx5ppdAd/8gfr55N767qw2b+2MYTaZNv+qcxysxxy2WuSi+REyvx40lZX58dWkT7lw6E0vG5rBmOCjQDJMNj6IoyscJW+9s65ut4PJ4eWkJzl4wB19cNhNfWzZD0skgHPEY/B6fGfkxLWmv0+URq9tlGv2ybpJpJv2w6WchKtgfQxhpuNCy3rBxE+6970G0NLeLZZw19dTsbsUi8VxO9sRdqDiAs85cjS98/lNYuHCesYaHwqN4cFczfnWkF9uGYhhJpJBNJ+FwZcx44jmW/niDSGdSmFviwqfmVOGqmXWYMzaBByMaw0AYcW3Es5FbURRlKkNBZXrGdI6WMK1qrm1aZ9Ph0pJirJo9HTcvaMJXFtbhoho/Qu4kMk5ZXOIHx7xgmmr8zPtrr+ViMwBEBftjBH9cG1kikQheeXUDvvf9f8WBg81IxERsc/n6ajMoCmuvHW4UFxXj9NNW4u5P347T15xm/OCMW78Rsf558zHsGUkgZaKJRKycWOOiwRx2FHItB+BbWRXEHy1pwicXTMf0qgoj9jZ3aKGfjMyFxxRFUaY6TNsshdZwoZFCWFw+q74G1y6djS8vrsfdC2uwuson6aIYQtl8sbfDQSPHbBomijVRwZ5CHM865Y9qc3qEYr1r91789Gf34JlnXxybJF1ygWJVc6zwjIh1zukws8KsXLYMd958My489xzjRyyZxH27j+Bf9rSbBmajqYy5hqOWcVaarNwjJcLtCzgxJwh8Y+Us3Lp4NmbV1pgGZgzDxIhmIy6PFUZiRVGUqYpN67hYg4Tridj0mVSUFuPilYvw5dPm48szK3B5hR91Xo4RmTZVk+KrcWfTT+u/RVPPKQB/PC4TGyAQe87+qPF4HIcON+ORRx/Hs8+/zBoROBiJeF5ycBlayrLp9fuwcME83Hz9dbj6istMRBsMR/DU4XZ8d28r9kYSiHP0MxNDJPLIP4dDrHM5EHDmsLjMiU8tqMLNS+eaxhWFkYrbFGZ7zK5VrBVF+bhSmL4Vbtv0j6LNtJozFs5qqMVd556BbyyfjdtnVuHMqhBKPC44xS3dWLcT0RR0CsAf3IogKfwh7XGu2XWqta0Njz72BB566BGeNcfpPpNlg4YM/EE/3D4vpjU24JPXXo1rr7nSDDbfPxzGcy1d+Mvnt6AtnoaLcUwijdvlzlvXsssMoF8s9eUlAXxpdhW+sm45AuIX/ed9FEVRlH+LFWGmk6w2pPHF9fnLF+MvL1iLPzttAZZUlsErx2x6bkW7ML1XwZ5C2OIW/tg2Atgfk+uBgUE8+fQz+Nef/RLdvX1IpFNwSgSg+nq9brG+I0inEygvK8b1n7gSN153DUpLSsSyHsULLT34Ty/sQnfGi0QyhejIKLwOuTYp90vJPdwuscqDYlkX4c6ZNfjcOafDM5YZYARjC8nJSgAURVFOVWz6zLR7YnG5baBWWVKMcxbPx8LpjQgG8mOKU7CtcBemqyrYUwyKNH/4wh+UcICU5154Efc/8Dv0D47A7clPgp4Uq5sRIJlOIlgUQFHAgztuvt6MEV5VWWFG1tncNYD/s/0IWqKMGJxvy4WSQABOh8t0O8gy1yeCvTDoxN0L6nD3OauMQLPrF+9L/5lbnBghFUVRTmVs+ky4zbSSixVwlopyYaM0S+E1hGmrRQV7CkGxZm7L/qDctzz2+JP4wY/+Fbv37B0/L/Ei/2M7nGCHLkfOgVtvvB43X3stZkyfZhqYvXi0C//tlT3Y2DUIl1jho8NhiUhehOMceScJr8cBnzONNZUh/Ie183H32oUI+rzjEYyibXOAheFRFEVR8v2zuVgo2BY21LVpKd28XRqqgj0FsD8iLWr74/IY98kzzz6PX/7qPuzZd8A0MmOL8LSIqEciQzqTjyxOyc2df+EFuOH6G7Bw4QLEEkk8vr8F/++mfdgyFBMr2iNWeBqB0jIkxI+Mww2f3yf3c2NRSRB3z23A1fOnISB+2lwiF4o1MwXMJEzMGSqKopzqWGuaMI1kus30m5Y11xzSlGkp03aeswJPtzzObYsK9hTACnMh9tjBg4fwq3vvx9ZtOyTr9mYROYWWkcHlZgtxYPXqlfjiH92NpUsWm/msXzrSjl8eYNetJNJigbvFjcPlQSyVQToaE9M5L+CLQx58ZVETPjGvScTaMx6RiPF/LCLaSKcoiqK8CdNLLkwvbWkk028aOlzTymbayfOEaaotBud1No0lkwq2JrtTg47OTvzs5/dgw2ubMDg4nI8MoqUpsaoptnBKRJFl1ZqV+OY3vobTV64QIffi2YOt+NGedrzQHUaUk4BwQJRs2kzewU78Ob8fbpcTZ1aX4I9XzsYnFs5EVWmxuScjGCOWFW0Lc4e8v410iqIopzqFaSLTTGtoUaAL01Aet+d4nIs1gN7ijv8VXpwvPn3T0/cKr/1Drj9VeLfvyObQRkdHcc899+KJJ57BsZ5+M8sLZ9Bi53uHK98Ni/slxX586XOfxrrTT5PtIry47zB+vi8v1oMp+Y0o0DnO6MViF45r64JLLO65YmF/acl0XDy7ATXlpSYyMY7YNbERjHCbOcHCyKUoinIqU5hecl24bTlemjnZ8TdTXME4kCNZEYXjCYkVYrsUMtkx5cQc78ea7D3ymHX/u0d+j9/+7nG0dXYjKwKbk+MckYxkONSd7DfU1+Gu22/BxeeejeLiYrx+sBk/2X4QL3UPYyiZgktE3kVx5yK/u8PrhiOdxIpSP766pAEXzqw1lrUNi733xLWlMHIqiqKc6jA9fD/TRCPY9JCJMq03v9f3FhOevBcRfr8Deiox8X0X7rMEZNPmLfjhz3+N5rYOxGU/55SMkizi0oyU43LkUF4axNWXX4LP3HEHKsrLcbB3AL9o7sJz/REMpvMtzZ1Oth2XSJBzy5VusKZkhg/44xVNuGHJNNSWl4z/hvpbKoqifLSMW9hWsFnn6TQTRORFfKJ48HjhUshkx5T3hn2P9jdgJopivW//Afzjd36MN/YeQjSTQlaEOplNioWd/504/WVFaSnOWL0KnxbrmvNaHzjahm89twkPNx9Df1J+Z/op6pwVmc4m03CkAI/DgyafC7ctbMT1S2ehqqTIWMxEf1NFUZSPnnHBtnWQHAiDY50WivXxEuxCN5bJGh1NdKOcmML3zW0ubIV9uPkIfnbP/Xjk8WeRSWSQSqTl5cr5sT+nZLa8Pg8WLFyA22+9BYsWzEdnTx9+tv0Qftc5hK5oEmlxn8mIUKcyZqhRXk9dnl3sw62za/CF1Qvhc+e7IRSGQ39DRVGUjxYnE2IrshRtzpNMC5vHbII9WWLNY7TIbSMowmvsYrHulOPDd2SXyeDxnt5e/PqBB/GTX/0a3lwa3lQSPslveeCSRf6cHvh9XixavBC33XITLrvoAvT0D+I3Bzrw06O96BcLOpPOwunzi4fyW6ey8Lj98AWDaAy58MlpJfiz9SswrarCtPgm/N14b/ubHi98iqIoygeP01pwhIky+3+Zrj2SOHPmJ7vEYrHxhfu0xG0ibvvgUvDtIBo2cee27VOm/FsKRdD+DoXw/PDwMF59bSO+/5NfIBGPIZ2Kw+vKGUsYbGAmmSyHvPu6hkZ88vrrcOfNN2JgZBTPHT2Gv9l4AL0ZsdBTabi9XmTYWd/hhidUApf4HYiN4NyqAL60ZjHKi0OmMz+xv6H9XSne/J0VRVGUjwaHiK5RDCbQFIYjzUeRSqdMfSnHoR4aGkaMIpFmEapY3ZJ4+30+hEIhFBcXmZme6mprZLtEjgVNUWqhWE8mQsrbw3dIkRwZGcFzz7+Af/rn72Lv3v2mu1bWIRav/B4uEd4sm3e7HSguL8Ptt92Mr332M/DK7/PM0W58/YV9GI3FkSkphSMTRUYuzkUzcLp9yDmcKHelcN20Ynzj9IVYMmOauS8zYuzIz8yYFWr+htxWFEVRPjocIgzEJMpDQ0N4ffMb+K//z9+gs7MLLo9HhIMGnFhaTO0F2TJF5tRhJuKS7qO8pBzlFSVobGzE/LlzsGjRAiyYPx+NDfUoKipS4X4PUDBp7T7y6GP4h2/9Xxw+1CzGdA5psagp2Pw1vPI7ZLLyI/o8uOnGG/DVz92NGdOn46Xmdvyn1w5gxyitZSdy8bis+LvxN3Abofdmk7h9bhX+/KzFmFH9ZjG4hUJdOMIOw0NUuBVFUT4a3iLYg4ODeG3jZvzpn/0FBsWyZmtiptN5qbaCy2LS/JrHKNhet5eDasEtCbwv4EdArO5g0I96sbwXLVyAVSuXY/mypaioqEBVZeWkib4tXi8UiXfLRJH5qJksPHxGLoXvgPuEv4H9LVjC8fwLL+J7P/gRXnzpVXk/cp2846QoNF172GcaKSSzKVx55VX4yt2fw4ply/FaSyf+fvMhvNIXR1J+nGwyBp+IcUoscjCjJX9Fzgwuqw3hswsbccGKxf9GrBVFUZSTD4eISs5awH19fXht0xb85X/8z+jtG0AylaaKyHJiq4pSTmGyoktcbif8Xi+KQiGUFIdQXFKM6qrKvICvWI5lS5agQSxwzvbEa2wRLMPBbS6s+y4UM2IFzVK4P/HcR01heE5UtGyfncXRfOZwOIzfP/YEHnjwYWzbsRMjQ6OSeWKDMQ7/KWuxkBMixC53BmedvQ5f+9wf4byzz8GW1k78352teL43jnBMrOtUAi6fE/FEQjJSpUiMjCLgBa6aXoa75tTg7IVzUFpcbO5/MmV0FEVRlH+LqcOmsHAxjZvEwv4PItjtXT1muEunK9+IjMXiFiuJVmApIi6Kq7g3o2wJeaHiNSJaci2LY0PBgBlxq6q6CvNmzcRKEe7Vq1Zi4YL5KCsrM9dRPKzIFYobi4dtg7ZCGG4y8fjJgg2fheG075vPxzWPUdAJjz348G/x81/+Gm9s3YHR0QivEpPaiURGRFgs7YDXJzmtLGbPnoGvf/0ruOyiC3G0bxA/3tuK+w4PIOIMICkinRXBdvrFypYMlzvnhVPucdm0ED49uxLnLZqL8tLSt4RFURRFOXlx/bUwto1IJIqOjk489cyzYpUlzcAaFBMuTNApulyMNooOccVtK5amrtt07s1jxYhjk3OdEAtyWKy8gcFBtHV04VDzYRw4dBgtrW0YGOg3Ys3GbLS6iRUx6z/XdtvydvsfNSza5rubLJxc+Iw8z2dnK2xOlfnzX96LzW9sx2g0KsdFxD0ueP0+xGJx0886FYthwbx5uOuuu3DFJRejvX8I9+w4hN93htGbZEMxuYhtCcVozlDkXWJWy7G1dSX4o2XTcO6c6WZwlfHfR8VaURTlpMfUYY9tmyLxja9vwTf/4i8xNDyClCTyrDul1liBsbC/dl61RWzEC+46WXQuTqyXVhB4GYfMtF2GbJ2pXGW2y0pKMa2pAYvnz8NpYnHT6p4zZ7YRbiso1i/rd2FYyPGOf9RYQWa4bOmBDaPNkJBIJIKHfvt7PCzL9p27TRsCPpHJJLm4uDAibkKhAIqDfrGsv46bPnENkqLNP92yH/e3DaE5lkbW6UKKo5fJtS4Reocjh3QmhxXlIXx5WROumteEuop8acabv8/J9c4URVGUf4upw6aQUFRYJL5x0+v46//ff0d/fx+8Xj8CgYARVZcIgVEBUZF0Jm2swbQIcDyVRDKRQUysZw7MQTd5Z/miVvrNNetIueZiBLjADdWex4J+P5pEuNeuPg1nrzsTq09bZYbWPF6jqJNdaOx7JeY5C+A+z/O9DAwM4ulnn8M/f+cHOHCo2bT8zp9nvXf+TdFSd3t9KCsvxyeuuQJ/9vWvwOPz476t+/GTA/3YPZxAIpdBziEXi3sn37vHC5/Lg+k+J762cjpuWDQDteWl4/fnooKtKIoyNRgXbCba7PO7des2bH5jCwYHhxAMBlEuAsG+1ka0xxqWceCUyOgoRsJhU0wbT6QwJNfymhEeHwkjzCU6ikQ8P8AK659t/Tb9Yf24EQouRpPyAsLjbGU+Y1ojLrnoAqw/8wzMnjUTs2bOMP2DrbjQLTmZxYYWtHnWAiu7UCjZyOxoSwte27AJP/7Jz7Fv3yEzwImZ4lLeF99bTkTYCLDDienTZ+CiSy7EFz5zB0rLyvDMoVZ8a/tR7OiVzJPTa8Q6C7neIyLM0gwR7PKsA19ZMQNfWDMP1SVFJjwk73c+o2TDdTK/S0VRlFMdh1huOZuIs1tXc3MzGhoaUF1dfcIRyqxgEtZ9R6NRI9htHe0iPAexd/9+EaNW9Pb1muLdcFjEO8mRskQc+CfXMxPAPt30igOzsFidx120wHNZEWixDhvqcc76M3HDJ6/FgvnzUFpaaoSbFIqMDc/JKDq2HpuLDSczPfv27ccv7vk17vvNA/JuWGqRgoNdr2QxNQ5CVgSbAj5tWhOuvPQS/Jd//yeSgfLhoe0H8Leb9mFvOCXim//9+F4lm4CUMwe3LDXi7tLqCvztxatQV5ZvDW7DQaxo8/cvfJeKoijKycd4HTatQBaJt7W2YtbsOeOjlr0dVoAKE3seY311Z1c3tu3Ygddf34wtW7ejtbXdWObsE8zR1JKZtLgdE1wRcpfLbcSEQuIQxfJKhoGtndngaunShbjztltw7tnrzIAstPqnisjYcPId89ko1rt278FPf3YP7v/NQ6Z/dZqN9cSNx+3hBUinuC/i7XKivLoSV191Of7bv/9Tk4nqjsTxmYdewa5EDiPxhGmFT63mu+SsXQ5nFlU+J84o8uJ/XbYO8+qrTDgm/kaEx6bKe1QURTmVeUujMxaJHzl8BNNnzURJcZFJyO2St8by7gouGd/OW275+lAKPfetCFC8mRnYsHEznnj8abzxxjYcG+jF8GhYLEuxKtlwTdw5kJ8xzBQhi2AHXB5TpA6xtGlE0iK/4dqr8Lm7bhcBX2T2bSkAw2HvZy3JyTjRucko9Hcy7HmuGe6J4bHF4YT37u3tw0svvYqf/vxebNy02RwPxyIIlgVFtFNwsf46mZEMi0uez4faxkZccdWl+MrnPmUGomkeGMY3ntiG1wejGGKJhQSN9dw+3kveY0pEO4QU1lUE8d/OXo4z5s1422dQFEVRTn7eYmFzaFL2v25sahQL1ouBSAyH+wbRPTyKrqERs/SORhARt2wL5XOKqIjABn1eBMUSnFFVjoX1NWgqK0JVKIBSsdILBYwN1ShaA4NDeHXDJvz+949ji4h3d1+fHJfAiOCb6T1F4FwiPh4RH1qcEbHGHV7W0ebgFEt0Zn0jrrvmMtxxxy2YOXOGKXKmePNarguFm9vvVazGXs0Jr6cbLoX3sZY0jzM8hNs7du4y/asf+f2T6BscEXfiRp4tUBTEcHwUiUwCXsm0FPn8kKwIps2cidvuuBV333EzXG4XNnf0448f34iWpBOjGckkZOW9uOSe8txOj9sUibuzaaypKcNXFzbgljNXmsyCDZ+iKIoydXmLhc3+0a/tb8bWY4N4YzCMA7EMomlJ8LOS2I/17TXDlcpuVoxGjr5FkSUeEQ6/iIJLhMor9nKFnF9WVYqzZjdheUMN5tVVigjDCDjFjMXCrNfesmUrHnnkCbz0ykZ09fRIiMRvETy2GB8dHRHB8yKaEStbhIf13SERM59sMzOw9sw1+OxnP4V1Z51lwmCFaTKBereiZV/Lu/WHYj2xKoFdtn7z8EO45777sffAIUQTKUSikjGRW3jlWdgbjq3tnfKsHnk/nFFrydw5+PRn7sK1V12BouIivNHeg28+vhnNGT9ifH8pyfykE/AEg/K2XaaEwu3MYFEJ8On6Unx+/enGL1YdKIqiKFOf8ZHOCPteP7n3EL69aTcOio3Xn6Z1LEuOok1JyGPkSkSGFp3DmTNCTCHPcUavtAi2WNw+sfiKxDouEUGqEDcrqosxv8iN02fUYkF9NcrG6sgpZt3HerFrz1688soGvPzKqzh8+KhYzSm4vSJ8tBAlU0ArWmxYETkHsqksb48SseQXLpqHT157FW69+RYz6MoHCd+TFWwuFGdiBdqet0XgnOns9ddfxyOPPYpXX9+Als4u06LexZHKHG6kE2n4nW4zZSn7WrMUIS3Xn3/u2fjcrTfh3HVnISn7zx5swU8OdGFjXxIx+V0yYcnIlBRJxiclop2GyxeSvFQW80I5fGXFdNyyeA6qS0r+4BIGRVEU5eTBCLZN0FlUTcH+H69sR4vTh+EsWw9TtKnOFCrZNNpOQco3cOIBt8eJdEoEVURWPBMFo8iz+Jp66xSRzaDY40JtkR9VPgeWVZbijDI/1s+biYbyUrGi3WYIzmNiYR84cBAvimg/9MijGBgZRjQWhc8rIkX/OZWkCDYzEKz3pmUa8HvROK0OF15wNj5z+52YPWvWeB26ZaKQvl/QT7tmPb29L59lt2RAfnP/w9i+aweOtB7FSCSMlCkq5zV05wV7bOUHpskh5HMj53bgiquvxO3XX4e1q1ZhIBzBw3sO4p4jx7B/NIWEM4h4OGZayoejMb4G+RnEP3nn84q8+My8Gty+fDYaK8pNWCjY7/czK4qiKB8Nrr/6q7/6ayvYkWgER/qHsaGjB+G0A3GKo7FrzcrqdP6IXMPScGNpJtNyTo7S1JY1LW+nEcj8KF0pORzLZjAkotYSz+DQSAyHY2k09w1geGAQRSLmFaXFZiavpsYGzJg+DXPnz8XIaBgD/f3Gks2NjbrmFIvUIQvHx6b2JVJJ9A8Po6OrC4eOHhEpdKCsrNQM+EKrnFC0KF7vRbStKB/PSrVWLKFQb9u2E/f/5hH8+tcPmnr6lpZ2JDjMK2sUGH5xy4yH08H6fw/cXrepWqipqsSnP30nbrnuE1ixbBla+wfxwK5DeKBjEDtHEmJZSxj4jhl+hkkWVkswczS3yINPza/HjQunYWZN1fgzMlwq2oqiKB8P3mJh9/UP4Kl9zfj713aiOelCxOPP11+LcKddIsNj6b5DlIJX0MI1FreIsRngwymiSMGW87Su2epb1MIcM+3ARVxzgRBHa4FXBCcgp5eUBHFWdTFWVgSxclot5jTUGVFjHferGzZi8xtv4MWXX8XOXftEEGNyT5eIFH1jy/U08wemkRrDyOk916xcgdNWLMNZZ6zB8uVLUVtbaxp+UXi58FnfjYBZQbbviPAY4TEW6be2tWPf/oPYv+cAdu/ejx1796G9vcvUUfNOLDHPyF+S/4tFzNIBZixc8hyBYBCnr12Niy+4EJdfdAHKysuwta0bvz96DM909OPgSBxxO6GKPKzL5UVGMjtOtxvOgB9zQy7cNrMS189rwty6anm2fCt9+6wMK7dtsb2iKIoyNTGNzpigEw5w8uTew/jfr+3CobgDSU9Q1ElOiAWYFjHOjOmcKZrm2hSJU5NFpDMsDhdBku1sTgSDoi4i6hBLkpN/sPyXljcVln2sHRlmADzwiaSVibrPLvXi/GkVuHh6NZY11qK8pNj43dvXh5dffg2//s3DZkKMgaEhsa5FhDgEp4SLrcld8pdOit/0XoSppCSEJYvmY52I9urVq7BArPWampq3jE3+TuG7mSjWbI3e29OLltZWHDh4CFt37TZF4O3NrRgJj4owy7NJ8NxZFzhrtUN2GOaUKHhanpWDwnjkPVSKVX3euWfj9ptuwlmnr0WXWNWb2nvxwJEevNY7gmPJFNLyrliSIG/VDIaSS3FmNMlIyZFZlSF8em4tbprXiJnVFSacDC/F2W7bMKtgK4qiTG2MhT22bcTw6b1H8E+v7kQnJ3kKBFHu9iLkdrIrNLxetwiNE24RSdEbI8AUhXQma6zAaDaFkVQG/ckMehNZxDIUDrEEqaQiGh65PpGIsYUaHGJp51IpONIiJvRT7lHpd2JdVQjXzKjGiupSzJ3WiIA/P1/2c8+/hN8+8nu8suk1tHZ2ICn3oZXqSIj1KRkEFg1zQBZa3uzixMxEcTCApYsW4IzTV2Phgnlm/u3KygqUlrDI3G8aqRUOdzoRFqmzQRiHX2V1QWQ0gv6BAVMScUiEeseOXdixby/aenuRTiThl8wJScm9ObSovCV5Pnl0CSvDwyoDp0cyKCVFmDlrJtasPR133XoLGhsacEgs8qeau3H/0T4ciMt9s2kR6pzY5MxcsM4+By/fYyIO9s9eWF6Em+Y34MYFLAavNPe18H0xU2IF+3jPpyiKokwdxrt1ccVWzS/sO4KHdx403YUqPS40FodQVRRERXHAtOwOiYCy7zWLrc0sXSLECRHewUgU/WERtGgMLfEU9kfSOBJOYSApGQHZj8cTIo4uJETYMyKETrdPrqf5bkx4BkGE22Uszzq/F5c1luPWRTOwuKbU1G9TdI4cOYLHnnoCv3v8Uezb34z4iIh/lBNeiDhJWBMib6Lhsi//yb98wX0OHrcLVRVlmDtrFubMnoVpjY2oqChHrVjdpaUlpuuTKVYX98yE8JlYb84Gb/0izl3dx0Soh9Dd04ODzUfR3tmJ8NAIYtE4UhJ+yZdI5gHwUFzl2lg6BZefo7bJ/U1pgrwvecwSeafTp9VjrWQgLrvsEqxYsRwREfqdA6P43eFj+O3hbgyyvl5Enb9HTt6VKaVwsUhf7iHnit05zAm48dkFjbjljBUol99GURRF+fgzLti0JkcjEew83ApvIIDG6grUlZWMD3xiMUIiy4mKlVPiV/9oFAeODWBDyzFs6BzAYRHXURH6tuFROMVyT3IEM/Gbw2ia8mOx0ilOObdH7h9CUEK1TCzuzy9rxDnTqlArguvzeY3F+9xLL+Jnv7gHWza+gdhQBGlxmxW/ORqayKcJWyyRyM+rTQEX0WQGg+E2pfgskpZ7h4pCKCkqMkswIBkRZ76uO5YSizoeN43eBgcGEY0mTFjpT1bCaBrT5diQLYOULC4JFzMFCXlmt0vEVizpSDwCv1jxzAJUllZJWAJYsnABbrzuGlx03jmm69vRrl480HwM39vbiRG4TZ/zeDJmGqGxMZpThD8t1rnsSIYghxJnBvO9Dvzp2oW4cvkC8z7eTfG+oiiKMnV5y8ApHD708KEWzJ0/B0WhwHHFoOCSty1uTYr13TMcxhtt3XhozyE81zuKIU8AkVjaFPea6vBMip6K2LlNP+skJ3mWe7Outy7oxWfm1+KOFXMwrSQErwgjG5FxcpF7fvVrPPjwb437weFIvl90Ji1C6TNjlVP4aL9TtNnQixspjobG8boLYNE6z7KhHC1kuBkucZumhZuF1+OXzIATqVQauYyIv5FhyH0CSErY2VLd7/PnMx2SaUiJH+yTXhoKGeu9sakeN9zwSVx56cWora5ES3c/Xj02iof3d+BleR9JuYgDocDpMjOVJZMJZBIx05ed74FvuKHEh9NLXPjGmkVYO3eG+W34vFxrkbeiKMrHn7e0EufQpIf3H8KCxQsRDOWLWk9kwbHomOLNBk0TxcOIp2AbO1m3B/uG8OM39uD3Lf1oT0Os+qgp0naKtQixJnNieXvEMk5QaSlYck1QlHSu34XPLpqGa+Y1YFZjnfGTQ51u2bkT/+fb/4yNG7dhZGAIXhFaWtFsrBVNRM3EIS4R+IwIqCmiFsw0n9zkffl84p516Uas5X4MORvHG0va1NfnB26RU0bc2RrdJaKfkGN8LsK6cwp4ODyCqpoaRMVCP235cnz203fgkvPWo7KiHPtbO/HYoU7cu68TWwfEeuasY7mM6ccuLwopeR7ehC3hfWKlZyUjwPKNxqATF9UV479cehbqy0vNe1SRVhRFObWYMDTpAJoPHcGs2bNMX+bClsVvJxJWuCYTeHstRY/ruAjT60c78dNdzXi8ewTHsmycJlatiDy7fFEUxSdk0yJYRSVmUBKviGyZnDurKoibl8/EebMbUF1WYjIGvX39ePTZZ3H/vQ9g9859GBkMw+XN93F2ikVON2zsRv9NS3H2DRdLnILNh6coG5tZHkHk3ljmbNNOi58N7NhljWGnoHOsbyPgEsSMLKaOWa5j6/iMWObFJcVYs3wZ7r7jVqxbuwYlxcVo7unH/TsO44mWPnTlfAiL/yNi6XsDYpWLn/FYBA7JVLD5H+up3bTkvX4ERdBPK/Xi7qVNuHbpHLPPd2l/F3Z9Y6O5E2WqFEVRlI8HbxFsztbV0tpmBi8pFqGhEJxIDOylhULOYxRvHpt4Lc/xONdshNYTHsXLbcdw78EObOoNI5ySa0Uwk7RcM+K3h+XLYhlzAg22LJdDFT4Pajw5LAg6sL6xHOfOm4F5ddXIiAAODg7j1c3b8NKGLXhl4+vo6ulFdGjA1CuzPjkVi4pAin/ikRlKVYKdNWGnTDOLwLUItNnJF0VTRXPs7813IbscK52DtqRYRM5jDjdqqmqwdPlinH36aqw7bQXqamtEcH3Y1tKBlw+3YXcsh+aECz3pnGndztfiYIv5qAi13F90Xm5Dyz6HgD8Ajzz/tFAAZ9eW4pqmcqybPwMlRaG3vE/W5VuxLnz/iqIoyseT8SJxiuzg4CBa2loxc8ZMlJaUvMXCfjusGBduc82FojKxyNxa5EMjYRzt78dL7X34zYFObB4QERPrOBeJIFFUCqe4M9NNerzUVeTE+pSzItxuVHudqA64Mb80gPV1lThjdhNKPE6EwxG0d3Vj5/5DeHXLVmzZtg3dnZ1wsk46nRIrPiU+SBgZHmOBcxQ1mslivTpp7edbwBsZ53HRSSeHR+W2/HMFQ2iaNQPLli7GaUuWYMm8uagWkU75/Njb1YuNh9vRkgR6EnEMZh3oEZGOcfxzj5v5BWQkDBz4hBa1GNty3IWc3Ncp4fLJclFdGW5bMhNr6ipQU1KEUDDwlqoFWvvc51L43hVFUZSPL2/ph8067IOHD2He3HmmKPdEgj2ZQNttu8/FbheuJ0IB6u4fwAt7DuHB9gG80juIlNePwZiIvMvNal7TVWtcliTIrNvlSGEU1hIR85mlQcwIeLAgF8Hi+krMb6xFSdCPpIhxl4j3ru07cPRoK1pa282sYNFoFKOyJMQyT4lIsjU2JzjhkKG0yN1ivbIPuJf1ybIurypHY10dpjc1oaKhHjNnzjTVBsb/wTAOD0fR7PTi8EgcbaMJ9EfixlJn6+6cZCxYHM9nF1k2omvEX57NDFPKTEMyYfqeX1AZxKX1ZVg9dzoqxX/7zsy1YwLN60/02yiKoigfP/5NK/GDhw5h7pw5pkj8vYoCvaTQHI/jne8V0d5+tA2bBkbwYs8QXugYRsLhFpHL1+8a0aal7pDrxX2+FbgcY/cwET63CFm9J4cZJT5MLwlhWmkR6mVxJWJIyrOxxTdHXeP0nRRqinZMFk4swmNslW4Qy9vlE7H2+uAWMXXIe8jKMZ52yPVp9ov2BxETMe+LJtEyFEFrLImORBo5ce8S0Wdf85zTDafcx+GlBc1y73y/agY+I7kQeflyDw+m+dw4t7oEV85uwKKyIKbXVCAYCIy/I64p0oVF4oqiKMqpxbhgc8U67MOHmzFr1iyUlLx3wX6vUJQ47GffSBiv7D2I33aN4PXhBLoiacSz+cZjbtEwJ4c5FfHjuNxUP/bBpmA75HoKKi3kbCIFn6wDIuYlfi/K/R5UBLyoKwogJI/lzORnF+PiFiXO9zbP122nxNukiGNKhJdCmxL/I+kc+uMpsfpTiIg1PiQCHWX9ttyf/7Nluci+iKv4LfsirxIeVgFIWHhMwp4v/zYO4HHm0Bj0YG19Oc4Ry/osEen5TXUIjo3sZqsQVKQVRVEUMolgH8HsWTNNa+ePQrCNKIvIslEare3nOvrxUvcQdgzH0CPHci6vGU+blrbb4xWjNWeK1J1uDnoioihhpsaxHzT9M3XDFHS24hYhdYmimqJvceuVewZEWjmkqFeuodDSDeeg5uxYcRFkzsJNMaYAU5ydYiFz/HLjPwNNUaWfskcL3Vwh13MAGEeK1jFFX66TDAIbrxX73SLUXiws8eKM2lKc01iNNXNnma5ihVN08ploWWvRt6IoikJOKsEmE4t++4ZGsEHC9Hx3P7aFY2geSaI3mkEi7YTLyfptB1KxmOnH7fR5kElwtDHWn+frxim2DpcbWYomLXARzqyIqCirQZyJ4LIFuGxRcPk6zOQiEhazn3eTl3MRZvGY9dz0n43UjAOx5M1EKPKPMm6mwKQFzxHKOF66uK0tCaE+4ML8Eh9WlQXFsq7E8hmNCPn9Rpi5jP0UZltRFEVRCjnpBHsyGLbReBy7OrrxQksnNhwbwd7BGPrjItxwI8liZ7iQpaUtVqwRPwqubNO6pXXNfdZfs2g6zeHV8to4BjMI4o6b/I9+GLFmEffYcfk/3xXMSLup16albgRbrHhus0heLoDbL5a/hLc04ERDcQB14s+q8iKcNb0Ga2Y2oqE838f97QSa51W8FUVRFHLSCDbvz6XQuua+FSy7HY3F0dI/gFeOtOGJ5k5sEeHOhEqRyrgwPJpEkl3AxF2G44yaBmMi1umkiHDGNAhjUTq9FO/GkPN5CTYaTnk2R0xfbRFh+TOMrRgOt3iQMxa1HOS2rHlPWsts+BaQjIHfkcTqKh/WV5fi/FnTMbu6AkXB4LgfFtbZ2xnDeJyLfQf2mRVFURTlpLKwGYax4IyLFovIKVqTCVc4EkXz0Ag2tXVjY2sf9g9E0TaUQMrjxWgmLaLtRFKEmuOWZdiFiv6kUiLkvrxI00uxvuUmZuG9nSLSEhLRYp4cCwu3ZWEXMl7k4NBm4t4jh9kIzi1+VnidWFJVjvklQaxsqMK8mgqsbKyGn4O+TIJ9LsJBUFhvzzHSC5/TvovJnl1RFEU5tTjpBPtE4jSxfpuk0/nxvM3gJ3LucM8Atnf346WjHTgQjqM1mkBPUgTY7ReL2YlUMm102HSzkoX13ay7zmTl+JhlTQ1nMTqHFzdvx2h4Xjzp3C/W+/SQD7ODbqysKsXKugrMryxFfUkIRT6fvLd86+4TvT/7rGxkZ9293fMriqIopy4nZR12oXCdaJvLRAFnEXMiyRm0UhhNpdGfSKIzHEX7UASdwxEci6TRLftsAR5LZ2SdNXN0J2XfKULsEbH1yi04axjn5i7ysTuYHzUhP5rEem4sDqA66EeDiHOZh5N0OOHzeuAV65hW8vEEl2ElJzo/2fMoiqIoCpkSjc7eK3ympIg3p/jkQCn5Jb8vOs2OWHD6A6YVOafEzHB0FoEizL7ZyWjUWMucO9vrcRth9pu5r7mfF2hFURRF+TD4WAv2O4VF6nz+sVdhrFy1dBVFUZSTCVUlwdY302LmomKtKIqinGyoMimKoijKFEAFW1EURVGmACrYiqIoijIFUMFWFEVRlCmACraiKIqiTAFUsBVFURRlCqCCrSiKoihTABVsRVEURZkCqGAriqIoyhRABVtRFEVRpgAq2IqiKIoyBVDBVhRFUZQpgAq2oiiKokwBVLAVRVEUZQqggq0oiqIoUwAVbEVRFEWZAqhgK4qiKMoUQAVbURRFUaYAKtiKoiiKMgVQwVYURVGUKYAKtqIoiqJMAVSwFUVRFGUKoIKtKIqiKFMAFWxFURRFmQKoYCuKoijKFEAFW1EURVGmACrYiqIoijIFUMFWFEVRlCmACraiKIqiTAFUsBVFURRlCqCCrSiKoihTABVsRVEURZkCqGAriqIoyhRABVtRFEVRpgAq2IqiKIoyBVDBVhRFUZQpgAq2oiiKokwBVLAVRVEUZQqggq0oiqIoUwAVbEVRFEWZAqhgK4qiKMoUQAVbURRFUaYAKtiKoiiKMgVQwVYURVGUKYAKtqIoiqJMAVSwFUVRFGUKoIKtKIqiKFMAFWxFURRFmQKoYCuKoijKFEAFW1EURVGmACrYiqIoijIFUMFWFEVRlCmACraiKIqiTAFUsBVFURRlCqCCrSiKoihTABVsRVEURZkCqGAriqIoyhRABVtRFEVRpgDjgu1wOMa2crIztqkoiqIoyknBcSxsB3I5EW5FURRFUU4KJhFsCrWKtaIoiqKcTGgdtqIoiqJMAVSwFUVRFGUKoIKtKIqiKFMAFWxFURRFmQKoYCuKoijKFGASwWYnbO2IrSiKoignE47cWIdrrvr6+rH/wEGkMxkMDQ7xrEi3ireiKIqivGtEQ98OaiwHLluyeBEaGhrg9/vHzuR1+c1BzcRtJpMxmu1yuTAwMIB9Bw5h74EDyKSycIzZ3zqGiqIoiqK8SxxZKvLkjOkqT+dyWZy19gzMmjkDwWAwf1yEmtrsdL5ZEO5Ip9O5bDYLt9uN0dFRNB9txasbNyGdzsgFY2Ktiq0oiqIo74IcckawRT/l3/F02ymWcSqVwgXnnovZs2YhFAqZ41awiRVtY2GbDTmZTCYxMDgkVvYBY6bTEx4vNMkVRVEURXl7RLLzgi0YFc1vvgW32yUGchqLFi5EZUUlfD6fOU6xnlSwC01uWtuRaBQ+r894olqtKIqiKB8MrI6mcez1es029diKtd22RvNbGp3xIC/0eDxvcTTmRFEURVGU9xHqK4VZjGezTdGm4WyrqrnmMWJM60JBtiJN4VahVhRFUZQPDqu5FGUKNKGAc5vnrFgTY2FTmO1FiqIoiqJ8eNCKpgZzOZEev1l5XUA0Gh3bUhRFURTlg8S2I6NYF/LWfeD/Aweb5W/CEjMMAAAAAElFTkSuQmCC;" parent="37" vertex="1">
                    <mxGeometry x="110" y="42.5" width="89.45" height="50" as="geometry"/>
                </mxCell>
                <mxCell id="29" value="&lt;span style=&quot;color: rgb(0 , 0 , 0) ; font-family: &amp;#34;helvetica&amp;#34; ; font-size: 14px ; font-style: normal ; font-weight: 400 ; letter-spacing: normal ; text-align: left ; text-indent: 0px ; text-transform: none ; word-spacing: 0px ; background-color: rgb(248 , 249 , 250) ; display: inline ; float: none&quot;&gt;Calculate EF KPIs&lt;/span&gt;" style="text;whiteSpace=wrap;html=1;fontSize=14;" parent="37" vertex="1">
                    <mxGeometry width="120" height="30" as="geometry"/>
                </mxCell>
            </root>
        </mxGraphModel>
    </diagram>
</mxfile>